<?xml version="1.0" encoding="UTF-8"?>
<!--Generator: Apple Native CoreSVG 175-->
<!DOCTYPE svg
PUBLIC "-//W3C//DTD SVG 1.1//EN"
       "http://www.w3.org/Graphics/SVG/1.1/DTD/svg11.dtd">
<svg version="1.1" xmlns="http://www.w3.org/2000/svg" xmlns:xlink="http://www.w3.org/1999/xlink" width="3300" height="2200">
 <!--glyph: "", point size: 100.0, font version: "17.1d1e1", template writer version: "65.1"-->
 <g id="Notes">
  <rect height="2200" id="artboard" style="fill:white;opacity:1" width="3300" x="0" y="0"/>
  <line style="fill:none;stroke:black;opacity:1;stroke-width:0.5;" x1="263" x2="3036" y1="292" y2="292"/>
  <text style="stroke:none;fill:black;font-family:sans-serif;font-size:13;font-weight:bold;" transform="matrix(1 0 0 1 263 322)">Weight/Scale Variations</text>
  <text style="stroke:none;fill:black;font-family:sans-serif;font-size:13;text-anchor:middle;" transform="matrix(1 0 0 1 559.711 322)">Ultralight</text>
  <text style="stroke:none;fill:black;font-family:sans-serif;font-size:13;text-anchor:middle;" transform="matrix(1 0 0 1 856.422 322)">Thin</text>
  <text style="stroke:none;fill:black;font-family:sans-serif;font-size:13;text-anchor:middle;" transform="matrix(1 0 0 1 1153.13 322)">Light</text>
  <text style="stroke:none;fill:black;font-family:sans-serif;font-size:13;text-anchor:middle;" transform="matrix(1 0 0 1 1449.84 322)">Regular</text>
  <text style="stroke:none;fill:black;font-family:sans-serif;font-size:13;text-anchor:middle;" transform="matrix(1 0 0 1 1746.56 322)">Medium</text>
  <text style="stroke:none;fill:black;font-family:sans-serif;font-size:13;text-anchor:middle;" transform="matrix(1 0 0 1 2043.27 322)">Semibold</text>
  <text style="stroke:none;fill:black;font-family:sans-serif;font-size:13;text-anchor:middle;" transform="matrix(1 0 0 1 2339.98 322)">Bold</text>
  <text style="stroke:none;fill:black;font-family:sans-serif;font-size:13;text-anchor:middle;" transform="matrix(1 0 0 1 2636.69 322)">Heavy</text>
  <text style="stroke:none;fill:black;font-family:sans-serif;font-size:13;text-anchor:middle;" transform="matrix(1 0 0 1 2933.4 322)">Black</text>
  <line style="fill:none;stroke:black;opacity:1;stroke-width:0.5;" x1="263" x2="3036" y1="1903" y2="1903"/>
  <g transform="matrix(1 0 0 1 263 1933)">
   <path d="M9.24805 0.830078Q10.8691 0.830078 12.2949 0.214844Q13.7207-0.400391 14.8096-1.49414Q15.8984-2.58789 16.5186-4.01367Q17.1387-5.43945 17.1387-7.05078Q17.1387-8.66211 16.5186-10.0879Q15.8984-11.5137 14.8047-12.6074Q13.7109-13.7012 12.2852-14.3164Q10.8594-14.9316 9.23828-14.9316Q7.62695-14.9316 6.20117-14.3164Q4.77539-13.7012 3.69141-12.6074Q2.60742-11.5137 1.9873-10.0879Q1.36719-8.66211 1.36719-7.05078Q1.36719-5.43945 1.9873-4.01367Q2.60742-2.58789 3.69629-1.49414Q4.78516-0.400391 6.21094 0.214844Q7.63672 0.830078 9.24805 0.830078ZM9.24805-0.654297Q7.91992-0.654297 6.7627-1.14746Q5.60547-1.64062 4.73145-2.51953Q3.85742-3.39844 3.36426-4.56055Q2.87109-5.72266 2.87109-7.05078Q2.87109-8.37891 3.35938-9.54102Q3.84766-10.7031 4.72168-11.582Q5.5957-12.4609 6.75293-12.9541Q7.91016-13.4473 9.23828-13.4473Q10.5762-13.4473 11.7334-12.9541Q12.8906-12.4609 13.7695-11.582Q14.6484-10.7031 15.1465-9.54102Q15.6445-8.37891 15.6445-7.05078Q15.6445-5.72266 15.1514-4.56055Q14.6582-3.39844 13.7842-2.51953Q12.9102-1.64062 11.748-1.14746Q10.5859-0.654297 9.24805-0.654297ZM5.6543-7.05078Q5.6543-6.72852 5.85938-6.52832Q6.06445-6.32812 6.40625-6.32812L8.51562-6.32812L8.51562-4.20898Q8.51562-3.88672 8.71094-3.67676Q8.90625-3.4668 9.23828-3.4668Q9.56055-3.4668 9.77051-3.67676Q9.98047-3.88672 9.98047-4.20898L9.98047-6.32812L12.0898-6.32812Q12.4219-6.32812 12.627-6.52832Q12.832-6.72852 12.832-7.05078Q12.832-7.38281 12.627-7.58789Q12.4219-7.79297 12.0898-7.79297L9.98047-7.79297L9.98047-9.90234Q9.98047-10.2344 9.77051-10.4443Q9.56055-10.6543 9.23828-10.6543Q8.90625-10.6543 8.71094-10.4443Q8.51562-10.2344 8.51562-9.90234L8.51562-7.79297L6.40625-7.79297Q6.06445-7.79297 5.85938-7.58789Q5.6543-7.38281 5.6543-7.05078Z"/>
  </g>
  <g transform="matrix(1 0 0 1 281.867 1933)">
   <path d="M11.709 2.91016Q13.75 2.91016 15.5518 2.12891Q17.3535 1.34766 18.7305-0.0292969Q20.1074-1.40625 20.8887-3.20801Q21.6699-5.00977 21.6699-7.05078Q21.6699-9.0918 20.8887-10.8936Q20.1074-12.6953 18.7305-14.0723Q17.3535-15.4492 15.5469-16.2305Q13.7402-17.0117 11.6992-17.0117Q9.6582-17.0117 7.85645-16.2305Q6.05469-15.4492 4.68262-14.0723Q3.31055-12.6953 2.5293-10.8936Q1.74805-9.0918 1.74805-7.05078Q1.74805-5.00977 2.5293-3.20801Q3.31055-1.40625 4.6875-0.0292969Q6.06445 1.34766 7.86621 2.12891Q9.66797 2.91016 11.709 2.91016ZM11.709 1.25Q9.98047 1.25 8.47656 0.605469Q6.97266-0.0390625 5.83496-1.17676Q4.69727-2.31445 4.05762-3.81836Q3.41797-5.32227 3.41797-7.05078Q3.41797-8.7793 4.05762-10.2832Q4.69727-11.7871 5.83008-12.9297Q6.96289-14.0723 8.4668-14.7119Q9.9707-15.3516 11.6992-15.3516Q13.4277-15.3516 14.9316-14.7119Q16.4355-14.0723 17.5781-12.9297Q18.7207-11.7871 19.3652-10.2832Q20.0098-8.7793 20.0098-7.05078Q20.0098-5.32227 19.3701-3.81836Q18.7305-2.31445 17.5928-1.17676Q16.4551-0.0390625 14.9463 0.605469Q13.4375 1.25 11.709 1.25ZM7.17773-7.05078Q7.17773-6.69922 7.41211-6.47461Q7.64648-6.25 8.01758-6.25L10.8887-6.25L10.8887-3.36914Q10.8887-2.99805 11.1133-2.76855Q11.3379-2.53906 11.6895-2.53906Q12.0605-2.53906 12.29-2.76855Q12.5195-2.99805 12.5195-3.36914L12.5195-6.25L15.4004-6.25Q15.7715-6.25 16.001-6.47461Q16.2305-6.69922 16.2305-7.05078Q16.2305-7.42188 16.001-7.65137Q15.7715-7.88086 15.4004-7.88086L12.5195-7.88086L12.5195-10.752Q12.5195-11.1328 12.29-11.3623Q12.0605-11.5918 11.6895-11.5918Q11.3379-11.5918 11.1133-11.3574Q10.8887-11.123 10.8887-10.752L10.8887-7.88086L8.01758-7.88086Q7.63672-7.88086 7.40723-7.65137Q7.17773-7.42188 7.17773-7.05078Z"/>
  </g>
  <g transform="matrix(1 0 0 1 305.646 1933)">
   <path d="M14.9707 5.66406Q17.0605 5.66406 18.96 5.01465Q20.8594 4.36523 22.4512 3.19336Q24.043 2.02148 25.2197 0.429688Q26.3965-1.16211 27.0459-3.06641Q27.6953-4.9707 27.6953-7.05078Q27.6953-9.14062 27.0459-11.04Q26.3965-12.9395 25.2197-14.5312Q24.043-16.123 22.4512-17.2998Q20.8594-18.4766 18.9551-19.126Q17.0508-19.7754 14.9609-19.7754Q12.8711-19.7754 10.9717-19.126Q9.07227-18.4766 7.48535-17.2998Q5.89844-16.123 4.72168-14.5312Q3.54492-12.9395 2.90039-11.04Q2.25586-9.14062 2.25586-7.05078Q2.25586-4.9707 2.90527-3.06641Q3.55469-1.16211 4.72656 0.429688Q5.89844 2.02148 7.49023 3.19336Q9.08203 4.36523 10.9814 5.01465Q12.8809 5.66406 14.9707 5.66406ZM14.9707 3.84766Q13.1641 3.84766 11.5283 3.2959Q9.89258 2.74414 8.53516 1.74805Q7.17773 0.751953 6.17676-0.610352Q5.17578-1.97266 4.62891-3.6084Q4.08203-5.24414 4.08203-7.05078Q4.08203-8.86719 4.62891-10.5029Q5.17578-12.1387 6.17188-13.501Q7.16797-14.8633 8.52539-15.8594Q9.88281-16.8555 11.5186-17.4023Q13.1543-17.9492 14.9609-17.9492Q16.7773-17.9492 18.4131-17.4023Q20.0488-16.8555 21.4111-15.8594Q22.7734-14.8633 23.7695-13.501Q24.7656-12.1387 25.3174-10.5029Q25.8691-8.86719 25.8691-7.05078Q25.8789-5.24414 25.332-3.6084Q24.7852-1.97266 23.7842-0.610352Q22.7832 0.751953 21.4209 1.74805Q20.0586 2.74414 18.4229 3.2959Q16.7871 3.84766 14.9707 3.84766ZM9.19922-7.05078Q9.19922-6.66992 9.45801-6.4209Q9.7168-6.17188 10.1172-6.17188L14.0625-6.17188L14.0625-2.2168Q14.0625-1.81641 14.3115-1.55762Q14.5605-1.29883 14.9512-1.29883Q15.3516-1.29883 15.6104-1.55273Q15.8691-1.80664 15.8691-2.2168L15.8691-6.17188L19.8242-6.17188Q20.2246-6.17188 20.4785-6.4209Q20.7324-6.66992 20.7324-7.05078Q20.7324-7.46094 20.4785-7.71484Q20.2246-7.96875 19.8242-7.96875L15.8691-7.96875L15.8691-11.9141Q15.8691-12.3242 15.6104-12.583Q15.3516-12.8418 14.9512-12.8418Q14.5605-12.8418 14.3115-12.583Q14.0625-12.3242 14.0625-11.9141L14.0625-7.96875L10.1172-7.96875Q9.70703-7.96875 9.45312-7.71484Q9.19922-7.46094 9.19922-7.05078Z"/>
  </g>
  <text style="stroke:none;fill:black;font-family:sans-serif;font-size:13;font-weight:bold;" transform="matrix(1 0 0 1 263 1953)">Design Variations</text>
  <text style="stroke:none;fill:black;font-family:sans-serif;font-size:13;" transform="matrix(1 0 0 1 263 1971)">Symbols are supported in up to nine weights and three scales.</text>
  <text style="stroke:none;fill:black;font-family:sans-serif;font-size:13;" transform="matrix(1 0 0 1 263 1989)">For optimal layout with text and other symbols, vertically align</text>
  <text style="stroke:none;fill:black;font-family:sans-serif;font-size:13;" transform="matrix(1 0 0 1 263 2007)">symbols with the adjacent text.</text>
  <line style="fill:none;stroke:#00AEEF;stroke-width:0.5;opacity:1.0;" x1="776" x2="776" y1="1919" y2="1933"/>
  <g transform="matrix(1 0 0 1 776 1933)">
   <path d="M3.31055 0.15625Q3.70117 0.15625 3.91602-0.00976562Q4.13086-0.175781 4.26758-0.585938L5.52734-4.0332L11.2891-4.0332L12.5488-0.585938Q12.6855-0.175781 12.9004-0.00976562Q13.1152 0.15625 13.4961 0.15625Q13.8867 0.15625 14.1162-0.0585938Q14.3457-0.273438 14.3457-0.644531Q14.3457-0.869141 14.2383-1.17188L9.6582-13.3691Q9.48242-13.8184 9.17969-14.043Q8.87695-14.2676 8.4082-14.2676Q7.5-14.2676 7.17773-13.3789L2.59766-1.16211Q2.49023-0.859375 2.49023-0.634766Q2.49023-0.263672 2.70996-0.0537109Q2.92969 0.15625 3.31055 0.15625ZM6.00586-5.51758L8.37891-12.0898L8.42773-12.0898L10.8008-5.51758Z"/>
  </g>
  <line style="fill:none;stroke:#00AEEF;stroke-width:0.5;opacity:1.0;" x1="793.197" x2="793.197" y1="1919" y2="1933"/>
  <text style="stroke:none;fill:black;font-family:sans-serif;font-size:13;font-weight:bold;" transform="matrix(1 0 0 1 776 1953)">Margins</text>
  <text style="stroke:none;fill:black;font-family:sans-serif;font-size:13;" transform="matrix(1 0 0 1 776 1971)">Leading and trailing margins on the left and right side of each symbol</text>
  <text style="stroke:none;fill:black;font-family:sans-serif;font-size:13;" transform="matrix(1 0 0 1 776 1989)">can be adjusted by modifying the x-location of the margin guidelines.</text>
  <text style="stroke:none;fill:black;font-family:sans-serif;font-size:13;" transform="matrix(1 0 0 1 776 2007)">Modifications are automatically applied proportionally to all</text>
  <text style="stroke:none;fill:black;font-family:sans-serif;font-size:13;" transform="matrix(1 0 0 1 776 2025)">scales and weights.</text>
  <g transform="matrix(1 0 0 1 1289 1933)">
   <path d="M2.8418 1.86523L4.54102 3.57422Q5.18555 4.22852 5.90332 4.17969Q6.62109 4.13086 7.31445 3.35938L18.0078-8.42773L17.041-9.4043L6.42578 2.27539Q6.16211 2.57812 5.89355 2.61719Q5.625 2.65625 5.27344 2.30469L4.10156 1.14258Q3.75 0.791016 3.79395 0.522461Q3.83789 0.253906 4.14062-0.0195312L15.6152-10.8203L14.6387-11.7871L3.04688-0.898438Q2.30469-0.214844 2.25098 0.498047Q2.19727 1.21094 2.8418 1.86523ZM9.25781-16.3281Q8.94531-16.0254 8.90625-15.6348Q8.86719-15.2441 9.04297-14.9512Q9.21875-14.6777 9.55566-14.541Q9.89258-14.4043 10.3809-14.5215Q11.4746-14.7754 12.5977-14.7314Q13.7207-14.6875 14.7949-13.9844L14.209-12.5293Q13.9551-11.9043 14.0674-11.4404Q14.1797-10.9766 14.5801-10.5664L16.875-8.25195Q17.2363-7.88086 17.5781-7.82227Q17.9199-7.76367 18.3398-7.8418L19.4043-8.03711L20.0684-7.36328L20.0293-6.80664Q20-6.43555 20.1221-6.12305Q20.2441-5.81055 20.6055-5.44922L21.3672-4.70703Q21.7285-4.3457 22.1533-4.33105Q22.5781-4.31641 22.9297-4.66797L25.8398-7.58789Q26.1914-7.93945 26.1816-8.35449Q26.1719-8.76953 25.8105-9.13086L25.0391-9.89258Q24.6875-10.2539 24.3799-10.3857Q24.0723-10.5176 23.7109-10.4883L23.1348-10.4395L22.4902-11.0742L22.7344-12.1973Q22.832-12.6172 22.6953-12.9834Q22.5586-13.3496 22.1191-13.7891L19.9219-15.9766Q18.6719-17.2168 17.2607-17.8369Q15.8496-18.457 14.4189-18.4814Q12.9883-18.5059 11.665-17.959Q10.3418-17.4121 9.25781-16.3281ZM10.752-15.957Q11.6602-16.6211 12.7002-16.9043Q13.7402-17.1875 14.8047-17.085Q15.8691-16.9824 16.8701-16.5137Q17.8711-16.0449 18.7012-15.2051L21.1328-12.793Q21.3086-12.6172 21.3525-12.4512Q21.3965-12.2852 21.3379-12.0312L21.0156-10.5469L22.5195-9.0625L23.5059-9.12109Q23.6914-9.13086 23.7891-9.09668Q23.8867-9.0625 24.0332-8.91602L24.6094-8.33984L22.168-5.89844L21.5918-6.47461Q21.4453-6.62109 21.4062-6.71875Q21.3672-6.81641 21.377-7.01172L21.4453-7.98828L19.9512-9.47266L18.4277-9.21875Q18.1836-9.16992 18.042-9.2041Q17.9004-9.23828 17.7148-9.41406L15.7129-11.416Q15.5176-11.5918 15.4932-11.7529Q15.4688-11.9141 15.5859-12.1875L16.4648-14.2773Q15.293-15.3711 13.8281-15.791Q12.3633-16.2109 10.8398-15.7617Q10.7227-15.7324 10.6885-15.8057Q10.6543-15.8789 10.752-15.957Z"/>
  </g>
  <text style="stroke:none;fill:black;font-family:sans-serif;font-size:13;font-weight:bold;" transform="matrix(1 0 0 1 1289 1953)">Exporting</text>
  <text style="stroke:none;fill:black;font-family:sans-serif;font-size:13;" transform="matrix(1 0 0 1 1289 1971)">Symbols should be outlined when exporting to ensure the</text>
  <text style="stroke:none;fill:black;font-family:sans-serif;font-size:13;" transform="matrix(1 0 0 1 1289 1989)">design is preserved when submitting to Xcode.</text>
  <text id="template-version" style="stroke:none;fill:black;font-family:sans-serif;font-size:13;text-anchor:end;" transform="matrix(1 0 0 1 3036 1933)">Template v.3.0</text>
  <text style="stroke:none;fill:black;font-family:sans-serif;font-size:13;text-anchor:end;" transform="matrix(1 0 0 1 3036 1951)">Requires Xcode 13 or greater</text>
  <text id="descriptive-name" style="stroke:none;fill:black;font-family:sans-serif;font-size:13;text-anchor:end;" transform="matrix(1 0 0 1 3036 1969)">Generated from custom.breakpoint.outline</text>
  <text style="stroke:none;fill:black;font-family:sans-serif;font-size:13;text-anchor:end;" transform="matrix(1 0 0 1 3036 1987)">Typeset at 100 points</text>
  <text style="stroke:none;fill:black;font-family:sans-serif;font-size:13;" transform="matrix(1 0 0 1 263 726)">Small</text>
  <text style="stroke:none;fill:black;font-family:sans-serif;font-size:13;" transform="matrix(1 0 0 1 263 1156)">Medium</text>
  <text style="stroke:none;fill:black;font-family:sans-serif;font-size:13;" transform="matrix(1 0 0 1 263 1586)">Large</text>
 </g>
 <g id="Guides">
  <g id="H-reference" style="fill:#27AAE1;stroke:none;" transform="matrix(1 0 0 1 339 696)">
   <path d="M0.993347 0L3.6377 0L29.3282-67.1326L30.0301-67.1326L30.0301-70.459L28.1227-70.459ZM11.6882-24.4797L46.9818-24.4797L46.2311-26.7288L12.4382-26.7288ZM55.1193 0L57.7637 0L30.6381-70.459L29.4327-70.459L29.4327-67.1326Z"/>
  </g>
  <line id="Baseline-S" style="fill:none;stroke:#27AAE1;opacity:1;stroke-width:0.5;" x1="263" x2="3036" y1="696" y2="696"/>
  <line id="Capline-S" style="fill:none;stroke:#27AAE1;opacity:1;stroke-width:0.5;" x1="263" x2="3036" y1="625.541" y2="625.541"/>
  <g id="H-reference" style="fill:#27AAE1;stroke:none;" transform="matrix(1 0 0 1 339 1126)">
   <path d="M0.993347 0L3.6377 0L29.3282-67.1326L30.0301-67.1326L30.0301-70.459L28.1227-70.459ZM11.6882-24.4797L46.9818-24.4797L46.2311-26.7288L12.4382-26.7288ZM55.1193 0L57.7637 0L30.6381-70.459L29.4327-70.459L29.4327-67.1326Z"/>
  </g>
  <line id="Baseline-M" style="fill:none;stroke:#27AAE1;opacity:1;stroke-width:0.5;" x1="263" x2="3036" y1="1126" y2="1126"/>
  <line id="Capline-M" style="fill:none;stroke:#27AAE1;opacity:1;stroke-width:0.5;" x1="263" x2="3036" y1="1055.54" y2="1055.54"/>
  <g id="H-reference" style="fill:#27AAE1;stroke:none;" transform="matrix(1 0 0 1 339 1556)">
   <path d="M0.993347 0L3.6377 0L29.3282-67.1326L30.0301-67.1326L30.0301-70.459L28.1227-70.459ZM11.6882-24.4797L46.9818-24.4797L46.2311-26.7288L12.4382-26.7288ZM55.1193 0L57.7637 0L30.6381-70.459L29.4327-70.459L29.4327-67.1326Z"/>
  </g>
  <line id="Baseline-L" style="fill:none;stroke:#27AAE1;opacity:1;stroke-width:0.5;" x1="263" x2="3036" y1="1556" y2="1556"/>
  <line id="Capline-L" style="fill:none;stroke:#27AAE1;opacity:1;stroke-width:0.5;" x1="263" x2="3036" y1="1485.54" y2="1485.54"/>
  <line id="left-margin-Ultralight-S" style="fill:none;stroke:#00AEEF;stroke-width:0.5;opacity:1.0;" x1="512.517" x2="512.517" y1="600.784" y2="720.121"/>
  <line id="right-margin-Ultralight-S" style="fill:none;stroke:#00AEEF;stroke-width:0.5;opacity:1.0;" x1="606.905" x2="606.905" y1="600.784" y2="720.121"/>
  <line id="left-margin-Regular-S" style="fill:none;stroke:#00AEEF;stroke-width:0.5;opacity:1.0;" x1="1399.7" x2="1399.7" y1="600.784" y2="720.121"/>
  <line id="right-margin-Regular-S" style="fill:none;stroke:#00AEEF;stroke-width:0.5;opacity:1.0;" x1="1499.99" x2="1499.99" y1="600.784" y2="720.121"/>
  <line id="left-margin-Black-S" style="fill:none;stroke:#00AEEF;stroke-width:0.5;opacity:1.0;" x1="2882.17" x2="2882.17" y1="600.784" y2="720.121"/>
  <line id="right-margin-Black-S" style="fill:none;stroke:#00AEEF;stroke-width:0.5;opacity:1.0;" x1="2984.63" x2="2984.63" y1="600.784" y2="720.121"/>
  <line id="left-margin-Regular-M" style="fill:none;stroke:#00AEEF;stroke-width:0.5;opacity:1.0;" x1="1386.54" x2="1386.54" y1="1030.78" y2="1150.12"/>
  <line id="right-margin-Regular-M" style="fill:none;stroke:#00AEEF;stroke-width:0.5;opacity:1.0;" x1="1513.14" x2="1513.14" y1="1030.78" y2="1150.12"/>
 </g>
 <g id="Symbols">
  <g id="Black-L" transform="matrix(1 0 0 1 2849.6 1556)">
   <path d="M26.9759-66.1193L26.9759-6.47717C26.9759-2.8075 29.9789 0.179298 33.6979 0.179298L104.645 0.179298C106.293 0.179298 107.882-0.419927 109.112-1.50309L142.965-31.3242C145.971-33.972 145.971-38.6245 142.964-41.2723L109.112-71.0934C107.882-72.1766 106.293-72.7758 104.645-72.7758L33.6979-72.7758C29.9789-72.7758 26.9759-69.789 26.9759-66.1193ZM14.7279-66.1193C14.7279-76.5666 23.2277-85.0238 33.6979-85.0238L104.645-85.0238C109.272-85.0238 113.741-83.3382 117.209-80.2827L151.062-50.4617C159.603-42.9375 159.603-29.659 151.062-22.1349L117.209 7.68623C113.741 10.7417 109.272 12.4273 104.645 12.4273L33.6979 12.4273C23.2276 12.4273 14.7279 3.97009 14.7279-6.47717L14.7279-66.1193Z"/>
  </g>
  <g id="Heavy-L" transform="matrix(1 0 0 1 2553.48 1556)">
   <path d="M27.2465-65.7788L27.2465-7.27553C27.2465-3.55924 30.2947-0.532185 34.0725-0.532185L103.766-0.532185C105.44-0.532185 107.055-1.14004 108.304-2.23838L141.559-31.4901C144.61-34.1722 144.61-38.8821 141.559-41.5643L108.304-70.8159C107.055-71.9143 105.44-72.5222 103.766-72.5222L34.0725-72.5222C30.2947-72.5222 27.2465-69.4951 27.2465-65.7788ZM15.6604-65.7788C15.6604-75.9099 23.9117-84.1083 34.0725-84.1083L103.766-84.1083C108.256-84.1083 112.593-82.475 115.959-79.5137L149.213-50.2621C157.506-42.9665 157.506-30.0879 149.213-22.7923L115.959 6.45936C112.593 9.42064 108.256 11.054 103.766 11.054L34.0725 11.054C23.9117 11.054 15.6604 2.85555 15.6604-7.27553L15.6604-65.7788Z"/>
  </g>
  <g id="Bold-L" transform="matrix(1 0 0 1 2257.6 1556)">
   <path d="M27.4615-65.1984L27.4615-8.13237C27.4615-4.36698 30.5581-1.29735 34.3989-1.29735L102.5-1.29735C104.203-1.29735 105.845-1.91436 107.115-3.0288L139.61-31.5619C142.707-34.2802 142.707-39.0505 139.61-41.7689L107.115-70.3019C105.845-71.4164 104.203-72.0334 102.5-72.0334L34.3989-72.0334C30.5581-72.0334 27.4615-68.9637 27.4615-65.1984ZM16.6747-65.1984C16.6747-74.9401 24.6195-82.8202 34.3989-82.8202L102.5-82.8202C106.821-82.8202 110.994-81.2511 114.234-78.4056L146.729-49.8727C154.716-42.8584 154.716-30.4723 146.729-23.4581L114.234 5.07493C110.994 7.92038 106.821 9.48947 102.5 9.48947L34.3989 9.48947C24.6195 9.48947 16.6747 1.60942 16.6747-8.13237L16.6747-65.1984Z"/>
  </g>
  <g id="Semibold-L" transform="matrix(1 0 0 1 1961.47 1556)">
   <path d="M27.6098-64.7982L27.6098-8.72306C27.6098-4.92383 30.7397-1.82484 34.6239-1.82484L101.627-1.82484C103.35-1.82484 105.011-2.44818 106.295-3.5737L138.266-31.6113C141.395-34.3547 141.395-39.1666 138.266-41.91L106.295-69.9475C105.011-71.0731 103.35-71.6964 101.627-71.6964L34.6239-71.6964C30.7397-71.6964 27.6098-68.5974 27.6098-64.7982ZM17.374-64.7982C17.374-74.2716 25.1075-81.9322 34.6239-81.9322L101.627-81.9322C105.831-81.9322 109.892-80.4074 113.045-77.6417L145.016-49.6043C152.793-42.7839 152.793-30.7374 145.016-23.9171L113.045 4.12051C109.892 6.88611 105.831 8.41093 101.627 8.41093L34.6239 8.41093C25.1075 8.41093 17.374 0.750346 17.374-8.72306L17.374-64.7982Z"/>
  </g>
  <g id="Medium-L" transform="matrix(1 0 0 1 1665.19 1556)">
   <path d="M27.7222-64.4948L27.7222-9.17095C27.7222-5.34605 30.8774-2.22481 34.7945-2.22481L100.966-2.22481C102.703-2.22481 104.378-2.85294 105.673-3.98687L137.247-31.6489C140.401-34.4111 140.401-39.2546 137.247-42.017L105.673-69.6788C104.378-70.8128 102.703-71.4409 100.966-71.4409L34.7945-71.4409C30.8774-71.4409 27.7222-68.3197 27.7222-64.4948ZM17.9042-64.4948C17.9042-73.7647 25.4775-81.2589 34.7945-81.2589L100.966-81.2589C105.081-81.2589 109.057-79.7676 112.144-77.0625L143.718-49.4007C151.334-42.7274 151.334-30.9383 143.718-24.2651L112.144 3.39683C109.057 6.10188 105.081 7.59313 100.966 7.59313L34.7945 7.59313C25.4775 7.59313 17.9042 0.0989622 17.9042-9.17095L17.9042-64.4948Z"/>
  </g>
  <g id="Regular-L" transform="matrix(1 0 0 1 1369.05 1556)">
   <path d="M27.8688-64.099L27.8688-9.75516C27.8688-5.89678 31.0569-2.74652 35.017-2.74652L100.103-2.74652C101.86-2.74652 103.553-3.38089 104.862-4.52579L135.918-31.6978C139.103-34.4848 139.103-39.3694 135.918-42.1565L104.862-69.3284C103.553-70.4733 101.86-71.1077 100.103-71.1077L35.017-71.1077C31.0569-71.1077 27.8688-67.9574 27.8688-64.099ZM18.5958-64.099C18.5958-73.1035 25.9601-80.3806 35.017-80.3806L100.103-80.3806C104.103-80.3806 107.967-78.9332 110.968-76.3071L142.024-49.1352C149.432-42.6537 149.432-31.2004 142.024-24.7191L110.968 2.45289C107.967 5.07898 104.103 6.52644 100.103 6.52644L35.017 6.52644C25.9601 6.52644 18.5958-0.75067 18.5958-9.75516L18.5958-64.099Z"/>
  </g>
  <g id="Light-L" transform="matrix(1 0 0 1 1073.58 1556)">
   <path d="M27.2438-62.6764L27.2438-9.49668C27.2438-5.66004 30.416-2.52736 34.3565-2.52736L98.085-2.52736C99.8334-2.52736 101.519-3.15823 102.821-4.29678L133.229-30.8867C136.399-33.658 136.399-38.515 133.229-41.2864L102.821-67.8762C101.519-69.0148 99.8334-69.6457 98.085-69.6457L34.3565-69.6457C30.416-69.6457 27.2438-66.513 27.2438-62.6764ZM18.3911-62.6764C18.3911-71.427 25.5513-78.4983 34.3565-78.4983L98.085-78.4983C101.974-78.4983 105.73-77.092 108.648-74.5403L139.057-47.9505C146.26-41.652 146.26-30.5211 139.057-24.2226L108.648 2.36728C105.73 4.91893 101.974 6.3253 98.085 6.3253L34.3565 6.3253C25.5513 6.3253 18.3911-0.746009 18.3911-9.49668L18.3911-62.6764Z"/>
  </g>
  <g id="Thin-L" transform="matrix(1 0 0 1 778.511 1556)">
   <path d="M26.4171-60.7947L26.4171-9.15482C26.4171-5.34694 29.5683-2.23752 33.4828-2.23752L95.4166-2.23752C97.1535-2.23752 98.8277-2.86375 100.121-3.9939L129.673-29.8139C132.822-32.5646 132.822-37.385 129.673-40.1357L100.121-65.9556C98.8277-67.0858 97.1535-67.712 95.4166-67.712L33.4828-67.712C29.5683-67.712 26.4171-64.6026 26.4171-60.7947ZM18.1203-60.7947C18.1203-69.2097 25.0106-76.0088 33.4828-76.0088L95.4166-76.0088C99.1579-76.0088 102.772-74.6568 105.58-72.2036L135.132-46.3837C142.064-40.3271 142.064-29.6225 135.132-23.5659L105.58 2.25405C102.772 4.70726 99.1579 6.05928 95.4166 6.05928L33.4828 6.05928C25.0106 6.05928 18.1203-0.739844 18.1203-9.15482L18.1203-60.7947Z"/>
  </g>
  <g id="Ultralight-L" transform="matrix(1 0 0 1 482.64 1556)">
   <path d="M25.9937-59.831L25.9937-8.97972C25.9937-5.18657 29.1341-2.08906 33.0353-2.08906L94.0498-2.08906C95.7809-2.08906 97.4494-2.71291 98.7385-3.83876L127.852-29.2645C130.989-32.0045 130.989-36.8062 127.852-39.5463L98.7385-64.9719C97.4494-66.0978 95.7809-66.7217 94.0498-66.7217L33.0353-66.7217C29.1341-66.7217 25.9937-63.6241 25.9937-59.831ZM17.9816-59.831C17.9816-68.074 24.7337-74.7337 33.0353-74.7337L94.0498-74.7337C97.7157-74.7337 101.257-73.4095 104.009-71.0067L133.122-45.5812C139.916-39.6485 139.916-29.1623 133.122-23.2296L104.009 2.19605C101.257 4.59884 97.7157 5.92302 94.0498 5.92302L33.0353 5.92302C24.7337 5.92302 17.9816-0.736687 17.9816-8.97972L17.9816-59.831Z"/>
  </g>
  <g id="Black-M" transform="matrix(1 0 0 1 2868.13 1126)">
   <path d="M20.5822-59.2612L20.5822-12.2328C20.5822-9.43278 22.8677-7.15577 25.6958-7.15577L81.5544-7.15577C82.8071-7.15577 84.0154-7.61212 84.951-8.43739L111.604-31.9516C113.894-33.9713 113.894-37.5226 111.604-39.5424L84.951-63.0566C84.0154-63.8818 82.8071-64.3382 81.5544-64.3382L25.6958-64.3382C22.8677-64.3382 20.5822-62.0612 20.5822-59.2612ZM10.5813-59.2612C10.5813-67.5924 17.3522-74.3391 25.6958-74.3391L81.5544-74.3391C85.2427-74.3391 88.8041-72.9939 91.5676-70.5558L118.221-47.0417C125.023-41.0406 125.023-30.4533 118.221-24.4524L91.5676-0.938191C88.8041 1.4999 85.2427 2.84513 81.5544 2.84513L25.6958 2.84513C17.3522 2.84513 10.5813-3.90154 10.5813-12.2328L10.5813-59.2612Z"/>
  </g>
  <g id="Heavy-M" transform="matrix(1 0 0 1 2571.89 1126)">
   <path d="M20.9043-59.0595L20.9043-13.0371C20.9043-10.1895 23.2355-7.87151 26.1229-7.87151L80.8816-7.87151C82.161-7.87151 83.395-8.33662 84.3499-9.17731L110.478-32.1886C112.812-34.2433 112.812-37.8533 110.478-39.9081L84.3499-62.9193C83.395-63.76 82.161-64.2251 80.8816-64.2251L26.1229-64.2251C23.2355-64.2251 20.9043-61.9071 20.9043-59.0595ZM11.5117-59.0595C11.5117-67.1051 18.0586-73.6178 26.1229-73.6178L80.8816-73.6178C84.4457-73.6178 87.8876-72.3198 90.559-69.967L116.687-46.9558C123.266-41.1614 123.266-30.9352 116.687-25.1409L90.5589-2.12964C87.8876 0.223224 84.4457 1.52116 80.8816 1.52116L26.1229 1.52116C18.0586 1.52116 11.5117-4.99151 11.5117-13.0371L11.5117-59.0595Z"/>
  </g>
  <g id="Bold-M" transform="matrix(1 0 0 1 2275.69 1126)">
   <path d="M21.2647-58.834L21.2647-13.9368C21.2647-11.036 23.647-8.67217 26.6007-8.67217L80.1289-8.67217C81.4384-8.67217 82.701-9.14708 83.6775-10.005L109.219-32.4536C111.602-34.5476 111.602-38.2232 109.219-40.3172L83.6775-62.7657C82.701-63.6237 81.4383-64.0986 80.1289-64.0986L26.6007-64.0986C23.647-64.0986 21.2647-61.7348 21.2647-58.834ZM12.5525-58.834C12.5525-66.56 18.8488-72.8109 26.6007-72.8109L80.1289-72.8109C83.5542-72.8109 86.8624-71.5659 89.4306-69.3083L114.972-46.8598C121.301-41.2965 121.301-31.4743 114.972-25.911L89.4306-3.46244C86.8624-1.20492 83.5542 0.0401065 80.1289 0.0401065L26.6007 0.0401065C18.8488 0.0401065 12.5525-6.21081 12.5525-13.9368L12.5525-58.834Z"/>
  </g>
  <g id="Semibold-M" transform="matrix(1 0 0 1 1979.34 1126)">
   <path d="M21.5132-58.6785L21.5132-14.5571C21.5132-11.6196 23.9307-9.22414 26.9301-9.22414L79.61-9.22414C80.9402-9.22414 82.2225-9.7058 83.214-10.5756L108.351-32.6364C110.768-34.7573 110.768-38.4783 108.35-40.5992L83.214-62.6599C82.2225-63.5298 80.9401-64.0114 79.61-64.0114L26.9301-64.0114C23.9307-64.0114 21.5132-61.616 21.5132-58.6785ZM13.27-58.6785C13.27-66.1842 19.3935-72.2546 26.9301-72.2546L79.61-72.2546C82.9396-72.2546 86.1556-71.0461 88.6527-68.8543L113.789-46.7937C119.946-41.3896 119.946-31.8459 113.789-26.442L88.6527-4.38127C86.1556-2.18948 82.9396-0.980922 79.61-0.980922L26.9301-0.980922C19.3935-0.980922 13.27-7.05138 13.27-14.5571L13.27-58.6785Z"/>
  </g>
  <g id="Medium-M" transform="matrix(1 0 0 1 1682.9 1126)">
   <path d="M21.7016-58.5606L21.7016-15.0274C21.7016-12.0621 24.1458-9.64266 27.1798-9.64266L79.2166-9.64266C80.5624-9.64266 81.8597-10.1295 82.8625-11.0083L107.692-32.7749C110.136-34.9163 110.136-38.6716 107.692-40.8131L82.8625-62.5796C81.8597-63.4585 80.5624-63.9453 79.2166-63.9453L27.1798-63.9453C24.1458-63.9453 21.7016-61.5259 21.7016-58.5606ZM13.814-58.5606C13.814-65.8992 19.8066-71.8329 27.1798-71.8329L79.2166-71.8329C82.4736-71.8329 85.6197-70.652 88.0629-68.51L112.892-46.7435C118.919-41.4602 118.919-32.1277 112.893-26.8445L88.0629-5.07796C85.6197-2.93601 82.4736-1.75511 79.2166-1.75511L27.1798-1.75511C19.8066-1.75511 13.814-7.68874 13.814-15.0274L13.814-58.5606Z"/>
  </g>
  <g id="Regular-M" transform="matrix(1 0 0 1 1386.54 1126)">
   <path d="M21.9473-58.4068L21.9473-15.6409C21.9473-12.6392 24.4264-10.1886 27.5056-10.1886L78.7034-10.1886C80.0696-10.1886 81.3865-10.682 82.4041-11.5727L106.833-32.9557C109.311-35.1238 109.311-38.9239 106.833-41.092L82.4041-62.4749C81.3865-63.3656 80.0696-63.8591 78.7034-63.8591L27.5056-63.8591C24.4264-63.8591 21.9473-61.4084 21.9473-58.4068ZM14.5236-58.4068C14.5236-65.5276 20.3453-71.2827 27.5056-71.2827L78.7034-71.2827C81.8658-71.2827 84.9207-70.1379 87.2936-68.0609L111.723-46.678C117.579-41.5523 117.579-32.4953 111.723-27.3697L87.2936-5.98669C84.9207-3.90974 81.8658-2.76492 78.7034-2.76492L27.5056-2.76492C20.3453-2.76492 14.5236-8.52007 14.5236-15.6409L14.5236-58.4068Z"/>
  </g>
  <g id="Light-M" transform="matrix(1 0 0 1 1090.95 1126)">
   <path d="M21.3869-57.1313L21.3869-15.4091C21.3869-12.427 23.8517-9.99208 26.9134-9.99208L76.8945-9.99208C78.253-9.99208 79.5624-10.4824 80.5741-11.3673L104.423-32.2285C106.886-34.3825 106.886-38.1578 104.423-40.312L80.5741-61.173C79.5623-62.058 78.253-62.5483 76.8945-62.5483L26.9134-62.5483C23.8517-62.5483 21.3869-60.1134 21.3869-57.1313ZM14.3401-57.1313C14.3401-64.0245 19.9788-69.5951 26.9134-69.5951L76.8945-69.5951C79.9571-69.5951 82.9156-68.4871 85.2138-66.4769L109.062-45.6159C114.735-40.6542 114.735-31.8862 109.063-26.9245L85.2137-6.06345C82.9156-4.05323 79.9571-2.94525 76.8945-2.94525L26.9134-2.94525C19.9788-2.94525 14.3401-8.51589 14.3401-15.4091L14.3401-57.1313Z"/>
  </g>
  <g id="Thin-M" transform="matrix(1 0 0 1 795.705 1126)">
   <path d="M20.6458-55.4443L20.6458-15.1026C20.6458-12.1463 23.0917-9.73222 26.1301-9.73222L74.5021-9.73222C75.8503-9.73222 77.1498-10.2184 78.1538-11.0958L101.235-31.2667C103.679-33.4022 103.679-37.1447 101.235-39.2803L78.1538-59.4511C77.1497-60.3285 75.8503-60.8147 74.5021-60.8147L26.1301-60.8147C23.0917-60.8147 20.6458-58.4007 20.6458-55.4443ZM14.0973-55.4443C14.0973-62.0366 19.4941-67.3632 26.1301-67.3632L74.5021-67.3632C77.4326-67.3632 80.2637-66.3039 82.463-64.3819L105.544-44.2112C110.973-39.4664 110.973-31.0806 105.544-26.3358L82.463-6.16497C80.2637-4.24301 77.4327-3.18375 74.5021-3.18375L26.1301-3.18375C19.4941-3.18375 14.0973-8.51037 14.0973-15.1026L14.0973-55.4443Z"/>
  </g>
  <g id="Ultralight-M" transform="matrix(1 0 0 1 499.747 1126)">
   <path d="M20.2662-54.5802L20.2662-14.9456C20.2662-12.0025 22.7024-9.59912 25.7289-9.59912L73.2768-9.59912C74.6197-9.59912 75.914-10.0832 76.9141-10.9567L99.6019-30.774C102.036-32.9001 102.036-36.6258 99.6018-38.7519L76.9141-58.5692C75.914-59.4427 74.6197-59.9268 73.2768-59.9268L25.7289-59.9268C22.7024-59.9268 20.2662-57.5234 20.2662-54.5802ZM13.973-54.5802C13.973-61.0183 19.2458-66.22 25.7289-66.22L73.2768-66.22C76.1397-66.22 78.9054-65.1857 81.0541-63.3089L103.742-43.4917C109.047-38.8579 109.047-30.668 103.742-26.0343L81.0541-6.21697C78.9055-4.34021 76.1397-3.30591 73.2768-3.30591L25.7289-3.30591C19.2458-3.30591 13.973-8.50754 13.973-14.9456L13.973-54.5802Z"/>
  </g>
  <g id="Black-S" transform="matrix(1 0 0 1 2882.17 696)">
   <path d="M16-54.05L16-16.95C16-14.7712 17.7765-13 19.9739-13L64.0126-13C64.9857-13 65.9245-13.3548 66.6515-13.9966L87.6649-32.5466C89.445-34.118 89.445-36.882 87.6648-38.4534L66.6515-57.0034C65.9245-57.6452 64.9857-58 64.0126-58L19.9739-58C17.7765-58 16-56.2288 16-54.05ZM8-54.05C8-60.6525 13.3636-66 19.9739-66L64.0126-66C66.9349-66 69.7566-64.9336 71.9459-63.0009L92.9591-44.4509C98.347-39.6949 98.347-31.3051 92.9592-26.5491L71.9459-7.9991C69.7566-6.06644 66.9349-5 64.0126-5L19.9739-5C13.3636-5 8-10.3475 8-16.95L8-54.05Z"/>
  </g>
  <g id="Heavy-S" transform="matrix(1 0 0 1 2585.72 696)">
   <path d="M16.3472-54.0406L16.3472-17.6675C16.3472-15.4455 18.1645-13.6373 20.4149-13.6373L63.6683-13.6373C64.6654-13.6373 65.627-14 66.3713-14.6556L87.01-32.8422C88.8298-34.4454 88.8298-37.2627 87.0099-38.8659L66.3713-57.0524C65.627-57.7081 64.6654-58.0708 63.6683-58.0708L20.4149-58.0708C18.1645-58.0708 16.3472-56.2626 16.3472-54.0406ZM8.8192-54.0406C8.8192-60.4278 14.0146-65.5988 20.4149-65.5988L63.6683-65.5988C66.4972-65.5988 69.229-64.5681 71.349-62.6998L91.9876-44.5133C97.2079-39.913 97.2079-31.7951 91.9876-27.1948L71.349-9.00829C69.229-7.13999 66.4972-6.1093 63.6683-6.1093L20.4149-6.1093C14.0146-6.1093 8.8192-11.2802 8.8192-17.6675L8.8192-54.0406Z"/>
  </g>
  <g id="Bold-S" transform="matrix(1 0 0 1 2289.29 696)">
   <path d="M16.7354-54.03L16.7354-18.47C16.7354-16.1997 18.5985-14.35 20.9081-14.35L63.2833-14.35C64.3071-14.35 65.2943-14.7215 66.0579-15.3928L86.2775-33.1728C88.1417-34.8115 88.1417-37.6885 86.2774-39.3272L66.0579-57.1072C65.2943-57.7785 64.3071-58.15 63.2833-58.15L20.9081-58.15C18.5986-58.15 16.7354-56.3003 16.7354-54.03ZM9.73543-54.03C9.73543-60.1765 14.7427-65.15 20.9081-65.15L63.2833-65.15C66.0077-65.15 68.6389-64.1593 70.6814-62.363L90.9009-44.583C95.9339-40.1569 95.9339-32.3431 90.901-27.917L70.6814-10.137C68.6389-8.34072 66.0077-7.35 63.2833-7.35L20.9081-7.35C14.7427-7.35 9.73543-12.3235 9.73543-18.47L9.73543-54.03Z"/>
  </g>
  <g id="Semibold-S" transform="matrix(1 0 0 1 1992.78 696)">
   <path d="M17.0031-54.0227L17.0031-19.0233C17.0031-16.7197 18.8978-14.8414 21.2482-14.8414L63.0178-14.8414C64.06-14.8414 65.0649-15.219 65.8418-15.901L85.7725-33.4008C87.6673-35.0639 87.6673-37.9821 85.7724-39.6453L65.8419-57.145C65.0649-57.827 64.06-58.2046 63.0178-58.2046L21.2482-58.2046C18.8978-58.2046 17.0031-56.3263 17.0031-54.0227ZM10.3671-54.0227C10.3671-60.0032 15.2446-64.8406 21.2482-64.8406L63.0178-64.8406C65.6702-64.8406 68.2321-63.8774 70.2212-62.1307L90.1517-44.6311C95.0555-40.325 95.0555-32.721 90.1518-28.415L70.2212-10.9152C68.2321-9.16856 65.6702-8.2054 63.0178-8.2054L21.2482-8.2054C15.2446-8.2054 10.3671-13.0427 10.3671-19.0233L10.3671-54.0227Z"/>
  </g>
  <g id="Medium-S" transform="matrix(1 0 0 1 1696.22 696)">
   <path d="M17.2061-54.0172L17.2061-19.4428C17.2061-17.1139 19.1247-15.214 21.506-15.214L62.8165-15.214C63.8727-15.214 64.8909-15.5962 65.678-16.2864L85.3896-33.5736C87.3076-35.2553 87.3076-38.2047 85.3895-39.8864L65.678-57.1736C64.8909-57.8638 63.8727-58.246 62.8165-58.246L21.506-58.246C19.1247-58.246 17.2061-56.3461 17.2061-54.0172ZM10.8461-54.0172C10.8461-59.8719 15.6253-64.606 21.506-64.606L62.8165-64.606C65.4143-64.606 67.9236-63.6637 69.8722-61.9547L89.5836-44.6675C94.3895-40.4525 94.3895-33.0075 89.5837-28.7925L69.8722-11.5053C67.9236-9.79626 65.4143-8.854 62.8165-8.854L21.506-8.854C15.6253-8.854 10.8461-13.5881 10.8461-19.4428L10.8461-54.0172Z"/>
  </g>
  <g id="Regular-S" transform="matrix(1 0 0 1 1399.7 696)">
   <path d="M17.4709-54.01L17.4709-19.99C17.4709-17.6282 19.4206-15.7 21.8423-15.7L62.5539-15.7C63.6284-15.7 64.6641-16.0883 65.4643-16.789L84.8901-33.799C86.8384-35.505 86.8384-38.495 84.8901-40.201L65.4643-57.211C64.664-57.9117 63.6284-58.3 62.5539-58.3L21.8423-58.3C19.4206-58.3 17.4709-56.3718 17.4709-54.01ZM11.4709-54.01C11.4709-59.7005 16.1217-64.3 21.8423-64.3L62.5539-64.3C65.0805-64.3 67.5212-63.385 69.417-61.725L88.8427-44.7151C93.5208-40.6188 93.5208-33.3812 88.8427-29.285L69.417-12.275C67.5213-10.615 65.0805-9.7 62.5539-9.7L21.8423-9.7C16.1217-9.7 11.4709-14.2995 11.4709-19.99L11.4709-54.01Z"/>
  </g>
  <g id="Light-S" transform="matrix(1 0 0 1 1103.97 696)">
   <path d="M16.9752-52.8817L16.9752-19.785C16.9752-17.4404 18.9123-15.5262 21.3184-15.5262L60.9538-15.5262C62.0214-15.5262 63.0504-15.9117 63.8455-16.6074L82.7577-33.1557C84.6933-34.8492 84.6933-37.8174 82.7577-39.511L63.8455-56.0593C63.0504-56.755 62.0214-57.1405 60.9538-57.1405L21.3184-57.1405C18.9123-57.1405 16.9752-55.2262 16.9752-52.8817ZM11.3085-52.8817C11.3085-58.3709 15.7975-62.8071 21.3184-62.8071L60.9538-62.8071C63.392-62.8071 65.7475-61.9247 67.5771-60.3238L86.4893-43.7755C91.005-39.8243 91.005-32.8423 86.4893-28.8912L67.5771-12.3429C65.7475-10.7419 63.3921-9.85952 60.9538-9.85952L21.3184-9.85952C15.7975-9.85952 11.3085-14.2958 11.3085-19.785L11.3085-52.8817Z"/>
  </g>
  <g id="Thin-S" transform="matrix(1 0 0 1 808.562 696)">
   <path d="M16.3195-51.3894L16.3195-19.5139C16.3195-17.1921 18.2399-15.2963 20.6255-15.2963L58.8374-15.2963C59.8959-15.2963 60.9162-15.6781 61.7045-16.3671L79.9375-32.3049C81.8563-33.982 81.8563-36.9212 79.9375-38.5983L61.7045-54.5361C60.9161-55.2251 59.8959-55.6069 58.8374-55.6069L20.6255-55.6069C18.2399-55.6069 16.3195-53.7111 16.3195-51.3894ZM11.0937-51.3894C11.0937-56.6123 15.3687-60.8327 20.6255-60.8327L58.8374-60.8327C61.1589-60.8327 63.4016-59.9934 65.1438-58.4705L83.3768-42.5329C87.6776-38.7735 87.6776-32.1297 83.3768-28.3704L65.1438-12.4327C63.4016-10.9098 61.1589-10.0705 58.8374-10.0705L20.6255-10.0705C15.3687-10.0705 11.0937-14.2909 11.0937-19.5139L11.0937-51.3894Z"/>
  </g>
  <g id="Ultralight-S" transform="matrix(1 0 0 1 512.517 696)">
   <path d="M15.9837-50.625L15.9837-19.375C15.9837-17.0649 17.8956-15.1786 20.2706-15.1786L57.7534-15.1786C58.8073-15.1786 59.823-15.5585 60.6078-16.2441L78.493-31.8691C80.4031-33.5378 80.4031-36.4622 78.493-38.1309L60.6078-53.7559C59.823-54.4415 58.8073-54.8214 57.7534-54.8214L20.2706-54.8214C17.8956-54.8214 15.9837-52.9351 15.9837-50.625ZM10.9837-50.625C10.9837-55.7116 15.1491-59.8214 20.2706-59.8214L57.7534-59.8214C60.0151-59.8214 62.2-59.0042 63.8974-57.5213L81.7825-41.8964C85.9733-38.2353 85.9733-31.7647 81.7826-28.1037L63.8974-12.4787C62.2001-10.9958 60.0151-10.1786 57.7534-10.1786L20.2706-10.1786C15.1491-10.1786 10.9837-14.2884 10.9837-19.375L10.9837-50.625Z"/>
  </g>
 </g>
</svg>
