<?xml version="1.0" encoding="UTF-8"?>
<!--Generator: Apple Native CoreSVG 175-->
<!DOCTYPE svg
PUBLIC "-//W3C//DTD SVG 1.1//EN"
       "http://www.w3.org/Graphics/SVG/1.1/DTD/svg11.dtd">
<svg version="1.1" xmlns="http://www.w3.org/2000/svg" xmlns:xlink="http://www.w3.org/1999/xlink" width="3300" height="2200">
 <!--glyph: "", point size: 100.0, font version: "17.1d1e1", template writer version: "65.1"-->
 <g id="Notes">
  <rect height="2200" id="artboard" style="fill:white;opacity:1" width="3300" x="0" y="0"/>
  <line style="fill:none;stroke:black;opacity:1;stroke-width:0.5;" x1="263" x2="3036" y1="292" y2="292"/>
  <text style="stroke:none;fill:black;font-family:sans-serif;font-size:13;font-weight:bold;" transform="matrix(1 0 0 1 263 322)">Weight/Scale Variations</text>
  <text style="stroke:none;fill:black;font-family:sans-serif;font-size:13;text-anchor:middle;" transform="matrix(1 0 0 1 559.711 322)">Ultralight</text>
  <text style="stroke:none;fill:black;font-family:sans-serif;font-size:13;text-anchor:middle;" transform="matrix(1 0 0 1 856.422 322)">Thin</text>
  <text style="stroke:none;fill:black;font-family:sans-serif;font-size:13;text-anchor:middle;" transform="matrix(1 0 0 1 1153.13 322)">Light</text>
  <text style="stroke:none;fill:black;font-family:sans-serif;font-size:13;text-anchor:middle;" transform="matrix(1 0 0 1 1449.84 322)">Regular</text>
  <text style="stroke:none;fill:black;font-family:sans-serif;font-size:13;text-anchor:middle;" transform="matrix(1 0 0 1 1746.56 322)">Medium</text>
  <text style="stroke:none;fill:black;font-family:sans-serif;font-size:13;text-anchor:middle;" transform="matrix(1 0 0 1 2043.27 322)">Semibold</text>
  <text style="stroke:none;fill:black;font-family:sans-serif;font-size:13;text-anchor:middle;" transform="matrix(1 0 0 1 2339.98 322)">Bold</text>
  <text style="stroke:none;fill:black;font-family:sans-serif;font-size:13;text-anchor:middle;" transform="matrix(1 0 0 1 2636.69 322)">Heavy</text>
  <text style="stroke:none;fill:black;font-family:sans-serif;font-size:13;text-anchor:middle;" transform="matrix(1 0 0 1 2933.4 322)">Black</text>
  <line style="fill:none;stroke:black;opacity:1;stroke-width:0.5;" x1="263" x2="3036" y1="1903" y2="1903"/>
  <g transform="matrix(1 0 0 1 263 1933)">
   <path d="M9.24805 0.830078Q10.8691 0.830078 12.2949 0.214844Q13.7207-0.400391 14.8096-1.49414Q15.8984-2.58789 16.5186-4.01367Q17.1387-5.43945 17.1387-7.05078Q17.1387-8.66211 16.5186-10.0879Q15.8984-11.5137 14.8047-12.6074Q13.7109-13.7012 12.2852-14.3164Q10.8594-14.9316 9.23828-14.9316Q7.62695-14.9316 6.20117-14.3164Q4.77539-13.7012 3.69141-12.6074Q2.60742-11.5137 1.9873-10.0879Q1.36719-8.66211 1.36719-7.05078Q1.36719-5.43945 1.9873-4.01367Q2.60742-2.58789 3.69629-1.49414Q4.78516-0.400391 6.21094 0.214844Q7.63672 0.830078 9.24805 0.830078ZM9.24805-0.654297Q7.91992-0.654297 6.7627-1.14746Q5.60547-1.64062 4.73145-2.51953Q3.85742-3.39844 3.36426-4.56055Q2.87109-5.72266 2.87109-7.05078Q2.87109-8.37891 3.35938-9.54102Q3.84766-10.7031 4.72168-11.582Q5.5957-12.4609 6.75293-12.9541Q7.91016-13.4473 9.23828-13.4473Q10.5762-13.4473 11.7334-12.9541Q12.8906-12.4609 13.7695-11.582Q14.6484-10.7031 15.1465-9.54102Q15.6445-8.37891 15.6445-7.05078Q15.6445-5.72266 15.1514-4.56055Q14.6582-3.39844 13.7842-2.51953Q12.9102-1.64062 11.748-1.14746Q10.5859-0.654297 9.24805-0.654297ZM5.6543-7.05078Q5.6543-6.72852 5.85938-6.52832Q6.06445-6.32812 6.40625-6.32812L8.51562-6.32812L8.51562-4.20898Q8.51562-3.88672 8.71094-3.67676Q8.90625-3.4668 9.23828-3.4668Q9.56055-3.4668 9.77051-3.67676Q9.98047-3.88672 9.98047-4.20898L9.98047-6.32812L12.0898-6.32812Q12.4219-6.32812 12.627-6.52832Q12.832-6.72852 12.832-7.05078Q12.832-7.38281 12.627-7.58789Q12.4219-7.79297 12.0898-7.79297L9.98047-7.79297L9.98047-9.90234Q9.98047-10.2344 9.77051-10.4443Q9.56055-10.6543 9.23828-10.6543Q8.90625-10.6543 8.71094-10.4443Q8.51562-10.2344 8.51562-9.90234L8.51562-7.79297L6.40625-7.79297Q6.06445-7.79297 5.85938-7.58789Q5.6543-7.38281 5.6543-7.05078Z"/>
  </g>
  <g transform="matrix(1 0 0 1 281.867 1933)">
   <path d="M11.709 2.91016Q13.75 2.91016 15.5518 2.12891Q17.3535 1.34766 18.7305-0.0292969Q20.1074-1.40625 20.8887-3.20801Q21.6699-5.00977 21.6699-7.05078Q21.6699-9.0918 20.8887-10.8936Q20.1074-12.6953 18.7305-14.0723Q17.3535-15.4492 15.5469-16.2305Q13.7402-17.0117 11.6992-17.0117Q9.6582-17.0117 7.85645-16.2305Q6.05469-15.4492 4.68262-14.0723Q3.31055-12.6953 2.5293-10.8936Q1.74805-9.0918 1.74805-7.05078Q1.74805-5.00977 2.5293-3.20801Q3.31055-1.40625 4.6875-0.0292969Q6.06445 1.34766 7.86621 2.12891Q9.66797 2.91016 11.709 2.91016ZM11.709 1.25Q9.98047 1.25 8.47656 0.605469Q6.97266-0.0390625 5.83496-1.17676Q4.69727-2.31445 4.05762-3.81836Q3.41797-5.32227 3.41797-7.05078Q3.41797-8.7793 4.05762-10.2832Q4.69727-11.7871 5.83008-12.9297Q6.96289-14.0723 8.4668-14.7119Q9.9707-15.3516 11.6992-15.3516Q13.4277-15.3516 14.9316-14.7119Q16.4355-14.0723 17.5781-12.9297Q18.7207-11.7871 19.3652-10.2832Q20.0098-8.7793 20.0098-7.05078Q20.0098-5.32227 19.3701-3.81836Q18.7305-2.31445 17.5928-1.17676Q16.4551-0.0390625 14.9463 0.605469Q13.4375 1.25 11.709 1.25ZM7.17773-7.05078Q7.17773-6.69922 7.41211-6.47461Q7.64648-6.25 8.01758-6.25L10.8887-6.25L10.8887-3.36914Q10.8887-2.99805 11.1133-2.76855Q11.3379-2.53906 11.6895-2.53906Q12.0605-2.53906 12.29-2.76855Q12.5195-2.99805 12.5195-3.36914L12.5195-6.25L15.4004-6.25Q15.7715-6.25 16.001-6.47461Q16.2305-6.69922 16.2305-7.05078Q16.2305-7.42188 16.001-7.65137Q15.7715-7.88086 15.4004-7.88086L12.5195-7.88086L12.5195-10.752Q12.5195-11.1328 12.29-11.3623Q12.0605-11.5918 11.6895-11.5918Q11.3379-11.5918 11.1133-11.3574Q10.8887-11.123 10.8887-10.752L10.8887-7.88086L8.01758-7.88086Q7.63672-7.88086 7.40723-7.65137Q7.17773-7.42188 7.17773-7.05078Z"/>
  </g>
  <g transform="matrix(1 0 0 1 305.646 1933)">
   <path d="M14.9707 5.66406Q17.0605 5.66406 18.96 5.01465Q20.8594 4.36523 22.4512 3.19336Q24.043 2.02148 25.2197 0.429688Q26.3965-1.16211 27.0459-3.06641Q27.6953-4.9707 27.6953-7.05078Q27.6953-9.14062 27.0459-11.04Q26.3965-12.9395 25.2197-14.5312Q24.043-16.123 22.4512-17.2998Q20.8594-18.4766 18.9551-19.126Q17.0508-19.7754 14.9609-19.7754Q12.8711-19.7754 10.9717-19.126Q9.07227-18.4766 7.48535-17.2998Q5.89844-16.123 4.72168-14.5312Q3.54492-12.9395 2.90039-11.04Q2.25586-9.14062 2.25586-7.05078Q2.25586-4.9707 2.90527-3.06641Q3.55469-1.16211 4.72656 0.429688Q5.89844 2.02148 7.49023 3.19336Q9.08203 4.36523 10.9814 5.01465Q12.8809 5.66406 14.9707 5.66406ZM14.9707 3.84766Q13.1641 3.84766 11.5283 3.2959Q9.89258 2.74414 8.53516 1.74805Q7.17773 0.751953 6.17676-0.610352Q5.17578-1.97266 4.62891-3.6084Q4.08203-5.24414 4.08203-7.05078Q4.08203-8.86719 4.62891-10.5029Q5.17578-12.1387 6.17188-13.501Q7.16797-14.8633 8.52539-15.8594Q9.88281-16.8555 11.5186-17.4023Q13.1543-17.9492 14.9609-17.9492Q16.7773-17.9492 18.4131-17.4023Q20.0488-16.8555 21.4111-15.8594Q22.7734-14.8633 23.7695-13.501Q24.7656-12.1387 25.3174-10.5029Q25.8691-8.86719 25.8691-7.05078Q25.8789-5.24414 25.332-3.6084Q24.7852-1.97266 23.7842-0.610352Q22.7832 0.751953 21.4209 1.74805Q20.0586 2.74414 18.4229 3.2959Q16.7871 3.84766 14.9707 3.84766ZM9.19922-7.05078Q9.19922-6.66992 9.45801-6.4209Q9.7168-6.17188 10.1172-6.17188L14.0625-6.17188L14.0625-2.2168Q14.0625-1.81641 14.3115-1.55762Q14.5605-1.29883 14.9512-1.29883Q15.3516-1.29883 15.6104-1.55273Q15.8691-1.80664 15.8691-2.2168L15.8691-6.17188L19.8242-6.17188Q20.2246-6.17188 20.4785-6.4209Q20.7324-6.66992 20.7324-7.05078Q20.7324-7.46094 20.4785-7.71484Q20.2246-7.96875 19.8242-7.96875L15.8691-7.96875L15.8691-11.9141Q15.8691-12.3242 15.6104-12.583Q15.3516-12.8418 14.9512-12.8418Q14.5605-12.8418 14.3115-12.583Q14.0625-12.3242 14.0625-11.9141L14.0625-7.96875L10.1172-7.96875Q9.70703-7.96875 9.45312-7.71484Q9.19922-7.46094 9.19922-7.05078Z"/>
  </g>
  <text style="stroke:none;fill:black;font-family:sans-serif;font-size:13;font-weight:bold;" transform="matrix(1 0 0 1 263 1953)">Design Variations</text>
  <text style="stroke:none;fill:black;font-family:sans-serif;font-size:13;" transform="matrix(1 0 0 1 263 1971)">Symbols are supported in up to nine weights and three scales.</text>
  <text style="stroke:none;fill:black;font-family:sans-serif;font-size:13;" transform="matrix(1 0 0 1 263 1989)">For optimal layout with text and other symbols, vertically align</text>
  <text style="stroke:none;fill:black;font-family:sans-serif;font-size:13;" transform="matrix(1 0 0 1 263 2007)">symbols with the adjacent text.</text>
  <line style="fill:none;stroke:#00AEEF;stroke-width:0.5;opacity:1.0;" x1="776" x2="776" y1="1919" y2="1933"/>
  <g transform="matrix(1 0 0 1 776 1933)">
   <path d="M3.31055 0.15625Q3.70117 0.15625 3.91602-0.00976562Q4.13086-0.175781 4.26758-0.585938L5.52734-4.0332L11.2891-4.0332L12.5488-0.585938Q12.6855-0.175781 12.9004-0.00976562Q13.1152 0.15625 13.4961 0.15625Q13.8867 0.15625 14.1162-0.0585938Q14.3457-0.273438 14.3457-0.644531Q14.3457-0.869141 14.2383-1.17188L9.6582-13.3691Q9.48242-13.8184 9.17969-14.043Q8.87695-14.2676 8.4082-14.2676Q7.5-14.2676 7.17773-13.3789L2.59766-1.16211Q2.49023-0.859375 2.49023-0.634766Q2.49023-0.263672 2.70996-0.0537109Q2.92969 0.15625 3.31055 0.15625ZM6.00586-5.51758L8.37891-12.0898L8.42773-12.0898L10.8008-5.51758Z"/>
  </g>
  <line style="fill:none;stroke:#00AEEF;stroke-width:0.5;opacity:1.0;" x1="793.197" x2="793.197" y1="1919" y2="1933"/>
  <text style="stroke:none;fill:black;font-family:sans-serif;font-size:13;font-weight:bold;" transform="matrix(1 0 0 1 776 1953)">Margins</text>
  <text style="stroke:none;fill:black;font-family:sans-serif;font-size:13;" transform="matrix(1 0 0 1 776 1971)">Leading and trailing margins on the left and right side of each symbol</text>
  <text style="stroke:none;fill:black;font-family:sans-serif;font-size:13;" transform="matrix(1 0 0 1 776 1989)">can be adjusted by modifying the x-location of the margin guidelines.</text>
  <text style="stroke:none;fill:black;font-family:sans-serif;font-size:13;" transform="matrix(1 0 0 1 776 2007)">Modifications are automatically applied proportionally to all</text>
  <text style="stroke:none;fill:black;font-family:sans-serif;font-size:13;" transform="matrix(1 0 0 1 776 2025)">scales and weights.</text>
  <g transform="matrix(1 0 0 1 1289 1933)">
   <path d="M2.8418 1.86523L4.54102 3.57422Q5.18555 4.22852 5.90332 4.17969Q6.62109 4.13086 7.31445 3.35938L18.0078-8.42773L17.041-9.4043L6.42578 2.27539Q6.16211 2.57812 5.89355 2.61719Q5.625 2.65625 5.27344 2.30469L4.10156 1.14258Q3.75 0.791016 3.79395 0.522461Q3.83789 0.253906 4.14062-0.0195312L15.6152-10.8203L14.6387-11.7871L3.04688-0.898438Q2.30469-0.214844 2.25098 0.498047Q2.19727 1.21094 2.8418 1.86523ZM9.25781-16.3281Q8.94531-16.0254 8.90625-15.6348Q8.86719-15.2441 9.04297-14.9512Q9.21875-14.6777 9.55566-14.541Q9.89258-14.4043 10.3809-14.5215Q11.4746-14.7754 12.5977-14.7314Q13.7207-14.6875 14.7949-13.9844L14.209-12.5293Q13.9551-11.9043 14.0674-11.4404Q14.1797-10.9766 14.5801-10.5664L16.875-8.25195Q17.2363-7.88086 17.5781-7.82227Q17.9199-7.76367 18.3398-7.8418L19.4043-8.03711L20.0684-7.36328L20.0293-6.80664Q20-6.43555 20.1221-6.12305Q20.2441-5.81055 20.6055-5.44922L21.3672-4.70703Q21.7285-4.3457 22.1533-4.33105Q22.5781-4.31641 22.9297-4.66797L25.8398-7.58789Q26.1914-7.93945 26.1816-8.35449Q26.1719-8.76953 25.8105-9.13086L25.0391-9.89258Q24.6875-10.2539 24.3799-10.3857Q24.0723-10.5176 23.7109-10.4883L23.1348-10.4395L22.4902-11.0742L22.7344-12.1973Q22.832-12.6172 22.6953-12.9834Q22.5586-13.3496 22.1191-13.7891L19.9219-15.9766Q18.6719-17.2168 17.2607-17.8369Q15.8496-18.457 14.4189-18.4814Q12.9883-18.5059 11.665-17.959Q10.3418-17.4121 9.25781-16.3281ZM10.752-15.957Q11.6602-16.6211 12.7002-16.9043Q13.7402-17.1875 14.8047-17.085Q15.8691-16.9824 16.8701-16.5137Q17.8711-16.0449 18.7012-15.2051L21.1328-12.793Q21.3086-12.6172 21.3525-12.4512Q21.3965-12.2852 21.3379-12.0312L21.0156-10.5469L22.5195-9.0625L23.5059-9.12109Q23.6914-9.13086 23.7891-9.09668Q23.8867-9.0625 24.0332-8.91602L24.6094-8.33984L22.168-5.89844L21.5918-6.47461Q21.4453-6.62109 21.4062-6.71875Q21.3672-6.81641 21.377-7.01172L21.4453-7.98828L19.9512-9.47266L18.4277-9.21875Q18.1836-9.16992 18.042-9.2041Q17.9004-9.23828 17.7148-9.41406L15.7129-11.416Q15.5176-11.5918 15.4932-11.7529Q15.4688-11.9141 15.5859-12.1875L16.4648-14.2773Q15.293-15.3711 13.8281-15.791Q12.3633-16.2109 10.8398-15.7617Q10.7227-15.7324 10.6885-15.8057Q10.6543-15.8789 10.752-15.957Z"/>
  </g>
  <text style="stroke:none;fill:black;font-family:sans-serif;font-size:13;font-weight:bold;" transform="matrix(1 0 0 1 1289 1953)">Exporting</text>
  <text style="stroke:none;fill:black;font-family:sans-serif;font-size:13;" transform="matrix(1 0 0 1 1289 1971)">Symbols should be outlined when exporting to ensure the</text>
  <text style="stroke:none;fill:black;font-family:sans-serif;font-size:13;" transform="matrix(1 0 0 1 1289 1989)">design is preserved when submitting to Xcode.</text>
  <text id="template-version" style="stroke:none;fill:black;font-family:sans-serif;font-size:13;text-anchor:end;" transform="matrix(1 0 0 1 3036 1933)">Template v.3.0</text>
  <text style="stroke:none;fill:black;font-family:sans-serif;font-size:13;text-anchor:end;" transform="matrix(1 0 0 1 3036 1951)">Requires Xcode 13 or greater</text>
  <text id="descriptive-name" style="stroke:none;fill:black;font-family:sans-serif;font-size:13;text-anchor:end;" transform="matrix(1 0 0 1 3036 1969)">Generated from custom.breakpoint</text>
  <text style="stroke:none;fill:black;font-family:sans-serif;font-size:13;text-anchor:end;" transform="matrix(1 0 0 1 3036 1987)">Typeset at 100 points</text>
  <text style="stroke:none;fill:black;font-family:sans-serif;font-size:13;" transform="matrix(1 0 0 1 263 726)">Small</text>
  <text style="stroke:none;fill:black;font-family:sans-serif;font-size:13;" transform="matrix(1 0 0 1 263 1156)">Medium</text>
  <text style="stroke:none;fill:black;font-family:sans-serif;font-size:13;" transform="matrix(1 0 0 1 263 1586)">Large</text>
 </g>
 <g id="Guides">
  <g id="H-reference" style="fill:#27AAE1;stroke:none;" transform="matrix(1 0 0 1 339 696)">
   <path d="M0.993347 0L3.6377 0L29.3282-67.1326L30.0301-67.1326L30.0301-70.459L28.1227-70.459ZM11.6882-24.4797L46.9818-24.4797L46.2311-26.7288L12.4382-26.7288ZM55.1193 0L57.7637 0L30.6381-70.459L29.4327-70.459L29.4327-67.1326Z"/>
  </g>
  <line id="Baseline-S" style="fill:none;stroke:#27AAE1;opacity:1;stroke-width:0.5;" x1="263" x2="3036" y1="696" y2="696"/>
  <line id="Capline-S" style="fill:none;stroke:#27AAE1;opacity:1;stroke-width:0.5;" x1="263" x2="3036" y1="625.541" y2="625.541"/>
  <g id="H-reference" style="fill:#27AAE1;stroke:none;" transform="matrix(1 0 0 1 339 1126)">
   <path d="M0.993347 0L3.6377 0L29.3282-67.1326L30.0301-67.1326L30.0301-70.459L28.1227-70.459ZM11.6882-24.4797L46.9818-24.4797L46.2311-26.7288L12.4382-26.7288ZM55.1193 0L57.7637 0L30.6381-70.459L29.4327-70.459L29.4327-67.1326Z"/>
  </g>
  <line id="Baseline-M" style="fill:none;stroke:#27AAE1;opacity:1;stroke-width:0.5;" x1="263" x2="3036" y1="1126" y2="1126"/>
  <line id="Capline-M" style="fill:none;stroke:#27AAE1;opacity:1;stroke-width:0.5;" x1="263" x2="3036" y1="1055.54" y2="1055.54"/>
  <g id="H-reference" style="fill:#27AAE1;stroke:none;" transform="matrix(1 0 0 1 339 1556)">
   <path d="M0.993347 0L3.6377 0L29.3282-67.1326L30.0301-67.1326L30.0301-70.459L28.1227-70.459ZM11.6882-24.4797L46.9818-24.4797L46.2311-26.7288L12.4382-26.7288ZM55.1193 0L57.7637 0L30.6381-70.459L29.4327-70.459L29.4327-67.1326Z"/>
  </g>
  <line id="Baseline-L" style="fill:none;stroke:#27AAE1;opacity:1;stroke-width:0.5;" x1="263" x2="3036" y1="1556" y2="1556"/>
  <line id="Capline-L" style="fill:none;stroke:#27AAE1;opacity:1;stroke-width:0.5;" x1="263" x2="3036" y1="1485.54" y2="1485.54"/>
  <line id="left-margin-Ultralight-S" style="fill:none;stroke:#00AEEF;stroke-width:0.5;opacity:1.0;" x1="511.993" x2="511.993" y1="600.784" y2="720.121"/>
  <line id="right-margin-Ultralight-S" style="fill:none;stroke:#00AEEF;stroke-width:0.5;opacity:1.0;" x1="607.429" x2="607.429" y1="600.784" y2="720.121"/>
  <line id="left-margin-Regular-S" style="fill:none;stroke:#00AEEF;stroke-width:0.5;opacity:1.0;" x1="1399.11" x2="1399.11" y1="600.784" y2="720.121"/>
  <line id="right-margin-Regular-S" style="fill:none;stroke:#00AEEF;stroke-width:0.5;opacity:1.0;" x1="1500.57" x2="1500.57" y1="600.784" y2="720.121"/>
  <line id="left-margin-Black-S" style="fill:none;stroke:#00AEEF;stroke-width:0.5;opacity:1.0;" x1="2881.5" x2="2881.5" y1="600.784" y2="720.121"/>
  <line id="right-margin-Black-S" style="fill:none;stroke:#FF3B30;stroke-width:0.5;opacity:1.0;" x1="2985.3" x2="2985.3" y1="600.784" y2="720.121"/>
  <line id="left-margin-Regular-M" style="fill:none;stroke:#00AEEF;stroke-width:0.5;opacity:1.0;" x1="1385.81" x2="1385.81" y1="1030.78" y2="1150.12"/>
  <line id="right-margin-Regular-M" style="fill:none;stroke:#00AEEF;stroke-width:0.5;opacity:1.0;" x1="1513.88" x2="1513.88" y1="1030.78" y2="1150.12"/>
 </g>
 <g id="Symbols">
  <g id="Black-L" transform="matrix(1 0 0 1 2848.53 1556)">
   <path d="M20.8838 26.7037L116.064 26.7037C118.47 26.7037 120.671 26.3927 122.667 25.7706C124.662 25.1485 126.541 24.245 128.301 23.0601C130.062 21.8751 131.735 20.4532 133.32 18.7943C155.505-11.8954 166.851-27.8327 167.36-29.0176C168.123-30.7951 168.505-32.691 168.505-34.7053C168.505-36.7197 168.108-38.6008 167.316-40.3485C166.788-41.5138 155.456-57.8807 133.32-89.4492C131.735-91.108 130.077-92.3818 128.345-93.2706C126.614-94.1593 124.736-94.7665 122.711-95.0923C120.686-95.4182 118.47-95.5812 116.064-95.5812L20.8838-95.5812C14.9557-95.5812 10.4656-94.0407 7.41346-90.9599C4.36133-87.8791 2.83527-83.3764 2.83527-77.4518L2.83527 8.48533C2.83527 14.4693 4.36133 19.0017 7.41346 22.0825C10.4656 25.1633 14.9557 26.7037 20.8838 26.7037Z"/>
  </g>
  <g id="Heavy-L" transform="matrix(1 0 0 1 2552.44 1556)">
   <path d="M21.7117 24.8501L114.597 24.8501C116.946 24.8501 119.094 24.5471 121.041 23.9412C122.989 23.3353 124.822 22.4553 126.54 21.3011C128.259 20.147 129.891 18.762 131.438 17.1462C153.088-12.7461 164.161-28.2693 164.657-29.4234C165.402-31.1547 165.774-33.0013 165.774-34.9633C165.774-36.9254 165.388-38.7576 164.614-40.4599C164.099-41.5949 153.04-57.5365 131.438-88.2848C129.891-89.9005 128.273-91.1412 126.583-92.0069C124.893-92.8725 123.06-93.464 121.084-93.7813C119.108-94.0987 116.946-94.2575 114.597-94.2575L21.7117-94.2575C15.9265-94.2575 11.5446-92.7571 8.56604-89.7562C5.58748-86.7555 4.0982-82.3698 4.0982-76.5991L4.0982 7.1051C4.0982 12.9336 5.58748 17.3482 8.56604 20.349C11.5446 23.3497 15.9265 24.8501 21.7117 24.8501Z"/>
  </g>
  <g id="Bold-L" transform="matrix(1 0 0 1 2256.6 1556)">
   <path d="M22.6024 22.6477L112.723 22.6477C115.001 22.6477 117.085 22.3544 118.975 21.7678C120.864 21.1812 122.643 20.3292 124.31 19.2119C125.977 18.0946 127.561 16.7538 129.061 15.1896C150.067-13.7487 160.811-28.7766 161.292-29.8938C162.015-31.5699 162.376-33.3576 162.376-35.2569C162.376-37.1564 162.001-38.9301 161.251-40.5781C160.75-41.6769 150.021-57.1098 129.061-86.8768C127.561-88.4409 125.991-89.642 124.351-90.4801C122.712-91.3181 120.934-91.8907 119.016-92.1979C117.099-92.5052 115.001-92.6588 112.723-92.6588L22.6024-92.6588C16.9895-92.6588 12.738-91.2063 9.84814-88.3012C6.95826-85.3963 5.51332-81.1506 5.51332-75.564L5.51332 5.46894C5.51332 11.1114 6.95826 15.3851 9.84814 18.2901C12.738 21.1952 16.9895 22.6477 22.6024 22.6477Z"/>
  </g>
  <g id="Semibold-L" transform="matrix(1 0 0 1 1960.5 1556)">
   <path d="M23.2165 21.1293L111.43 21.1293C113.661 21.1293 115.701 20.8427 117.55 20.2694C119.4 19.6961 121.14 18.8636 122.772 17.7716C124.404 16.6797 125.955 15.3694 127.423 13.8407C147.985-14.44 158.501-29.1262 158.972-30.2181C159.68-31.8561 160.033-33.6031 160.033-35.4593C160.033-37.3157 159.666-39.0491 158.932-40.6596C158.442-41.7334 147.939-56.8156 127.423-85.9061C125.955-87.4347 124.418-88.6085 122.813-89.4275C121.208-90.2465 119.468-90.806 117.591-91.1062C115.714-91.4066 113.661-91.5567 111.43-91.5567L23.2165-91.5567C17.7223-91.5567 13.5608-90.1372 10.732-87.2982C7.90327-84.4593 6.4889-80.31 6.4889-74.8504L6.4889 4.34098C6.4889 9.85522 7.90327 14.0318 10.732 16.8708C13.5608 19.7098 17.7223 21.1293 23.2165 21.1293Z"/>
  </g>
  <g id="Medium-L" transform="matrix(1 0 0 1 1664.24 1556)">
   <path d="M23.6821 19.978L110.45 19.978C112.644 19.978 114.651 19.6964 116.47 19.1333C118.289 18.5701 120.001 17.7522 121.606 16.6796C123.212 15.6069 124.737 14.3197 126.181 12.818C146.406-14.9641 156.75-29.3914 157.213-30.464C157.909-32.0731 158.257-33.7894 158.257-35.6128C158.257-37.4364 157.895-39.1393 157.173-40.7214C156.692-41.7763 146.361-56.5925 126.181-85.1701C124.737-86.6717 123.225-87.8248 121.647-88.6294C120.068-89.4339 118.356-89.9836 116.51-90.2785C114.664-90.5736 112.644-90.7211 110.45-90.7211L23.6821-90.7211C18.2779-90.7211 14.1846-89.3266 11.4022-86.5376C8.61982-83.7488 7.22862-79.6727 7.22862-74.3094L7.22862 3.48572C7.22862 8.90272 8.61982 13.0057 11.4022 15.7946C14.1846 18.5835 18.2779 19.978 23.6821 19.978Z"/>
  </g>
  <g id="Regular-L" transform="matrix(1 0 0 1 1368.13 1556)">
   <path d="M24.2894 18.4763L109.172 18.4763C111.318 18.4763 113.281 18.2013 115.061 17.6514C116.84 17.1014 118.515 16.3027 120.086 15.2551C121.656 14.2076 123.148 12.9505 124.561 11.4839C144.346-15.6477 154.465-29.7373 154.919-30.7848C155.599-32.3562 155.94-34.0322 155.94-35.813C155.94-37.5939 155.586-39.2569 154.88-40.802C154.408-41.8322 144.302-56.3015 124.561-84.2101C123.148-85.6766 121.669-86.8027 120.125-87.5884C118.581-88.3741 116.906-88.9109 115.1-89.1989C113.294-89.487 111.318-89.6311 109.172-89.6311L24.2894-89.6311C19.0027-89.6311 14.9983-88.2693 12.2764-85.5456C9.55444-82.822 8.19348-78.8414 8.19348-73.6036L8.19348 2.37016C8.19348 7.66034 9.55444 11.6672 12.2764 14.3909C14.9983 17.1145 19.0027 18.4763 24.2894 18.4763Z"/>
  </g>
  <g id="Light-L" transform="matrix(1 0 0 1 1072.68 1556)">
   <path d="M24.0369 17.5569L107.499 17.5569C109.61 17.5569 111.54 17.2864 113.29 16.7454C115.04 16.2044 116.687 15.4187 118.231 14.3882C119.775 13.3577 121.242 12.1211 122.631 10.6784C142.085-16.0115 152.035-29.8717 152.481-30.9022C153.15-32.448 153.485-34.0968 153.485-35.8486C153.485-37.6005 153.137-39.2364 152.442-40.7564C151.979-41.7697 142.042-56.0035 122.631-83.4578C121.242-84.9004 119.788-86.0081 118.269-86.7811C116.751-87.5539 115.104-88.082 113.328-88.3654C111.553-88.6488 109.61-88.7905 107.499-88.7905L24.0369-88.7905C18.8386-88.7905 14.9013-87.4508 12.2249-84.7715C9.54849-82.0923 8.21029-78.1764 8.21029-73.0239L8.21029 1.71298C8.21029 6.91704 9.54849 10.8587 12.2249 13.538C14.9013 16.2173 18.8386 17.5569 24.0369 17.5569Z"/>
  </g>
  <g id="Thin-L" transform="matrix(1 0 0 1 777.645 1556)">
   <path d="M23.703 16.341L105.288 16.341C107.35 16.341 109.237 16.0764 110.947 15.5472C112.658 15.0181 114.268 14.2495 115.777 13.2416C117.287 12.2336 118.72 11.0241 120.079 9.61297C139.095-16.4928 148.821-30.0496 149.257-31.0575C149.911-32.5695 150.238-34.1822 150.238-35.8956C150.238-37.6092 149.898-39.2093 149.219-40.696C148.766-41.6872 139.053-55.6094 120.079-82.4627C118.72-83.8738 117.299-84.9573 115.815-85.7133C114.331-86.4693 112.721-86.9858 110.985-87.2629C109.249-87.5402 107.35-87.6788 105.288-87.6788L23.703-87.6788C18.6217-87.6788 14.773-86.3684 12.1568-83.7477C9.54061-81.1272 8.23253-77.297 8.23253-72.2573L8.23253 0.843805C8.23253 5.93396 9.54061 9.78936 12.1568 12.41C14.773 15.0307 18.6217 16.341 23.703 16.341Z"/>
  </g>
  <g id="Ultralight-L" transform="matrix(1 0 0 1 481.791 1556)">
   <path d="M23.532 15.7182L104.155 15.7182C106.193 15.7182 108.057 15.4566 109.748 14.9335C111.438 14.4104 113.029 13.6507 114.521 12.6543C116.012 11.6579 117.429 10.4622 118.771 9.06728C137.563-16.7392 147.175-30.1407 147.605-31.137C148.252-32.6317 148.575-34.2259 148.575-35.9197C148.575-37.6136 148.239-39.1954 147.568-40.6651C147.121-41.6449 137.522-55.4076 118.771-81.9531C117.429-83.348 116.025-84.4191 114.558-85.1664C113.091-85.9137 111.5-86.4243 109.785-86.6983C108.07-86.9723 106.193-87.1094 104.155-87.1094L23.532-87.1094C18.5106-87.1094 14.7072-85.814 12.1219-83.2234C9.53658-80.6328 8.24392-76.8466 8.24392-71.8646L8.24392 0.398619C8.24392 5.43043 9.53658 9.24165 12.1219 11.8323C14.7072 14.4229 18.5106 15.7182 23.532 15.7182Z"/>
  </g>
  <g id="Black-M" transform="matrix(1 0 0 1 2867.28 1126)">
   <path d="M15.4338 14.2211L90.9529 14.2211C92.8623 14.2211 94.6087 13.9738 96.192 13.4792C97.7754 12.9845 99.2657 12.2661 100.663 11.324C102.06 10.3818 103.387 9.25119 104.644 7.93217C122.247-16.4699 131.25-29.142 131.653-30.0841C132.259-31.4974 132.561-33.0049 132.561-34.6065C132.561-36.2083 132.247-37.704 131.618-39.0936C131.199-40.0201 122.208-53.0338 104.644-78.1347C103.387-79.4536 102.072-80.4664 100.698-81.1731C99.3238-81.8797 97.8336-82.3626 96.2269-82.6216C94.6203-82.8808 92.8623-83.0103 90.9529-83.0103L15.4338-83.0103C10.7303-83.0103 7.16766-81.7855 4.74598-79.3358C2.32432-76.8863 1.11348-73.3061 1.11348-68.5952L1.11348-0.264722C1.11348 4.49325 2.32432 8.09705 4.74598 10.5467C7.16766 12.9963 10.7303 14.2211 15.4338 14.2211Z"/>
  </g>
  <g id="Heavy-M" transform="matrix(1 0 0 1 2571.06 1126)">
   <path d="M16.2664 12.4939L89.6738 12.4939C91.5298 12.4939 93.2274 12.2541 94.7664 11.7744C96.3056 11.2948 97.7542 10.5981 99.1122 9.68447C100.47 8.77082 101.76 7.67445 102.983 6.39536C120.093-17.2679 128.844-29.5564 129.236-30.47C129.825-31.8405 130.119-33.3024 130.119-34.8555C130.119-36.4087 129.813-37.8591 129.202-39.2067C128.795-40.1052 120.055-52.7249 102.983-77.0658C101.76-78.3448 100.482-79.327 99.1461-80.0123C97.8107-80.6975 96.3621-81.1657 94.8004-81.4169C93.2387-81.6682 91.5298-81.7939 89.6738-81.7939L16.2664-81.7939C11.6944-81.7939 8.23142-80.6061 5.87745-78.2306C3.5235-75.8552 2.34653-72.3834 2.34653-67.8152L2.34653-1.55337C2.34653 3.06056 3.5235 6.55525 5.87745 8.93072C8.23142 11.3062 11.6944 12.4939 16.2664 12.4939Z"/>
  </g>
  <g id="Bold-M" transform="matrix(1 0 0 1 2274.9 1126)">
   <path d="M17.1978 10.5618L88.243 10.5618C90.0393 10.5618 91.6822 10.3303 93.1718 9.86742C94.6614 9.40451 96.0634 8.73219 97.3776 7.85046C98.692 6.96872 99.9407 5.91064 101.124 4.67622C117.683-18.1607 126.153-30.02 126.532-30.9017C127.102-32.2243 127.387-33.6351 127.387-35.134C127.387-36.633 127.091-38.0327 126.499-39.3333C126.105-40.2003 117.646-52.3793 101.124-75.8702C99.9407-77.1045 98.703-78.0524 97.4105-78.7137C96.1181-79.375 94.7161-79.8269 93.2046-80.0693C91.6932-80.3118 90.0393-80.4331 88.243-80.4331L17.1978-80.4331C12.7729-80.4331 9.42139-79.2868 7.14317-76.9943C4.86497-74.7018 3.72587-71.3513 3.72587-66.9426L3.72587-2.9949C3.72587 1.45788 4.86497 4.83053 7.14317 7.12303C9.42139 9.41554 12.7729 10.5618 17.1978 10.5618Z"/>
  </g>
  <g id="Semibold-M" transform="matrix(1 0 0 1 1978.57 1126)">
   <path d="M17.84 9.22979L87.2566 9.22979C89.0118 9.22979 90.617 9.00411 92.0724 8.55274C93.5279 8.10139 94.8977 7.44584 96.1819 6.58611C97.4661 5.72637 98.6861 4.69468 99.8419 3.49106C116.022-18.7761 124.297-30.3395 124.668-31.1992C125.225-32.4889 125.503-33.8645 125.503-35.326C125.503-36.7876 125.214-38.1524 124.636-39.4205C124.251-40.2659 115.986-52.1411 99.8419-75.0459C98.6861-76.2494 97.4768-77.1736 96.214-77.8185C94.9512-78.4633 93.5814-78.9039 92.1045-79.1402C90.6277-79.3767 89.0118-79.4949 87.2566-79.4949L17.84-79.4949C13.5165-79.4949 10.2417-78.3773 8.01575-76.1419C5.78977-73.9067 4.67678-70.6397 4.67678-66.341L4.67678-3.98869C4.67678 0.35301 5.78977 3.64152 8.01575 5.87683C10.2417 8.11214 13.5165 9.22979 17.84 9.22979Z"/>
  </g>
  <g id="Medium-M" transform="matrix(1 0 0 1 1682.15 1126)">
   <path d="M18.3268 8.21982L86.5087 8.21982C88.2326 8.21982 89.8093 7.99851 91.2388 7.55591C92.6684 7.11331 94.0139 6.47048 95.2752 5.62742C96.5366 4.78436 97.7349 3.77269 98.8701 2.59242C114.762-19.2427 122.89-30.5818 123.255-31.4249C123.801-32.6895 124.075-34.0384 124.075-35.4715C124.075-36.9048 123.791-38.2431 123.223-39.4866C122.845-40.3157 114.727-51.9604 98.8701-74.4209C97.7349-75.6011 96.5471-76.5073 95.3067-77.1397C94.0664-77.772 92.7209-78.204 91.2703-78.4358C89.8198-78.6677 88.2326-78.7836 86.5087-78.7836L18.3268-78.7836C14.0803-78.7836 10.8638-77.6876 8.67737-75.4957C6.49099-73.3038 5.3978-70.1002 5.3978-65.8849L5.3978-4.74222C5.3978-0.484752 6.49099 2.73996 8.67737 4.9319C10.8638 7.12385 14.0803 8.21982 18.3268 8.21982Z"/>
  </g>
  <g id="Regular-M" transform="matrix(1 0 0 1 1385.81 1126)">
   <path d="M18.9619 6.90246L85.5332 6.90246C87.2164 6.90246 88.7558 6.68687 90.1515 6.25568C91.5474 5.8245 92.861 5.19826 94.0926 4.37696C95.3242 3.55566 96.4942 2.5701 97.6025 1.42028C113.119-19.8514 121.056-30.8979 121.411-31.7192C121.945-32.9512 122.212-34.2653 122.212-35.6614C122.212-37.0577 121.935-38.3615 121.38-39.5729C121.011-40.3805 113.085-51.7248 97.6025-73.6056C96.4942-74.7554 95.3345-75.6383 94.1233-76.2543C92.9123-76.8703 91.5987-77.2912 90.1823-77.517C88.7661-77.7429 87.2164-77.8558 85.5332-77.8558L18.9619-77.8558C14.8156-77.8558 11.6751-76.7881 9.54036-74.6527C7.40562-72.5174 6.33825-69.3965 6.33825-65.29L6.33825-5.72509C6.33825-1.57748 7.40562 1.56401 9.54036 3.69939C11.6751 5.83477 14.8156 6.90246 18.9619 6.90246Z"/>
  </g>
  <g id="Light-M" transform="matrix(1 0 0 1 1090.24 1126)">
   <path d="M18.7355 6.07819L84.0337 6.07819C85.6847 6.07819 87.1947 5.86661 88.5638 5.44345C89.9329 5.02029 91.2214 4.40571 92.4294 3.5997C93.6375 2.79369 94.7851 1.82647 95.8723 0.698063C111.092-20.1776 118.877-31.0185 119.226-31.8245C119.749-33.0335 120.011-34.3231 120.011-35.6933C120.011-37.0636 119.739-38.3431 119.195-39.532C118.833-40.3246 111.059-51.4576 95.8723-72.9311C94.7851-74.0595 93.6475-74.9259 92.4596-75.5305C91.2717-76.135 89.9832-76.548 88.5939-76.7697C87.2048-76.9913 85.6847-77.1022 84.0337-77.1022L18.7355-77.1022C14.6686-77.1022 11.5881-76.0544 9.49419-73.9587C7.40028-71.8631 6.35333-68.8003 6.35333-64.7703L6.35333-6.31428C6.35333-2.24389 7.40028 0.839116 9.49419 2.93474C11.5881 5.03037 14.6686 6.07819 18.7355 6.07819Z"/>
  </g>
  <g id="Thin-M" transform="matrix(1 0 0 1 795.027 1126)">
   <path d="M18.4362 4.98801L82.0505 4.98801C83.659 4.98801 85.1301 4.78174 86.4638 4.3692C87.7976 3.95666 89.0529 3.3575 90.2298 2.57172C91.4067 1.78592 92.5247 0.842973 93.5838-0.257126C108.411-20.6091 115.995-31.1779 116.335-31.9637C116.845-33.1424 117.1-34.3997 117.1-35.7355C117.1-37.0714 116.835-38.3188 116.306-39.4778C115.953-40.2506 108.379-51.1043 93.5838-72.0391C92.5247-73.1391 91.4165-73.9838 90.2592-74.5732C89.1019-75.1625 87.8466-75.5652 86.4932-75.7813C85.1399-75.9974 83.659-76.1055 82.0505-76.1055L18.4362-76.1055C14.4741-76.1055 11.4731-75.0839 9.43314-73.0408C7.39322-70.9978 6.37326-68.0119 6.37326-64.0829L6.37326-7.09354C6.37326-3.12527 7.39322-0.119612 9.43314 1.92344C11.4731 3.96649 14.4741 4.98801 18.4362 4.98801Z"/>
  </g>
  <g id="Ultralight-M" transform="matrix(1 0 0 1 499.084 1126)">
   <path d="M18.2828 4.42963L81.0348 4.42963C82.6214 4.42963 84.0725 4.22608 85.3882 3.81898C86.7039 3.41188 87.9422 2.82062 89.1031 2.04519C90.2641 1.26975 91.3669 0.339229 92.4117-0.74637C107.038-20.8301 114.519-31.2596 114.854-32.035C115.358-33.1982 115.609-34.4389 115.609-35.7571C115.609-37.0754 115.348-38.3064 114.825-39.4501C114.477-40.2126 107.006-50.9233 92.4117-71.5821C91.3669-72.6677 90.2737-73.5013 89.1321-74.0829C87.9906-74.6644 86.7523-75.0618 85.4172-75.275C84.0822-75.4883 82.6214-75.5949 81.0348-75.5949L18.2828-75.5949C14.3745-75.5949 11.4141-74.5869 9.40186-72.5707C7.3896-70.5546 6.38347-67.608 6.38347-63.7309L6.38347-7.49267C6.38347-3.57671 7.3896-0.610668 9.40186 1.40545C11.4141 3.42157 14.3745 4.42963 18.2828 4.42963Z"/>
  </g>
  <g id="Black-S" transform="matrix(1 0 0 1 2881.5 696)">
   <path d="M11.8301 4L71.5798 4C73.0905 4 74.4722 3.80414 75.7249 3.41242C76.9777 3.02071 78.1568 2.45179 79.2621 1.70567C80.3675 0.959542 81.4176 0.0641936 82.4124-0.980374C96.3392-20.305 103.462-30.3403 103.781-31.0864C104.26-32.2057 104.5-33.3995 104.5-34.6678C104.5-35.9363 104.251-37.1208 103.754-38.2213C103.422-38.955 96.3084-49.2609 82.4124-69.1389C81.4176-70.1834 80.3768-70.9854 79.2897-71.5451C78.2028-72.1047 77.0238-72.487 75.7526-72.6922C74.4814-72.8974 73.0905-73 71.5798-73L11.8301-73C8.10869-73 5.28999-72.03 3.37399-70.0901C1.458-68.1502 0.5-65.315 0.5-61.5843L0.5-7.4717C0.5-3.70374 1.458-0.849801 3.37399 1.09012C5.28999 3.03004 8.10869 4 11.8301 4Z"/>
  </g>
  <g id="Heavy-S" transform="matrix(1 0 0 1 2585.07 696)">
   <path d="M12.5711 2.62813L70.6775 2.62813C72.1467 2.62813 73.4904 2.43816 74.7086 2.05822C75.927 1.67829 77.0736 1.12649 78.1485 0.402807C79.2236-0.320881 80.2448-1.1893 81.2122-2.20245C94.7559-20.9458 101.683-30.6793 101.994-31.403C102.459-32.4886 102.692-33.6465 102.692-34.8767C102.692-36.107 102.45-37.2558 101.967-38.3232C101.644-39.0349 94.726-49.0308 81.2122-68.3109C80.2448-69.324 79.2325-70.1019 78.1754-70.6448C77.1184-71.1875 75.9717-71.5584 74.7355-71.7573C73.4993-71.9564 72.1467-72.0559 70.6775-72.0559L12.5711-72.0559C8.95208-72.0559 6.2109-71.1151 4.34759-69.2335C2.4843-67.352 1.55265-64.602 1.55265-60.9836L1.55265-8.49853C1.55265-4.8439 2.4843-2.0758 4.34759-0.194232C6.2109 1.68734 8.95208 2.62813 12.5711 2.62813Z"/>
  </g>
  <g id="Bold-S" transform="matrix(1 0 0 1 2288.66 696)">
   <path d="M13.3999 1.09375L69.6683 1.09375C71.091 1.09375 72.3922 0.91037 73.572 0.543611C74.7518 0.176859 75.8621-0.355808 76.9031-1.05439C77.9441-1.75298 78.933-2.59128 79.8698-3.56929C92.9851-21.6626 99.6931-31.0585 99.9938-31.7571C100.445-32.805 100.67-33.9227 100.67-35.1103C100.67-36.2979 100.436-37.4069 99.9678-38.4373C99.6555-39.1243 92.9561-48.7735 79.8698-67.3849C78.933-68.3628 77.9527-69.1138 76.9291-69.6378C75.9055-70.1617 74.7951-70.5197 73.598-70.7118C72.4009-70.9039 71.091-71 69.6683-71L13.3999-71C9.89537-71 7.2409-70.0918 5.43653-68.2755C3.63218-66.4592 2.73-63.8046 2.73-60.3117L2.73-9.647C2.73-6.11913 3.63218-3.44703 5.43653-1.63072C7.2409 0.185593 9.89537 1.09375 13.3999 1.09375Z"/>
  </g>
  <g id="Semibold-S" transform="matrix(1 0 0 1 1992.16 696)">
   <path d="M13.9714 0.035875L68.9726 0.035875C70.3632 0.035875 71.6351-0.142962 72.7883-0.500636C73.9415-0.858303 75.0269-1.37778 76.0444-2.05905C77.0619-2.74033 78.0286-3.55787 78.9443-4.51165C91.7642-22.1567 98.3211-31.3199 98.6151-32.0012C99.056-33.0231 99.2765-34.1132 99.2765-35.2713C99.2765-36.4295 99.0475-37.5111 98.5896-38.5159C98.2844-39.1859 91.7359-48.596 78.9443-66.7464C78.0286-67.7002 77.0704-68.4325 76.0698-68.9435C75.0692-69.4545 73.9839-69.8036 72.8137-69.9909C71.6436-70.1783 70.3632-70.272 68.9726-70.272L13.9714-70.272C10.5457-70.272 7.95103-69.3863 6.1873-67.615C4.42358-65.8437 3.54172-63.2549 3.54172-59.8485L3.54172-10.4388C3.54172-6.99833 4.42358-4.39243 6.1873-2.62111C7.95103-0.849785 10.5457 0.035875 13.9714 0.035875Z"/>
  </g>
  <g id="Medium-S" transform="matrix(1 0 0 1 1695.61 696)">
   <path d="M14.4046-0.76625L68.445-0.76625C69.8114-0.76625 71.061-0.941643 72.1941-1.29243C73.3271-1.64321 74.3935-2.15267 75.3932-2.82083C76.393-3.48899 77.3428-4.29078 78.2425-5.22619C90.8385-22.5314 97.2809-31.5181 97.5697-32.1863C98.0029-33.1885 98.2195-34.2576 98.2195-35.3934C98.2195-36.5293 97.9946-37.59 97.5447-38.5755C97.2447-39.2326 90.8107-48.4615 78.2425-66.2623C77.3428-67.1977 76.4014-67.916 75.4182-68.4171C74.4352-68.9182 73.3688-69.2606 72.219-69.4443C71.0694-69.6281 69.8114-69.72 68.445-69.72L14.4046-69.72C11.0388-69.72 8.48949-68.8514 6.75656-67.1142C5.02365-65.377 4.1572-62.838 4.1572-59.4972L4.1572-11.0392C4.1572-7.66497 5.02365-5.10926 6.75656-3.37206C8.48949-1.63485 11.0388-0.76625 14.4046-0.76625Z"/>
  </g>
  <g id="Regular-S" transform="matrix(1 0 0 1 1399.11 696)">
   <path d="M14.9698-1.8125L67.7569-1.8125C69.0915-1.8125 70.3122-1.9834 71.419-2.3252C72.5258-2.66699 73.5674-3.16341 74.544-3.81445C75.5206-4.4655 76.4483-5.24675 77.3272-6.1582C89.631-23.0202 95.924-31.7767 96.2061-32.4277C96.6293-33.4043 96.8409-34.446 96.8409-35.5527C96.8409-36.6595 96.6211-37.693 96.1817-38.6533C95.8887-39.2935 89.6039-48.2861 77.3272-65.6309C76.4483-66.5423 75.5287-67.2422 74.5684-67.7305C73.6081-68.2188 72.5664-68.5524 71.4434-68.7314C70.3204-68.9105 69.0915-69 67.7569-69L14.9698-69C11.682-69 9.19181-68.1536 7.49908-66.4609C5.80636-64.7682 4.96-62.2943 4.96-59.0391L4.96-11.8223C4.96-8.53451 5.80636-6.04427 7.49908-4.35156C9.19181-2.65885 11.682-1.8125 14.9698-1.8125Z"/>
  </g>
  <g id="Light-S" transform="matrix(1 0 0 1 1103.41 696)">
   <path d="M14.7696-2.54167L66.4304-2.54167C67.7366-2.54167 68.9313-2.70902 70.0144-3.04372C71.0976-3.37841 72.117-3.86451 73.0727-4.50203C74.0285-5.13955 74.9364-5.90457 75.7965-6.79708C87.8379-23.3088 93.9966-31.8833 94.2727-32.5208C94.6868-33.4771 94.8939-34.4972 94.8939-35.5809C94.8939-36.6647 94.6789-37.6768 94.2488-38.6171C93.9621-39.244 87.8113-48.0497 75.7965-65.0342C74.9364-65.9267 74.0365-66.612 73.0966-67.0902C72.1568-67.5683 71.1374-67.895 70.0383-68.0703C68.9392-68.2457 67.7366-68.3333 66.4304-68.3333L14.7696-68.3333C11.552-68.3333 9.11486-67.5046 7.45824-65.847C5.80164-64.1895 4.97333-61.7669 4.97333-58.5794L4.97333-12.3435C4.97333-9.12403 5.80164-6.68552 7.45824-5.02798C9.11486-3.37044 11.552-2.54167 14.7696-2.54167Z"/>
  </g>
  <g id="Thin-S" transform="matrix(1 0 0 1 808.024 696)">
   <path d="M14.5047-3.50605L64.6761-3.50605C65.9446-3.50605 67.1048-3.6687 68.1567-3.99401C69.2087-4.31931 70.1987-4.79177 71.1269-5.4114C72.0551-6.03103 72.9368-6.77459 73.7722-7.64206C85.4663-23.6904 91.4475-32.0244 91.7156-32.644C92.1178-33.5735 92.3189-34.5649 92.3189-35.6182C92.3189-36.6716 92.1101-37.6553 91.6924-38.5692C91.4139-39.1785 85.4405-47.7372 73.7722-64.2451C72.9368-65.1125 72.0628-65.7786 71.1501-66.2434C70.2374-66.7081 69.2473-67.0256 68.1799-67.196C67.1126-67.3664 65.9446-67.4516 64.6761-67.4516L14.5047-67.4516C11.3799-67.4516 9.01308-66.6461 7.40423-65.035C5.79539-63.424 4.99097-61.0695 4.99097-57.9713L4.99097-13.0329C4.99097-9.90371 5.79539-7.53362 7.40423-5.92259C9.01308-4.31156 11.3799-3.50605 14.5047-3.50605Z"/>
  </g>
  <g id="Ultralight-S" transform="matrix(1 0 0 1 511.993 696)">
   <path d="M14.3691-4L63.7775-4C65.0268-4 66.1693-4.16025 67.2052-4.48075C68.2412-4.80124 69.2162-5.26671 70.1302-5.87718C71.0443-6.48765 71.9127-7.22021 72.7353-8.07485C84.2516-23.8859 90.1418-32.0966 90.4058-32.7071C90.8019-33.6228 91-34.5996 91-35.6373C91-36.6751 90.7943-37.6443 90.383-38.5447C90.1088-39.145 84.2262-47.5771 72.7353-63.8409C71.9127-64.6955 71.0519-65.3517 70.1531-65.8096C69.2543-66.2675 68.2793-66.5803 67.2281-66.7481C66.177-66.916 65.0268-67 63.7775-67L14.3691-67C11.2918-67 8.96095-66.2064 7.37656-64.6192C5.79219-63.032 5-60.7122 5-57.6599L5-13.3859C5-10.3031 5.79219-7.96802 7.37656-6.38081C8.96095-4.7936 11.2918-4 14.3691-4Z"/>
  </g>
 </g>
</svg>
