<?xml version="1.0" encoding="UTF-8"?>
<svg width="3300px" height="2200px" viewBox="0 0 3300 2200" version="1.1" xmlns="http://www.w3.org/2000/svg" xmlns:xlink="http://www.w3.org/1999/xlink">
    <title>chevron.up.chevron.down</title>
    <g id="Page-1" stroke="none" stroke-width="1" fill="none" fill-rule="evenodd">
        <g id="chevron.up.chevron.down">
            <g id="Notes">
                <rect id="artboard" fill="#FFFFFF" fill-rule="nonzero" x="0" y="0" width="3300" height="2200"></rect>
                <line x1="263" y1="292" x2="3036" y2="292" id="Path" stroke="#000000" stroke-width="0.5"></line>
                <text id="Weight/Scale-Variations" fill="#000000" fill-rule="nonzero" font-family="Helvetica-Bold, Helvetica" font-size="13" font-weight="bold">
                    <tspan x="263" y="322">Weight/Scale Variations</tspan>
                </text>
                <text id="Ultralight" fill="#000000" fill-rule="nonzero" font-family="Helvetica" font-size="13" font-weight="normal">
                    <tspan x="533.711" y="322">Ultralight</tspan>
                </text>
                <text id="Thin" fill="#000000" fill-rule="nonzero" font-family="Helvetica" font-size="13" font-weight="normal">
                    <tspan x="843.422" y="322">Thin</tspan>
                </text>
                <text id="Light" fill="#000000" fill-rule="nonzero" font-family="Helvetica" font-size="13" font-weight="normal">
                    <tspan x="1138.63" y="322">Light</tspan>
                </text>
                <text id="Regular" fill="#000000" fill-rule="nonzero" font-family="Helvetica" font-size="13" font-weight="normal">
                    <tspan x="1426.84" y="322">Regular</tspan>
                </text>
                <text id="Medium" fill="#000000" fill-rule="nonzero" font-family="Helvetica" font-size="13" font-weight="normal">
                    <tspan x="1723.06" y="322">Medium</tspan>
                </text>
                <text id="Semibold" fill="#000000" fill-rule="nonzero" font-family="Helvetica" font-size="13" font-weight="normal">
                    <tspan x="2015.77" y="322">Semibold</tspan>
                </text>
                <text id="Bold" fill="#000000" fill-rule="nonzero" font-family="Helvetica" font-size="13" font-weight="normal">
                    <tspan x="2326.48" y="322">Bold</tspan>
                </text>
                <text id="Heavy" fill="#000000" fill-rule="nonzero" font-family="Helvetica" font-size="13" font-weight="normal">
                    <tspan x="2618.19" y="322">Heavy</tspan>
                </text>
                <text id="Black" fill="#000000" fill-rule="nonzero" font-family="Helvetica" font-size="13" font-weight="normal">
                    <tspan x="2917.4" y="322">Black</tspan>
                </text>
                <line x1="263" y1="1903" x2="3036" y2="1903" id="Path" stroke="#000000" stroke-width="0.5"></line>
                <g id="Group" transform="translate(264.367190, 1918.068400)" fill="#000000" fill-rule="nonzero">
                    <path d="M7.88086,15.761678 C12.18751,15.761678 15.77151,12.18746 15.77151,7.88082 C15.77151,3.5742 12.17771,0 7.87109,0 C3.57422,0 -8.8817842e-16,3.5742 -8.8817842e-16,7.88082 C-8.8817842e-16,12.18746 3.58398,15.761678 7.88086,15.761678 Z M7.88086,14.277303 C4.33593,14.277303 1.5039,11.43551 1.5039,7.88082 C1.5039,4.3261 4.32617,1.4843 7.87109,1.4843 C11.42581,1.4843 14.26761,4.3261 14.2773352,7.88082 C14.28711,11.43551 11.43551,14.277303 7.88086,14.277303 Z M5.02929,8.61324 L7.13867,8.61324 L7.13867,10.73238 C7.13867,11.17183 7.43164,11.47457 7.86133,11.47457 C8.31054,11.47457 8.60351,11.17183 8.60351,10.73238 L8.60351,8.61324 L10.73241,8.61324 C11.17191,8.61324 11.47461,8.32027 11.47461,7.89058 C11.47461,7.45113 11.17191,7.1484 10.73241,7.1484 L8.60351,7.1484 L8.60351,5.03902 C8.60351,4.5898 8.31054,4.2871 7.86133,4.2871 C7.43164,4.2871 7.13867,4.5898 7.13867,5.03902 L7.13867,7.1484 L5.02929,7.1484 C4.58008,7.1484 4.27734,7.45113 4.27734,7.89058 C4.27734,8.32027 4.58008,8.61324 5.02929,8.61324 Z" id="Shape"></path>
                </g>
                <g id="Group" transform="translate(283.254050, 1915.988300)" fill="#000000" fill-rule="nonzero">
                    <path d="M9.96095,19.92186 C15.41015,19.92186 19.92185,15.40037 19.92185,9.96092 C19.92185,4.5117 15.40035,0 9.95115,0 C4.51172,0 8.8817842e-16,4.5117 8.8817842e-16,9.96092 C8.8817842e-16,15.40037 4.52148,19.92186 9.96095,19.92186 Z M9.96095,18.2617 C5.35156,18.2617 1.66992,14.57029 1.66992,9.96092 C1.66992,5.3515 5.34179,1.6601 9.95115,1.6601 C14.56055,1.6601 18.25195,5.3515 18.261769,9.96092 C18.27145,14.57029 14.57035,18.2617 9.96095,18.2617 Z M6.24023,10.78123 L9.13085,10.78123 L9.13085,13.69139 C9.13085,14.17967 9.46285,14.5117 9.94145,14.5117 C10.42965,14.5117 10.77145,14.17967 10.77145,13.69139 L10.77145,10.78123 L13.68165,10.78123 C14.16995,10.78123 14.50195,10.4492 14.50195,9.97068 C14.50195,9.4824 14.16995,9.14061 13.68165,9.14061 L10.77145,9.14061 L10.77145,6.25 C10.77145,5.7422 10.42965,5.4101 9.94145,5.4101 C9.46285,5.4101 9.13085,5.7519 9.13085,6.25 L9.13085,9.14061 L6.24023,9.14061 C5.73242,9.14061 5.40039,9.4824 5.40039,9.97068 C5.40039,10.4492 5.74218,10.78123 6.24023,10.78123 Z" id="Shape"></path>
                </g>
                <g id="Group" transform="translate(307.179860, 1913.224600)" fill="#000000" fill-rule="nonzero">
                    <path d="M12.71484,25.43946 C19.67774,25.43946 25.43944,19.6777438 25.43944,12.72462 C25.43944,5.7617 19.66794,0 12.70504,0 C5.75195,0 0,5.7617 0,12.72462 C0,19.6777438 5.76172,25.43946 12.71484,25.43946 Z M12.71484,23.62306 C6.67969,23.62306 1.82617,18.75978 1.82617,12.72462 C1.82617,6.6797 6.66992,1.8262 12.70504,1.8262 C18.75004,1.8262 23.60354,6.6797 23.6132548,12.72462 C23.62304,18.75978 18.75974,23.62306 12.71484,23.62306 Z M7.80274,13.63282 L11.80664,13.63282 L11.80664,17.64649 C11.80664,18.1836 12.17774,18.5547 12.69534,18.5547 C13.23244,18.5547 13.60354,18.1836 13.60354,17.64649 L13.60354,13.63282 L17.62694,13.63282 C18.15434,13.63282 18.53514,13.26173 18.53514,12.74415 C18.53514,12.20704 18.16404,11.82618 17.62694,11.82618 L13.60354,11.82618 L13.60354,7.8223 C13.60354,7.2656 13.23244,6.8945 12.69534,6.8945 C12.17774,6.8945 11.80664,7.2754 11.80664,7.8223 L11.80664,11.82618 L7.80274,11.82618 C7.24609,11.82618 6.875,12.20704 6.875,12.74415 C6.875,13.26173 7.25586,13.63282 7.80274,13.63282 Z" id="Shape"></path>
                </g>
                <text id="Design-Variations" fill="#000000" fill-rule="nonzero" font-family="Helvetica-Bold, Helvetica" font-size="13" font-weight="bold">
                    <tspan x="263" y="1953">Design Variations</tspan>
                </text>
                <text id="Symbols-are-supported-in-up-to-nine-weights-and-three-scales." fill="#000000" fill-rule="nonzero" font-family="Helvetica" font-size="13" font-weight="normal">
                    <tspan x="263" y="1971">Symbols are supported in up to nine weights and three scales.</tspan>
                </text>
                <text id="For-optimal-layout-with-text-and-other-symbols,-vertically-align" fill="#000000" fill-rule="nonzero" font-family="Helvetica" font-size="13" font-weight="normal">
                    <tspan x="263" y="1989">For optimal layout with text and other symbols, vertically align</tspan>
                </text>
                <text id="symbols-with-the-adjacent-text." fill="#000000" fill-rule="nonzero" font-family="Helvetica" font-size="13" font-weight="normal">
                    <tspan x="263" y="2007">symbols with the adjacent text.</tspan>
                </text>
                <line x1="776" y1="1919" x2="776" y2="1933" id="Path" stroke="#00AEEF" stroke-width="0.5"></line>
                <g id="Group" transform="translate(778.490230, 1918.712900)" fill="#000000" fill-rule="nonzero">
                    <path d="M0.82032,14.414053 C1.33789,14.414053 1.5918,14.2187406 1.77735,13.681631 L3.03711,10.2246 L8.79887,10.2246 L10.05857,13.681631 C10.24417,14.2187406 10.49807,14.414053 11.00587,14.414053 C11.52347,14.414053 11.85547,14.101553 11.85547,13.613272 C11.85547,13.447256 11.82617,13.300772 11.74807,13.08593 L7.16797,0.8984 C6.94336,0.293 6.54297,0 5.91797,0 C5.3125,0 4.90235,0.293 4.6875,0.8887 L0.10743,13.09569 C0.0293,13.310538 -4.4408921e-16,13.457022 -4.4408921e-16,13.623038 C-4.4408921e-16,14.111319 0.3125,14.414053 0.82032,14.414053 Z M3.51563,8.74999 L5.88868,2.1777 L5.9375,2.1777 L8.31057,8.74999 L3.51563,8.74999 Z" id="Shape"></path>
                </g>
                <line x1="792.836" y1="1919" x2="792.836" y2="1933" id="Path" stroke="#00AEEF" stroke-width="0.5"></line>
                <text id="Margins" fill="#000000" fill-rule="nonzero" font-family="Helvetica-Bold, Helvetica" font-size="13" font-weight="bold">
                    <tspan x="776" y="1953">Margins</tspan>
                </text>
                <text id="Leading-and-trailing-margins-on-the-left-and-right-side-of-each-symbol" fill="#000000" fill-rule="nonzero" font-family="Helvetica" font-size="13" font-weight="normal">
                    <tspan x="776" y="1971">Leading and trailing margins on the left and right side of each symbol</tspan>
                </text>
                <text id="can-be-adjusted-by-modifying-the-x-location-of-the-margin-guidelines." fill="#000000" fill-rule="nonzero" font-family="Helvetica" font-size="13" font-weight="normal">
                    <tspan x="776" y="1989">can be adjusted by modifying the x-location of the margin guidelines.</tspan>
                </text>
                <text id="Modifications-are-automatically-applied-proportionally-to-all" fill="#000000" fill-rule="nonzero" font-family="Helvetica" font-size="13" font-weight="normal">
                    <tspan x="776" y="2007">Modifications are automatically applied proportionally to all</tspan>
                </text>
                <text id="scales-and-weights." fill="#000000" fill-rule="nonzero" font-family="Helvetica" font-size="13" font-weight="normal">
                    <tspan x="776" y="2025">scales and weights.</tspan>
                </text>
                <g id="Group" transform="translate(1291.248126, 1914.517396)" fill="#000000" fill-rule="nonzero">
                    <path d="M0.593673634,20.347834 L2.29289363,22.056824 C3.15226363,22.925964 4.13859363,22.867374 5.06632363,21.841984 L15.2420736,10.631044 C15.5057736,10.718934 15.7791736,10.699404 16.0916736,10.640804 L17.1561736,10.445494 L17.8202736,11.119324 L17.7811736,11.675964 C17.7420736,12.174014 17.8690736,12.554874 18.3573736,13.033384 L19.1190736,13.775574 C19.5975736,14.254084 20.2127736,14.283384 20.6815736,13.814634 L23.5916736,10.894714 C24.0604736,10.425964 24.0409736,9.83026404 23.5623736,9.35174404 L22.7909736,8.59002404 C22.3123736,8.11150404 21.9413736,7.95530404 21.4627736,7.99430404 L20.8866736,8.04310404 L20.2420736,7.40840404 L20.4862736,6.28530404 C20.6131736,5.71890404 20.4569736,5.27950404 19.8709736,4.69350404 L17.6737736,2.50600404 C14.3338736,-0.814295964 9.90027363,-0.736195964 7.00968363,2.15450404 C6.58976363,2.56460404 6.56046363,3.14080404 6.79484363,3.53140404 C7.02921363,3.89280404 7.48820363,4.12710404 8.13277363,3.96110404 C9.59757363,3.61930404 11.1209736,3.56070404 12.5467736,4.49820404 L11.9608736,5.95330404 C11.7655736,6.43180404 11.7362736,6.83220404 11.8631736,7.19350404 L0.798753634,17.584166 C-0.187576366,18.5021352 -0.265706366,19.478698 0.593673634,20.347834 Z M8.50387363,2.52560404 C10.9354736,0.748204036 14.2264736,1.05100404 16.4530736,3.27750404 L18.8846736,5.68960404 C19.1190736,5.92400404 19.1580736,6.10960404 19.0897736,6.45140404 L18.7674736,7.93570404 L20.2713736,9.42010404 L21.2577736,9.36151404 C21.5116736,9.35174404 21.5897736,9.37127404 21.7850736,9.56658404 L22.3612736,10.142764 L19.9198736,12.584164 L19.3436736,12.007994 C19.1483736,11.812684 19.1190736,11.734554 19.1288736,11.470884 L19.1971736,10.494324 L17.7030736,9.00994404 L16.1795736,9.26385404 C15.8573736,9.33221404 15.7108736,9.30291404 15.4666736,9.06854404 L13.4647736,7.06660404 C13.2108736,6.83220404 13.1815736,6.66620404 13.3377736,6.29510404 L14.2166736,4.20530404 C12.6541736,2.75020404 10.6229736,2.12520404 8.59167363,2.72090404 C8.43547363,2.75990404 8.37687363,2.63300404 8.50387363,2.52560404 Z M3.02531363,20.787304 L1.85343363,19.625184 C1.38468363,19.166198 1.49210363,18.824401 1.89249363,18.4630728 L12.7030736,8.28730404 L14.1678736,9.77166404 L4.17765363,20.757994 C3.82609363,21.158384 3.49406363,21.256044 3.02531363,20.787304 Z" id="Shape"></path>
                </g>
                <text id="Exporting" fill="#000000" fill-rule="nonzero" font-family="Helvetica-Bold, Helvetica" font-size="13" font-weight="bold">
                    <tspan x="1289" y="1953">Exporting</tspan>
                </text>
                <text id="Symbols-should-be-outlined-when-exporting-to-ensure-the" fill="#000000" fill-rule="nonzero" font-family="Helvetica" font-size="13" font-weight="normal">
                    <tspan x="1289" y="1971">Symbols should be outlined when exporting to ensure the</tspan>
                </text>
                <text id="design-is-preserved-when-submitting-to-Xcode." fill="#000000" fill-rule="nonzero" font-family="Helvetica" font-size="13" font-weight="normal">
                    <tspan x="1289" y="1989">design is preserved when submitting to Xcode.</tspan>
                </text>
                <text id="template-version" fill="#000000" fill-rule="nonzero" font-family="Helvetica" font-size="13" font-weight="normal">
                    <tspan x="2952" y="1933">Template v.2.0</tspan>
                </text>
                <text id="Requires-Xcode-12-or-greater" fill="#000000" fill-rule="nonzero" font-family="Helvetica" font-size="13" font-weight="normal">
                    <tspan x="2865" y="1951">Requires Xcode 12 or greater</tspan>
                </text>
                <text id="Generated-from-chevron.up.chevron.down" fill="#000000" fill-rule="nonzero" font-family="Helvetica" font-size="13" font-weight="normal">
                    <tspan x="2792" y="1969">Generated from chevron.up.chevron.down</tspan>
                </text>
                <text id="Typeset-at-100-points" fill="#000000" fill-rule="nonzero" font-family="Helvetica" font-size="13" font-weight="normal">
                    <tspan x="2912" y="1987">Typeset at 100 points</tspan>
                </text>
                <text id="Small" fill="#000000" fill-rule="nonzero" font-family="Helvetica" font-size="13" font-weight="normal">
                    <tspan x="263" y="726">Small</tspan>
                </text>
                <text id="Medium" fill="#000000" fill-rule="nonzero" font-family="Helvetica" font-size="13" font-weight="normal">
                    <tspan x="263" y="1156">Medium</tspan>
                </text>
                <text id="Large" fill="#000000" fill-rule="nonzero" font-family="Helvetica" font-size="13" font-weight="normal">
                    <tspan x="263" y="1586">Large</tspan>
                </text>
            </g>
            <g id="Guides" transform="translate(263.000000, 625.041000)">
                <g id="H-reference" transform="translate(76.976562, 0.500000)" fill="#27AAE1" fill-rule="nonzero">
                    <path d="M-1.22124533e-15,70.459 L2.685548,70.459 L12.011738,45.9961 L44.775438,45.9961 L54.150438,70.459 L56.787138,70.459 L29.638638,0 L27.148438,0 L-1.22124533e-15,70.459 Z M28.369138,3.3203 L28.466838,3.3203 L43.896438,43.75 L12.890638,43.75 L28.369138,3.3203 Z" id="Shape"></path>
                </g>
                <line x1="0" y1="70.959" x2="2773" y2="70.959" id="Baseline-S" stroke="#27AAE1" stroke-width="0.5"></line>
                <line x1="0" y1="0.5" x2="2773" y2="0.5" id="Capline-S" stroke="#27AAE1" stroke-width="0.5"></line>
                <g id="H-reference" transform="translate(76.976562, 430.500000)" fill="#27AAE1" fill-rule="nonzero">
                    <path d="M-1.22124533e-15,70.459 L2.685548,70.459 L12.011738,45.9961 L44.775438,45.9961 L54.150438,70.459 L56.787138,70.459 L29.638638,0 L27.148438,0 L-1.22124533e-15,70.459 Z M28.369138,3.3203 L28.466838,3.3203 L43.896438,43.75 L12.890638,43.75 L28.369138,3.3203 Z" id="Shape"></path>
                </g>
                <line x1="0" y1="500.959" x2="2773" y2="500.959" id="Baseline-M" stroke="#27AAE1" stroke-width="0.5"></line>
                <line x1="0" y1="430.499" x2="2773" y2="430.499" id="Capline-M" stroke="#27AAE1" stroke-width="0.5"></line>
                <g id="H-reference" transform="translate(76.976562, 860.500000)" fill="#27AAE1" fill-rule="nonzero">
                    <path d="M-1.22124533e-15,70.459 L2.685548,70.459 L12.011738,45.9961 L44.775438,45.9961 L54.150438,70.459 L56.787138,70.459 L29.638638,0 L27.148438,0 L-1.22124533e-15,70.459 Z M28.369138,3.3203 L28.466838,3.3203 L43.896438,43.75 L12.890638,43.75 L28.369138,3.3203 Z" id="Shape"></path>
                </g>
                <line x1="0" y1="930.959" x2="2773" y2="930.959" id="Baseline-L" stroke="#27AAE1" stroke-width="0.5"></line>
                <line x1="0" y1="860.499" x2="2773" y2="860.499" id="Capline-L" stroke="#27AAE1" stroke-width="0.5"></line>
                <line x1="1136.84" y1="405.749" x2="1136.84" y2="525.079" id="left-margin" stroke="#00AEEF" stroke-width="0.5"></line>
                <line x1="1236.84" y1="405.749" x2="1236.84" y2="525.079" id="right-margin" stroke="#00AEEF" stroke-width="0.5"></line>
            </g>
            <g id="Symbols" transform="translate(511.444500, 616.923800)" fill="#000000" fill-rule="nonzero">
                <g id="Black-L" transform="translate(2363.950000, 836.976200)">
                    <path d="M43.5075375,0 C40.504496,0 38.233858,1.71462641 35.450575,4.39520402 L3.62556562,34.7636228 C1.39160398,36.9610448 0,40.1693314 0,43.3336046 C0,50.1895901 4.8341625,54.936 9.55844574,54.936 C12.0487673,54.936 14.4292097,53.661506 16.6265699,51.5959438 L43.5075375,26.4134373 L70.3883551,51.5959438 C72.5859403,53.661506 74.9665327,54.936 77.4566293,54.936 C82.2178139,54.936 87.015,50.1895901 87.015,43.3336046 C87.015,40.1693314 85.6596974,36.9610448 83.3893594,34.7636228 L51.6011014,4.39520402 C48.781142,1.71462641 46.510579,0 43.5075375,0 Z M43.5075375,137.5199 C46.510579,137.5199 48.781142,135.5668 51.6011014,132.5883 L83.3893594,98.84805 C85.6596974,96.4066 87.015,92.8422 87.015,89.3266 C87.015,81.7094 82.2178139,76.4359 77.4566293,76.4359 C74.9665327,76.4359 72.5859403,77.852 70.3883551,80.1469 L43.5075375,108.12539 L16.6265699,80.1469 C14.4292097,77.852 12.0487673,76.4359 9.55844574,76.4359 C4.8341625,76.4359 0,81.7094 0,89.3266 C0,92.8422 1.39160398,96.4066 3.62556562,98.84805 L35.450575,132.5883 C38.233858,135.5668 40.504496,137.5199 43.5075375,137.5199 Z" id="Shape"></path>
                </g>
                <g id="Heavy-L" transform="translate(2069.510000, 839.564500)">
                    <path d="M41.8195868,0 C39.2927888,0 37.3519421,1.45006375 34.9716882,3.73508632 L3.0394023,34.4066389 C1.13515417,36.2961405 0,38.9326773 0,41.7010544 C0,47.5453162 4.06476091,51.588 8.16612034,51.588 C10.2534361,51.588 12.3041533,50.5333673 14.2084014,48.7757061 L41.8195868,22.5422683 L69.4310721,48.7757061 C71.2984967,50.5333673 73.3489139,51.588 75.4360797,51.588 C79.5744126,51.588 83.6025,47.5453162 83.6025,41.7010544 C83.6025,38.9326773 82.4670458,36.2961405 80.5628727,34.4066389 L48.6308118,3.69107954 C46.2505579,1.45006375 44.3097112,0 41.8195868,0 Z M41.8195868,126.5587 C44.3097112,126.5587 46.2505579,125.152553 48.6308118,122.86753 L80.5628727,92.1520611 C82.4670458,90.3064763 83.6025,87.6260227 83.6025,84.8576456 C83.6025,79.0133838 79.5744126,74.9707 75.4360797,74.9707 C73.3489139,74.9707 71.2984967,76.0253327 69.4310721,77.8269107 L41.8195868,104.016414 L14.2084014,77.8269107 C12.3041533,76.0253327 10.2534361,74.9707 8.16612034,74.9707 C4.06476091,74.9707 0,79.0133838 0,84.8576456 C0,87.6260227 1.13515417,90.3064763 3.0394023,92.1520611 L34.9716882,122.86753 C37.3519421,125.108636 39.2927888,126.5587 41.8195868,126.5587 Z" id="Shape"></path>
                </g>
                <g id="Bold-L" transform="translate(1775.310000, 842.494200)">
                    <path d="M39.9186375,0 C37.9410289,0 36.3662623,1.09855149 34.4618568,2.94413959 L2.38045063,34.0111793 C0.915563704,35.4613356 0,37.5705149 0,39.8994584 C0,44.5573455 3.18613469,47.853 6.59202867,47.853 C8.27667488,47.853 9.888043,47.0620465 11.4628846,45.5679733 L39.9186375,18.2359367 L68.3380139,45.5679733 C69.9123304,47.0620465 71.5609001,47.853 73.2087198,47.853 C76.6513653,47.853 79.8375,44.5573455 79.8375,39.8994584 C79.8375,37.5705149 78.9217113,35.4613356 77.4568994,34.0111793 L45.3388166,2.94413959 C43.4344111,1.09855149 41.8962461,0 39.9186375,0 Z M39.9186375,120.1147 C41.8962461,120.1147 43.4344111,119.060065 45.3388166,117.214567 L77.4568994,86.1474376 C78.9217113,84.6972812 79.8375,82.588102 79.8375,80.2591584 C79.8375,75.6012713 76.6513653,72.2617 73.2087198,72.2617 C71.5609001,72.2617 69.9123304,73.0965703 68.3380139,74.5906436 L39.9186375,101.922653 L11.4628846,74.5906436 C9.888043,73.0965703 8.27667488,72.2617 6.59202867,72.2617 C3.18613469,72.2617 0,75.6012713 0,80.2591584 C0,82.588102 0.915563704,84.6972812 2.38045063,86.1474376 L34.4618568,117.214567 C36.3662623,119.016149 37.9410289,120.1147 39.9186375,120.1147 Z" id="Shape"></path>
                </g>
                <g id="Semibold-L" transform="translate(1480.360000, 844.545000)">
                    <path d="M38.5987875,0 C36.9874797,0 35.6690483,0.878799324 34.0943406,2.37289317 L1.90425925,33.7040464 C0.732378558,34.890538 0,36.5603917 0,38.5816752 C0,42.4486622 2.60003763,45.261 5.52977686,45.261 C6.92140862,45.261 8.23976503,44.601878 9.59472161,43.3275515 L38.5987875,15.2041732 L67.6027034,43.3275515 C68.9212098,44.601878 70.3124666,45.261 71.6677231,45.261 C74.5972374,45.261 77.1975,42.4486622 77.1975,38.5816752 C77.1975,36.5603917 76.4654964,34.890538 75.2932407,33.7040464 L43.0665592,2.37289317 C41.4918516,0.834881856 40.2100953,0 38.5987875,0 Z M38.5987875,116.3508 C40.2100953,116.3508 41.4918516,115.51583 43.0665592,113.977822 L75.2932407,82.6467306 C76.4654964,81.4602414 77.1975,79.790481 77.1975,77.7691116 C77.1975,73.9021322 74.5972374,71.0898 71.6677231,71.0898 C70.3124666,71.0898 68.9212098,71.7489207 67.6027034,73.0232447 L38.5987875,101.146594 L9.59472161,73.0232447 C8.23976503,71.7489207 6.92140862,71.0898 5.52977686,71.0898 C2.60003763,71.0898 0,73.9021322 0,77.7691116 C0,79.790481 0.732378558,81.4602414 1.90425925,82.6467306 L34.0943406,113.977822 C35.6690483,115.471912 36.9874797,116.3508 38.5987875,116.3508 Z" id="Shape"></path>
                </g>
                <g id="Medium-L" transform="translate(1184.960000, 846.058600)">
                    <path d="M37.6088625,0 C36.2905454,0 35.1553737,0.703102815 33.8369815,1.97738105 L1.57466075,33.4831905 C0.585885395,34.4498782 0,35.8559938 0,37.6136158 C0,40.9091909 2.16054614,43.326 4.72398224,43.326 C5.85922894,43.326 6.99440065,42.7547346 8.16624643,41.6562096 L37.6088625,12.9626314 L67.0517036,41.6562096 C68.1864253,42.7547346 69.358646,43.326 70.4941177,43.326 C73.0575538,43.326 75.2175,40.9091909 75.2175,37.6136158 C75.2175,35.8559938 74.6317646,34.4498782 73.6432892,33.4831905 L41.3441444,1.97738105 C40.0258272,0.703102815 38.9272546,0 37.6088625,0 Z M37.6088625,114.537 C38.9272546,114.537 40.0258272,113.877902 41.3441444,112.603621 L73.6432892,81.0538299 C74.6317646,80.0870503 75.2175,78.6809317 75.2175,76.923306 C75.2175,73.6277241 73.0575538,71.211 70.4941177,71.211 C69.358646,71.211 68.1864253,71.7821766 67.0517036,72.8807039 L37.6088625,101.574333 L8.16624643,72.8807039 C6.99440065,71.7821766 5.85922894,71.211 4.72398224,71.211 C2.16054614,71.211 0,73.6277241 0,76.923306 C0,78.6809317 0.585885395,80.0870503 1.57466075,81.0538299 L33.8369815,112.559615 C35.1553737,113.833896 36.2905454,114.537 37.6088625,114.537 Z" id="Shape"></path>
                </g>
                <g id="Regular-L" transform="translate(889.990000, 848.060600)">
                    <path d="M36.2927618,0 C35.3406024,0 34.4616456,0.48336333 33.5094862,1.45008999 L1.13524103,33.1768495 C0.439440884,33.9238982 0,34.8906249 0,36.3847225 C0,38.8454567 1.57475692,40.779 3.66223237,40.779 C4.50451282,40.779 5.38346959,40.3834718 6.33562901,39.4606627 L36.3294382,9.97504962 L66.286271,39.4606627 C67.2388054,40.3834718 68.1178372,40.779 68.9601176,40.779 C71.0841944,40.779 72.6225,38.8454567 72.6225,36.3847225 C72.6225,34.8906249 72.1829841,33.9238982 71.486959,33.1768495 L39.0761124,1.40617241 C38.123878,0.439445753 37.2449963,0 36.2927618,0 Z M36.2927618,110.8219 C37.2449963,110.8219 38.123878,110.382555 39.0761124,109.415762 L71.486959,77.6458588 C72.1829841,76.9428348 72.6225,75.9321251 72.6225,74.438064 C72.6225,71.9773897 71.0841944,70.0879 68.9601176,70.0879 C68.1178372,70.0879 67.2388054,70.4833285 66.286271,71.3621986 L36.3294382,100.847138 L6.33562901,71.3621986 C5.38346959,70.4833285 4.50451282,70.0879 3.66223237,70.0879 C1.57475692,70.0879 0,71.9773897 0,74.438064 C0,75.9321251 0.439440884,76.9428348 1.13524103,77.6458588 L33.5094862,109.371845 C34.4616456,110.338548 35.3406024,110.8219 36.2927618,110.8219 Z" id="Shape"></path>
                </g>
                <g id="Light-L" transform="translate(593.320000, 848.890700)">
                    <path d="M36.2554122,0 C35.4497497,0 34.7905645,0.395423145 34.0215026,1.18635943 L0.915539197,33.8346865 C0.366155678,34.4059533 0,35.1529736 0,36.2954172 C0,38.1409651 1.17189317,39.591 2.74661759,39.591 C3.36912725,39.591 4.02831247,39.3273246 4.76077383,38.6243101 L36.2920128,7.38210197 L67.7864262,38.6243101 C68.482437,39.3273246 69.1784478,39.591 69.8009574,39.591 C71.4119824,39.591 72.5475,38.1409651 72.5475,36.2954172 C72.5475,35.1529736 72.1814943,34.4059533 71.6317358,33.8346865 L38.4893219,1.09852761 C37.7202599,0.351507238 37.0610747,0 36.2554122,0 Z M36.2554122,109.301 C37.0610747,109.301 37.7202599,108.949333 38.4893219,108.202255 L71.6317358,75.459528 C72.1814943,74.8881482 72.5475,74.14107 72.5475,72.9983104 C72.5475,71.1523972 71.4119824,69.746 69.8009574,69.746 C69.1784478,69.746 68.482437,70.0097276 67.7864262,70.7129712 L36.2920128,101.917347 L4.76077383,70.7129712 C4.02831247,70.0097276 3.36912725,69.746 2.74661759,69.746 C1.17189317,69.746 0,71.1523972 0,72.9983104 C0,74.14107 0.366155678,74.8881482 0.915539197,75.459528 L34.0215026,108.15824 C34.7905645,108.905409 35.4497497,109.301 36.2554122,109.301 Z" id="Shape"></path>
                </g>
                <g id="Thin-L" transform="translate(296.662000, 849.964900)">
                    <path d="M36.2180626,0 C35.5954908,0 35.1926679,0.307655647 34.6799706,0.835026752 L0.659171589,34.720803 C0.256273674,35.1163088 0,35.5119046 0,36.2150661 C0,37.2259732 0.622496779,38.061 1.53801704,38.061 C1.90424015,38.061 2.27046325,37.9291347 2.70988598,37.4897038 L36.2546624,3.95550831 L69.762764,37.4897038 C70.1655119,37.9291347 70.5682599,38.061 70.935008,38.061 C71.8500032,38.061 72.4725,37.2259732 72.4725,36.2150661 C72.4725,35.5119046 72.1800015,35.1163088 71.7772536,34.720803 L37.68288,0.747176573 C37.1701827,0.263640547 36.8039596,0 36.2180626,0 Z M36.2180626,109.3226 C36.8039596,109.3226 37.1701827,109.102891 37.68288,108.575535 L71.7772536,74.6027787 C72.1800015,74.2072841 72.4725,73.8116994 72.4725,73.1085578 C72.4725,72.0976793 71.8500032,71.3066 70.935008,71.3066 C70.5682599,71.3066 70.1655119,71.3945377 69.762764,71.8339562 L36.2546624,105.367204 L2.70988598,71.8339562 C2.27046325,71.3945377 1.90424015,71.3066 1.53801704,71.3066 C0.622496779,71.3066 0,72.0976793 0,73.1085578 C0,73.8116994 0.256273674,74.2072841 0.659171589,74.6027787 L34.6799706,108.531521 C35.1926679,109.014953 35.5954908,109.3226 36.2180626,109.3226 Z" id="Shape"></path>
                </g>
                <g id="Ultralight-L" transform="translate(0.000000, 850.502000)">
                    <path d="M36.1802632,0 C35.6675818,0 35.3746424,0.263724201 35.0451043,0.659220494 L0.549280084,35.2034004 C0.219667035,35.5110487 0,35.7307588 0,36.1702692 C0,36.7855656 0.366136725,37.269 0.915491806,37.269 C1.13515884,37.269 1.39149955,37.225076 1.64784025,36.9174277 L36.2535355,2.19746165 L70.7490598,36.9174277 C71.0422991,37.225076 71.2620412,37.269 71.5185319,37.269 C72.067512,37.269 72.3975,36.7855656 72.3975,36.1702692 C72.3975,35.7307588 72.177758,35.5110487 71.8845186,35.2034004 L37.2422997,0.571282424 C36.9126866,0.219710162 36.6563459,0 36.1802632,0 Z M36.1802632,104.3315 C36.6563459,104.3315 36.9126866,104.155714 37.2422997,103.760218 L71.8845186,69.1720236 C72.177758,68.8204513 72.3975,68.6446652 72.3975,68.1612308 C72.3975,67.5898584 72.067512,67.0625 71.5185319,67.0625 C71.2620412,67.0625 71.0422991,67.106424 70.7490598,67.4140723 L36.2535355,102.134038 L1.64784025,67.4140723 C1.39149955,67.106424 1.13515884,67.0625 0.915491806,67.0625 C0.366136725,67.0625 0,67.5898584 0,68.1612308 C0,68.6446652 0.219667035,68.8204513 0.549280084,69.1720236 L35.0451043,103.716204 C35.3746424,104.067866 35.6675818,104.3315 36.1802632,104.3315 Z" id="Shape"></path>
                </g>
                <g id="Black-M" transform="translate(2373.956700, 418.890700)">
                    <path d="M36.000075,0 C33.1068984,0 31.0194071,1.71386668 28.3459151,4.21874183 L3.51577882,27.8612461 C1.31840768,29.970572 0,32.9588362 0,35.8153407 C0,42.1874183 4.54122368,46.494 8.82608614,46.494 C11.1332621,46.494 13.3672348,45.3074423 15.3449213,43.417806 L36.000075,24.3455829 L56.6553037,43.417806 C58.6329152,45.3074423 60.8668879,46.494 63.1741389,46.494 C67.4225497,46.494 72,42.1874183 72,35.8153407 C72,32.9588362 70.6454407,29.970572 68.4845962,27.8612461 L43.6176333,4.21874183 C40.9807429,1.71386668 38.8932516,0 36.000075,0 Z M36.000075,107.7243 C38.8932516,107.7243 40.9807429,106.010476 43.6176333,103.505664 L68.4845962,79.9076746 C70.6454407,77.7983118 72,74.766204 72,71.9537803 C72,65.5818632 67.4225497,61.2753 63.1741389,61.2753 C60.8668879,61.2753 58.6329152,62.4618278 56.6553037,64.3074977 L36.000075,83.4231772 L15.3449213,64.3074977 C13.3672348,62.4618278 11.1332621,61.2753 8.82608614,61.2753 C4.54122368,61.2753 0,65.5818632 0,71.9537803 C0,74.766204 1.31840768,77.7983118 3.51577882,79.9076746 L28.3459151,103.505664 C31.0194071,106.010476 33.1068984,107.7243 36.000075,107.7243 Z" id="Shape"></path>
                </g>
                <g id="Heavy-M" transform="translate(2079.716700, 421.576200)">
                    <path d="M34.129051,0 C31.7488264,0 29.954471,1.40623826 27.7207138,3.51555064 L2.92949558,27.2458325 C1.09854209,29.0036978 0,31.5085569 0,34.013416 C0,39.4185908 3.80837425,43.11 7.50687929,43.11 C9.48437505,43.11 11.3519266,42.0992184 13.0730109,40.473292 L34.129051,20.7420368 L55.1850911,40.473292 C56.9061753,42.0992184 58.810325,43.11 60.7511477,43.11 C64.4497277,43.11 68.295,39.4185908 68.295,34.013416 C68.295,31.5085569 67.1963079,29.0036978 65.3652044,27.2458325 L40.5739862,3.51555064 C38.340229,1.40623826 36.5458736,0 34.129051,0 Z M34.129051,102.7741 C36.5458736,102.7741 38.340229,101.367862 40.5739862,99.2584594 L65.3652044,75.5281775 C67.1963079,73.7704022 68.295,71.2655431 68.295,68.760684 C68.295,63.3554192 64.4497277,59.6641 60.7511477,59.6641 C58.810325,59.6641 56.9061753,60.6747916 55.1850911,62.300808 L34.129051,82.0320452 L13.0730109,62.300808 C11.3519266,60.6747916 9.48437505,59.6641 7.50687929,59.6641 C3.80837425,59.6641 0,63.3554192 0,68.760684 C0,71.2655431 1.09854209,73.7704022 2.92949558,75.5281775 L27.7207138,99.2584594 C29.954471,101.367862 31.7488264,102.7741 34.129051,102.7741 Z" id="Shape"></path>
                </g>
                <g id="Bold-M" transform="translate(1785.756700, 424.554700)">
                    <path d="M32.08125,0 C30.2135301,0 28.7852517,1.05468104 27.027336,2.72458518 L2.23395856,26.5861699 C0.842281506,27.9484625 0,29.9259782 0,31.9913315 C0,36.2978033 3.00303733,39.33 6.0792774,39.33 C7.61743493,39.33 9.15559247,38.5829305 10.5472695,37.2206379 L32.08125,16.7426902 L53.5786291,37.2206379 C55.0069075,38.5829305 56.5084637,39.33 58.0832226,39.33 C61.1594627,39.33 64.1625,36.2978033 64.1625,31.9913315 C64.1625,29.9259782 63.3202185,27.9484625 61.8919401,26.5861699 L37.135164,2.72458518 C35.3772483,1.01076224 33.9489699,0 32.08125,0 Z M32.08125,97.2813 C33.9489699,97.2813 35.3772483,96.22659 37.135164,94.51272 L61.8919401,70.6944 C63.3202185,69.33207 64.1625,67.3545 64.1625,65.24517 C64.1625,60.93849 61.1594627,57.9063 58.0832226,57.9063 C56.5084637,57.9063 55.0069075,58.69731 53.5786291,60.01563 L32.08125,80.494158 L10.5472695,60.01563 C9.15559247,58.69731 7.61743493,57.9063 6.0792774,57.9063 C3.00303733,57.9063 0,60.93849 0,65.24517 C0,67.3545 0.842281506,69.33207 2.23395856,70.6944 L27.027336,94.51272 C28.7852517,96.22659 30.2135301,97.2813 32.08125,97.2813 Z" id="Shape"></path>
                </g>
                <g id="Semibold-M" transform="translate(1490.956700, 426.556700)">
                    <path d="M30.6524625,0 C29.1510063,0 27.9791069,0.834948386 26.5141764,2.24122935 L1.79448732,26.1480058 C0.65918871,27.24666 0,28.8287148 0,30.6744755 C0,34.2341439 2.41700027,36.783 5.09043087,36.783 C6.37220753,36.783 7.61730842,36.1677465 8.82588356,35.0251713 L30.6524625,14.0187987 L52.4791164,35.0251713 C53.6876166,36.1677465 54.9327925,36.783 56.2144941,36.783 C58.8879247,36.783 61.305,34.2341439 61.305,30.6744755 C61.305,28.8287148 60.6457363,27.24666 59.5105127,26.1480058 L34.7541478,2.19730839 C33.3258931,0.834948386 32.117318,0 30.6524625,0 Z M30.6524625,93.5173 C32.117318,93.5173 33.3258931,92.7262745 34.7541478,91.319979 L59.5105127,67.3692682 C60.6457363,66.2706167 61.305,64.6885657 61.305,62.8868204 C61.305,59.2832399 58.8879247,56.7343 56.2144941,56.7343 C54.9327925,56.7343 53.6876166,57.3935629 52.4791164,58.5361353 L30.6524625,79.4984546 L8.82588356,58.5361353 C7.61730842,57.3935629 6.37220753,56.7343 5.09043087,56.7343 C2.41700027,56.7343 0,59.2832399 0,62.8868204 C0,64.6885657 0.65918871,66.2706167 1.79448732,67.3692682 L26.5141764,91.319979 C27.9791069,92.6822637 29.1510063,93.5173 30.6524625,93.5173 Z" id="Shape"></path>
                </g>
                <g id="Medium-M" transform="translate(1195.686700, 428.119200)">
                    <path d="M29.5541994,0 C28.3822858,0 27.356852,0.659129319 26.1483371,1.80162614 L1.42827209,25.7946893 C0.549318111,26.6734984 0,27.991847 0,29.6177114 C0,32.6058423 2.01419141,34.803 4.32141748,34.803 C5.38345249,34.803 6.44548751,34.3196325 7.50752252,33.3089795 L29.5908006,11.9525236 L51.6374025,33.3089795 C52.6628363,34.3196325 53.7615475,34.803 54.8235825,34.803 C57.1307336,34.803 59.145,32.6058423 59.145,29.6177114 C59.145,27.991847 58.5956819,26.6734984 57.7167279,25.7946893 L32.9600617,1.80162614 C31.788148,0.659129319 30.7627142,0 29.5541994,0 Z M29.5541994,90.6096 C30.7627142,90.6096 31.788148,89.9943989 32.9600617,88.8518775 L57.7167279,64.8588999 C58.5956819,63.9360848 59.145,62.6178289 59.145,61.0358858 C59.145,58.0037532 57.1307336,55.8066 54.8235825,55.8066 C53.7615475,55.8066 52.6628363,56.3338844 51.6374025,57.3446252 L29.5908006,78.701001 L7.50752252,57.3446252 C6.44548751,56.3338844 5.38345249,55.8066 4.32141748,55.8066 C2.01419141,55.8066 0,58.0037532 0,61.0358858 C0,62.6178289 0.549318111,63.9360848 1.42827209,64.8588999 L26.1483371,88.8079326 C27.356852,89.9943989 28.3822858,90.6096 29.5541994,90.6096 Z" id="Shape"></path>
                </g>
                <g id="Regular-M" transform="translate(900.846700, 430.170000)">
                    <path d="M28.1625,0 C27.3202231,0 26.5511485,0.395448951 25.6721954,1.27436439 L0.988756598,25.3117928 C0.366236704,25.9709344 0,26.8937686 0,28.2120517 C0,30.4971779 1.42827064,32.211 3.3325815,32.211 C4.13833225,32.211 4.90733183,31.8593798 5.78628491,31.0683919 L28.1625,9.18424339 L50.5387151,31.0683919 C51.380992,31.8593798 52.1866677,32.211 52.9557423,32.211 C54.8967294,32.211 56.325,30.4971779 56.325,28.2120517 C56.325,26.8937686 55.9587633,25.9709344 55.3362434,25.3117928 L30.6528046,1.23035562 C29.7738515,0.395448951 28.9681757,0 28.1625,0 Z M28.1625,87.8419 C28.9681757,87.8419 29.7738515,87.4463931 30.6528046,86.6114232 L55.3362434,62.5292529 C55.9587633,61.8700898 56.325,60.9472254 56.325,59.6288992 C56.325,57.3436983 54.8967294,55.5859 52.9557423,55.5859 C52.1866677,55.5859 51.380992,55.9813619 50.5387151,56.7723756 L28.1625,78.6572844 L5.78628491,56.7723756 C4.90733183,55.9813619 4.13833225,55.5859 3.3325815,55.5859 C1.42827064,55.5859 0,57.3436983 0,59.6288992 C0,60.9472254 0.366236704,61.8700898 0.988756598,62.5292529 L25.6721954,86.567485 C26.5511485,87.4463931 27.3202231,87.8419 28.1625,87.8419 Z" id="Shape"></path>
                </g>
                <g id="Light-M" transform="translate(604.186700, 430.902400)">
                    <path d="M28.125,0 C27.42915,0 26.80665,0.307638634 26.1108,1.01076122 L0.80565,25.9293106 C0.29295,26.4127298 0,27.1158524 0,28.1706263 C0,29.8846001 1.062,31.203 2.526825,31.203 C3.1128,31.203 3.7353,30.939374 4.394475,30.2801741 L28.125,6.85589527 L51.85545,30.2801741 C52.514625,30.939374 53.1372,31.203 53.7231,31.203 C55.188,31.203 56.25,29.8846001 56.25,28.1706263 C56.25,27.1158524 55.956975,26.4127298 55.44435,25.9293106 L30.102525,0.966838562 C29.40675,0.307638634 28.820775,0 28.125,0 Z M28.125,86.4959 C28.820775,86.4959 29.40675,86.1882623 30.102525,85.485097 L55.44435,60.5666627 C55.956975,60.0393224 56.25,59.3801246 56.25,58.3253541 C56.25,56.6113857 55.188,55.2929 53.7231,55.2929 C53.1372,55.2929 52.514625,55.5566151 51.85545,56.1718905 L28.125,79.6400373 L4.394475,56.1718905 C3.7353,55.5566151 3.1128,55.2929 2.526825,55.2929 C1.062,55.2929 0,56.6113857 0,58.3253541 C0,59.3801246 0.29295,60.0393224 0.80565,60.5666627 L26.1108,85.485097 C26.80665,86.1443128 27.42915,86.4959 28.125,86.4959 Z" id="Shape"></path>
                </g>
                <g id="Thin-M" transform="translate(307.526700, 431.830100)">
                    <path d="M28.0508636,0 C27.5748532,0 27.1719656,0.263665799 26.7325541,0.746993105 L0.585882009,26.759199 C0.219668255,27.1107834 0,27.4622778 0,28.1213523 C0,29.0880069 0.585882009,29.835 1.42818114,29.835 C1.7943949,29.835 2.16053366,29.7031671 2.56334629,29.3077584 L28.1241364,3.82279413 L53.6115787,29.3077584 C54.0144663,29.7031671 54.3806051,29.835 54.7468189,29.835 C55.589118,29.835 56.175,29.0880069 56.175,28.1213523 C56.175,27.4622778 55.9552567,27.1107834 55.589118,26.759199 L29.3691731,0.703078801 C28.9297616,0.219661507 28.5635479,0 28.0508636,0 Z M28.0508636,85.7502 C28.5635479,85.7502 28.9297616,85.5304438 29.3691731,85.0909224 L55.589118,59.0277328 C55.9552567,58.6761445 56.175,58.3245561 56.175,57.6653056 C56.175,56.6983927 55.589118,55.9512 54.7468189,55.9512 C54.3806051,55.9512 54.0144663,56.0830681 53.6115787,56.4785825 L28.1241364,81.9703826 L2.56334629,56.4785825 C2.16053366,56.0830681 1.7943949,55.9512 1.42818114,55.9512 C0.585882009,55.9512 0,56.6983927 0,57.6653056 C0,58.3245561 0.219668255,58.6761445 0.585882009,59.0277328 L26.7325541,85.0469784 C27.1719656,85.4864908 27.5748532,85.7502 28.0508636,85.7502 Z" id="Shape"></path>
                </g>
                <g id="Ultralight-M" transform="translate(10.839700, 432.367200)">
                    <path d="M28.0504134,0 C27.6476072,0 27.3546709,0.219751443 27.0250613,0.527331473 L0.476002742,27.1107769 C0.18306644,27.3743527 0,27.5941041 0,28.033517 C0,28.6046728 0.366207876,29.088 0.878808907,29.088 C1.09854863,29.088 1.31828836,29.0440857 1.61122466,28.78042 L28.0870116,2.1969745 L54.5262003,28.78042 C54.7825384,29.0440857 55.0022781,29.088 55.2586161,29.088 C55.7712921,29.088 56.1375,28.6046728 56.1375,28.033517 C56.1375,27.5941041 55.9543586,27.3743527 55.6614223,27.1107769 L29.0024938,0.483327191 C28.6729592,0.131832868 28.4532195,0 28.0504134,0 Z M28.0504134,83.795 C28.4532195,83.795 28.6729592,83.6631764 29.0024938,83.3116649 L55.6614223,56.6843088 C55.9543586,56.4206436 56.1375,56.2009826 56.1375,55.7615707 C56.1375,55.1904161 55.7712921,54.707 55.2586161,54.707 C55.0022781,54.707 54.7825384,54.7510042 54.5262003,55.0145794 L28.0870116,81.5980213 L1.61122466,55.0145794 C1.31828836,54.7510042 1.09854863,54.707 0.878808907,54.707 C0.366207876,54.707 0,55.1904161 0,55.7615707 C0,56.2009826 0.18306644,56.4206436 0.476002742,56.6843088 L27.0250613,83.2677237 C27.3546709,83.575294 27.6476072,83.795 28.0504134,83.795 Z" id="Shape"></path>
                </g>
                <g id="Black-S" transform="translate(2384.551120, 0.000000)">
                    <path d="M28.05003,0 C25.8162948,0 24.2050206,1.31855436 22.1543489,3.25232606 L2.70979046,21.7553818 C1.02532085,23.3814998 0,25.7108648 0,27.9083654 C0,32.8307343 3.51539005,36.171 6.81113385,36.171 C8.60539659,36.171 10.3265389,35.248039 11.8644677,33.7977102 L28.05003,18.8107094 L44.2355173,33.7977102 C45.7735211,35.248039 47.4945884,36.171 49.2889261,36.171 C52.5845949,36.171 56.1,32.8307343 56.1,27.9083654 C56.1,25.7108648 55.0746642,23.3814998 53.3901945,21.7553818 L33.9456361,3.25232606 C31.8949644,1.31855436 30.2837652,0 28.05003,0 Z M28.05003,84.8976 C30.2837652,84.8976 31.8949644,83.5790887 33.9456361,81.6452871 L53.3901945,63.1422397 C55.0746642,61.5161193 56.1,59.1867508 56.1,56.9892469 C56.1,52.0667807 52.5845949,48.7266 49.2889261,48.7266 C47.4945884,48.7266 45.7735211,49.6495624 44.2355173,51.0998934 L28.05003,66.0869165 L11.8644677,51.0998934 C10.3265389,49.6495624 8.60539659,48.7266 6.81113385,48.7266 C3.51539005,48.7266 0,52.0667807 0,56.9892469 C0,59.1867508 1.02532085,61.5161193 2.70979046,63.1422397 L22.1543489,81.6452871 C24.2050206,83.5790887 25.8162948,84.8976 28.05003,84.8976 Z" id="Shape"></path>
                </g>
                <g id="Heavy-S" transform="translate(2089.721120, 2.953200)">
                    <path d="M26.6217313,0 C24.7541345,0 23.3626801,1.09859773 21.6049509,2.72448997 L2.27037904,21.2248866 C0.842252143,22.5871766 0,24.5646885 0,26.5421104 C0,30.8047452 3.00270373,33.705 5.93222749,33.705 C7.47022184,33.705 8.93494623,32.9140132 10.2898032,31.6396507 L26.6583287,16.3471198 L42.9901818,31.6396507 C44.3451138,32.9140132 45.8098382,33.705 47.3478325,33.705 C50.2772813,33.705 53.28,30.8047452 53.28,26.5421104 C53.28,24.5646885 52.4378079,22.5871766 51.009681,21.2248866 L31.6751091,2.72448997 C29.9173799,1.09859773 28.5258505,0 26.6217313,0 Z M26.6217313,79.2596 C28.5258505,79.2596 29.9173799,78.2049511 31.6751091,76.535082 L51.009681,58.0346768 C52.4378079,56.6724808 53.28,54.6949747 53.28,52.7174686 C53.28,48.4988549 50.2772813,45.5546 47.3478325,45.5546 C45.8098382,45.5546 44.3451138,46.3455844 42.9901818,47.6200333 L26.6583287,62.9125192 L10.2898032,47.6200333 C8.93494623,46.3455844 7.47022184,45.5546 5.93222749,45.5546 C3.00270373,45.5546 0,48.4988549 0,52.7174686 C0,54.6949747 0.842252143,56.6724808 2.27037904,58.0346768 L21.6049509,76.535082 C23.3626801,78.2049511 24.7541345,79.2596 26.6217313,79.2596 Z" id="Shape"></path>
                </g>
                <g id="Bold-S" transform="translate(1795.111120, 5.150400)">
                    <path d="M25.0504788,0 C23.5854841,0 22.4502108,0.834898543 21.0218935,2.15302679 L1.79455097,20.6512757 C0.659202599,21.7058323 2.27373675e-13,23.3316258 2.27373675e-13,25.0012429 C2.27373675e-13,28.5164016 2.4171662,30.933 4.90755214,30.933 C6.15278261,30.933 7.36133571,30.3178495 8.53328644,29.2193793 L25.0504788,13.5771349 L41.6042736,29.2193793 C42.7395469,30.3178495 43.9847774,30.933 45.2300079,30.933 C47.7203938,30.933 50.1375,28.5164016 50.1375,25.0012429 C50.1375,23.3316258 49.4782824,21.7058323 48.343009,20.6512757 L29.1156665,2.15302679 C27.6873492,0.834898543 26.5520009,0 25.0504788,0 Z M25.0504788,77.2143 C26.5520009,77.2143 27.6873492,76.3794281 29.1156665,75.0172778 L48.343009,56.562366 C49.4782824,55.4638598 50.1375,53.8819281 50.1375,52.1682513 C50.1375,48.6969826 47.7203938,46.2363 45.2300079,46.2363 C43.9847774,46.2363 42.7395469,46.8514707 41.6042736,47.9499768 L25.0504788,63.6367385 L8.53328644,47.9499768 C7.36133571,46.8514707 6.15278261,46.2363 4.90755214,46.2363 C2.4171662,46.2363 2.27373675e-13,48.6969826 2.27373675e-13,52.1682513 C2.27373675e-13,53.8819281 0.659202599,55.4638598 1.79455097,56.562366 L21.0218935,75.0172778 C22.4502108,76.3794281 23.5854841,77.2143 25.0504788,77.2143 Z" id="Shape"></path>
                </g>
                <g id="Semibold-S" transform="translate(1499.861120, 6.615300)">
                    <path d="M23.9882937,0 C22.7797426,0 21.7909555,0.659074353 20.6190068,1.8014759 L1.42829983,20.2560977 C0.549319547,21.1788378 0,22.4970765 0,23.9909724 C0,26.9788541 2.01431168,29.088 4.21172488,29.088 C5.27379167,29.088 6.29925617,28.5606685 7.32464566,27.6380184 L23.9882937,11.6878612 L40.6519416,27.6380184 C41.6408038,28.5606685 42.6662683,29.088 43.7283351,29.088 C45.9623506,29.088 47.94,26.9788541 47.94,23.9909724 C47.94,22.4970765 47.4272678,21.1788378 46.5116852,20.2560977 L27.3576556,1.8014759 C26.1491045,0.659074353 25.1602424,0 23.9882937,0 Z M23.9882937,74.4582 C25.1602424,74.4582 26.1491045,73.798929 27.3576556,72.7001397 L46.5116852,54.1964926 C47.4272678,53.3175174 47.94,51.9989195 47.94,50.5046165 C47.94,47.5159206 45.9623506,45.4062 43.7283351,45.4062 C42.6662683,45.4062 41.6408038,45.9335852 40.6519416,46.8565767 L23.9882937,62.8109902 L7.32464566,46.8565767 C6.29925617,45.9335852 5.27379167,45.4062 4.21172488,45.4062 C2.01431168,45.4062 0,47.5159206 0,50.5046165 C0,51.9989195 0.549319547,53.3175174 1.42829983,54.1964926 L20.6190068,72.7001397 C21.7909555,73.798929 22.7797426,74.4582 23.9882937,74.4582 Z" id="Shape"></path>
                </g>
                <g id="Medium-S" transform="translate(1204.251120, 7.787100)">
                    <path d="M23.1449925,0 C22.156173,0 21.3139063,0.527350201 20.288486,1.49403892 L1.17188316,19.9493162 C0.439493687,20.6963356 0,21.7948619 0,23.1570632 C0,25.7495384 1.6845933,27.639 3.69883311,27.639 C4.61437621,27.639 5.49324358,27.1995715 6.40878668,26.3208045 L23.1449925,10.2383332 L39.917799,26.3208045 C40.7967414,27.1995715 41.7122845,27.639 42.5911519,27.639 C44.6053917,27.639 46.29,25.7495384 46.29,23.1570632 C46.29,21.7948619 45.8504913,20.6963356 45.1181018,19.9493162 L26.001499,1.49403892 C25.0126794,0.527350201 24.133812,0 23.1449925,0 Z M23.1449925,72.3129 C24.133812,72.3129 25.0126794,71.7856056 26.001499,70.8188984 L45.1181018,52.3635948 C45.8504913,51.6165743 46.29,50.5180465 46.29,49.1558432 C46.29,46.5633643 44.6053917,44.6739 42.5911519,44.6739 C41.7122845,44.6739 40.7967414,45.1132391 39.917799,45.9481815 L23.1449925,62.0745916 L6.40878668,45.9481815 C5.49324358,45.1132391 4.61437621,44.6739 3.69883311,44.6739 C1.6845933,44.6739 0,46.5633643 0,49.1558432 C0,50.5180465 0.439493687,51.6165743 1.17188316,52.3635948 L20.288486,70.8188984 C21.3139063,71.7856056 22.156173,72.3129 23.1449925,72.3129 Z" id="Shape"></path>
                </g>
                <g id="Regular-S" transform="translate(908.961120, 9.252000)">
                    <path d="M22.08378,0 C21.3512887,0 20.6554745,0.351514244 19.8863811,1.09854951 L0.842357489,19.5542172 C0.329628583,20.1254953 0,20.9603642 0,22.1468372 C0,24.2120959 1.28180726,25.794 3.03975637,25.794 C3.7355706,25.794 4.43138483,25.4424858 5.20047818,24.7393673 L22.08378,8.34895825 L38.9670818,24.7393673 C39.6994981,25.4424858 40.4319894,25.794 41.1278036,25.794 C42.8490757,25.794 44.1675,24.2120959 44.1675,22.1468372 C44.1675,20.9603642 43.8379314,20.1254953 43.2886005,19.5542172 L24.2811789,1.09854951 C23.4754835,0.351514244 22.7795942,0 22.08378,0 Z M22.08378,68.5889 C22.7795942,68.5889 23.4754835,68.2373679 24.2811789,67.4903509 L43.2886005,49.0346806 C43.8379314,48.4634027 44.1675,47.6285341 44.1675,46.4420615 C44.1675,44.3768035 42.8490757,42.7949 41.1278036,42.7949 C40.4319894,42.7949 39.6994981,43.1464141 38.9670818,43.8495324 L22.08378,60.2399357 L5.20047818,43.8495324 C4.43138483,43.1464141 3.7355706,42.7949 3.03975637,42.7949 C1.28180726,42.7949 0,44.3768035 0,46.4420615 C0,47.6285341 0.329628583,48.4634027 0.842357489,49.0346806 L19.8863811,67.4903509 C20.6554745,68.2373679 21.3512887,68.5889 22.08378,68.5889 Z" id="Shape"></path>
                </g>
                <g id="Light-S" transform="translate(612.291120, 9.935600)">
                    <path d="M22.04628,0 C21.4602958,0 20.9109872,0.263630066 20.2884025,0.878916898 L0.695845889,20.0844887 C0.256339011,20.5239922 0,21.139279 0,22.0622093 C0,23.6443497 0.988800474,24.831 2.3071711,24.831 C2.81987913,24.831 3.36918772,24.5672799 3.95517189,24.0399298 L22.04628,6.24071501 L40.1373131,24.0399298 C40.6866967,24.5672799 41.2726059,24.831 41.8219145,24.831 C43.1036845,24.831 44.0925,23.6443497 44.0925,22.0622093 C44.0925,21.139279 43.836146,20.5239922 43.3967141,20.0844887 L23.7674819,0.878916898 C23.1814978,0.263630066 22.6321892,0 22.04628,0 Z M22.04628,67.3329 C22.6321892,67.3329 23.1814978,67.0692071 23.7674819,66.4539297 L43.3967141,47.2484078 C43.836146,46.8089047 44.0925,46.1936183 44.0925,45.2706887 C44.0925,43.6885495 43.1036845,42.5019 41.8219145,42.5019 C41.2726059,42.5019 40.6866967,42.7656199 40.1373131,43.2929696 L22.04628,61.0921895 L3.95517189,43.2929696 C3.36918772,42.7656199 2.81987913,42.5019 2.3071711,42.5019 C0.988800474,42.5019 0,43.6885495 0,45.2706887 C0,46.1936183 0.256339011,46.8089047 0.695845889,47.2484078 L20.2884025,66.4539297 C20.9109872,67.0692071 21.4602958,67.3329 22.04628,67.3329 Z" id="Shape"></path>
                </g>
                <g id="Thin-S" transform="translate(315.632120, 10.765700)">
                    <path d="M22.0087425,0 C21.5693278,0 21.2031114,0.219694181 20.8368951,0.615161708 L0.512672945,20.7865256 C0.183130694,21.0941515 0,21.4456982 0,22.0169391 C0,22.8958958 0.549272085,23.643 1.35497814,23.643 C1.64792125,23.643 1.9774635,23.5111475 2.34367989,23.1596008 L22.0454166,3.55956775 L41.6738051,23.1596008 C42.0400215,23.5111475 42.3696387,23.643 42.699181,23.643 C43.4682129,23.643 44.0175,22.8958958 44.0175,22.0169391 C44.0175,21.4456982 43.8344293,21.0941515 43.5414862,20.7865256 L23.1439908,0.571240872 C22.7411753,0.175773346 22.4482322,0 22.0087425,0 Z M22.0087425,65.8031 C22.4482322,65.8031 22.7411753,65.6273179 23.1439908,65.231806 L43.5414862,45.01657 C43.8344293,44.7089446 44.0175,44.3573985 44.0175,43.7860685 C44.0175,42.9072031 43.4682129,42.1601 42.699181,42.1601 C42.3696387,42.1601 42.0400215,42.2919523 41.6738051,42.6434985 L22.0454166,62.2434657 L2.34367989,42.6434985 C1.9774635,42.2919523 1.64792125,42.1601 1.35497814,42.1601 C0.549272085,42.1601 0,42.9072031 0,43.7860685 C0,44.3573985 0.183130694,44.7089446 0.512672945,45.01657 L20.8368951,65.1878582 C21.2031114,65.5833702 21.5693278,65.8031 22.0087425,65.8031 Z" id="Shape"></path>
                </g>
                <g id="Ultralight-S" transform="translate(18.945120, 10.205100)">
                    <path d="M17.5773546,0 C17.3136662,0 17.1085953,0.17578996 16.8742456,0.483444894 L0.322233823,21.1400704 C0.117186844,21.3598754 0,21.5795903 0,21.9751852 C0,22.5464801 0.263676399,22.986 0.673818354,22.986 C0.849550622,22.986 0.996064176,22.942075 1.20113515,22.6783451 L17.6066334,2.15358453 L33.9828528,22.6783451 C34.1879238,22.942075 34.3344374,22.986 34.5102296,22.986 C34.9203716,22.986 35.184,22.5464801 35.184,21.9751852 C35.184,21.5795903 35.0668252,21.3598754 34.8910329,21.1400704 L18.251125,0.439519906 C18.0167753,0.131864973 17.8703218,0 17.5773546,0 Z M17.5773546,65.7047 C17.8703218,65.7047 18.0167753,65.5860089 18.251125,65.3090793 L34.8910329,46.6753264 C35.0668252,46.4774674 35.184,46.2796895 35.184,45.923592 C35.184,45.4093369 34.9203716,45.0137 34.5102296,45.0137 C34.3344374,45.0137 34.1879238,45.0532394 33.9828528,45.2906377 L17.6066334,63.7661521 L1.20113515,45.2906377 C0.996064176,45.0532394 0.849550622,45.0137 0.673818354,45.0137 C0.263676399,45.0137 0,45.4093369 0,45.923592 C0,46.2796895 0.117186844,46.4774674 0.322233823,46.6753264 L16.8742456,65.2695156 C17.1085953,65.5464533 17.3136662,65.7047 17.5773546,65.7047 Z" id="Shape"></path>
                </g>
            </g>
        </g>
    </g>
</svg>