<?xml version="1.0" encoding="UTF-8"?>
<!--Generator: Apple Native CoreSVG 175-->
<!DOCTYPE svg
PUBLIC "-//W3C//DTD SVG 1.1//EN"
       "http://www.w3.org/Graphics/SVG/1.1/DTD/svg11.dtd">
<svg version="1.1" xmlns="http://www.w3.org/2000/svg" xmlns:xlink="http://www.w3.org/1999/xlink" width="3300" height="2200">
 <!--glyph: "", point size: 100.0, font version: "17.1d1e1", template writer version: "65.1"-->
 <g id="Notes">
  <rect height="2200" id="artboard" style="fill:white;opacity:1" width="3300" x="0" y="0"/>
  <line style="fill:none;stroke:black;opacity:1;stroke-width:0.5;" x1="263" x2="3036" y1="292" y2="292"/>
  <text style="stroke:none;fill:black;font-family:sans-serif;font-size:13;font-weight:bold;" transform="matrix(1 0 0 1 263 322)">Weight/Scale Variations</text>
  <text style="stroke:none;fill:black;font-family:sans-serif;font-size:13;text-anchor:middle;" transform="matrix(1 0 0 1 559.711 322)">Ultralight</text>
  <text style="stroke:none;fill:black;font-family:sans-serif;font-size:13;text-anchor:middle;" transform="matrix(1 0 0 1 856.422 322)">Thin</text>
  <text style="stroke:none;fill:black;font-family:sans-serif;font-size:13;text-anchor:middle;" transform="matrix(1 0 0 1 1153.13 322)">Light</text>
  <text style="stroke:none;fill:black;font-family:sans-serif;font-size:13;text-anchor:middle;" transform="matrix(1 0 0 1 1449.84 322)">Regular</text>
  <text style="stroke:none;fill:black;font-family:sans-serif;font-size:13;text-anchor:middle;" transform="matrix(1 0 0 1 1746.56 322)">Medium</text>
  <text style="stroke:none;fill:black;font-family:sans-serif;font-size:13;text-anchor:middle;" transform="matrix(1 0 0 1 2043.27 322)">Semibold</text>
  <text style="stroke:none;fill:black;font-family:sans-serif;font-size:13;text-anchor:middle;" transform="matrix(1 0 0 1 2339.98 322)">Bold</text>
  <text style="stroke:none;fill:black;font-family:sans-serif;font-size:13;text-anchor:middle;" transform="matrix(1 0 0 1 2636.69 322)">Heavy</text>
  <text style="stroke:none;fill:black;font-family:sans-serif;font-size:13;text-anchor:middle;" transform="matrix(1 0 0 1 2933.4 322)">Black</text>
  <line style="fill:none;stroke:black;opacity:1;stroke-width:0.5;" x1="263" x2="3036" y1="1903" y2="1903"/>
  <g transform="matrix(1 0 0 1 263 1933)">
   <path d="M9.24805 0.830078Q10.8691 0.830078 12.2949 0.214844Q13.7207-0.400391 14.8096-1.49414Q15.8984-2.58789 16.5186-4.01367Q17.1387-5.43945 17.1387-7.05078Q17.1387-8.66211 16.5186-10.0879Q15.8984-11.5137 14.8047-12.6074Q13.7109-13.7012 12.2852-14.3164Q10.8594-14.9316 9.23828-14.9316Q7.62695-14.9316 6.20117-14.3164Q4.77539-13.7012 3.69141-12.6074Q2.60742-11.5137 1.9873-10.0879Q1.36719-8.66211 1.36719-7.05078Q1.36719-5.43945 1.9873-4.01367Q2.60742-2.58789 3.69629-1.49414Q4.78516-0.400391 6.21094 0.214844Q7.63672 0.830078 9.24805 0.830078ZM9.24805-0.654297Q7.91992-0.654297 6.7627-1.14746Q5.60547-1.64062 4.73145-2.51953Q3.85742-3.39844 3.36426-4.56055Q2.87109-5.72266 2.87109-7.05078Q2.87109-8.37891 3.35938-9.54102Q3.84766-10.7031 4.72168-11.582Q5.5957-12.4609 6.75293-12.9541Q7.91016-13.4473 9.23828-13.4473Q10.5762-13.4473 11.7334-12.9541Q12.8906-12.4609 13.7695-11.582Q14.6484-10.7031 15.1465-9.54102Q15.6445-8.37891 15.6445-7.05078Q15.6445-5.72266 15.1514-4.56055Q14.6582-3.39844 13.7842-2.51953Q12.9102-1.64062 11.748-1.14746Q10.5859-0.654297 9.24805-0.654297ZM5.6543-7.05078Q5.6543-6.72852 5.85938-6.52832Q6.06445-6.32812 6.40625-6.32812L8.51562-6.32812L8.51562-4.20898Q8.51562-3.88672 8.71094-3.67676Q8.90625-3.4668 9.23828-3.4668Q9.56055-3.4668 9.77051-3.67676Q9.98047-3.88672 9.98047-4.20898L9.98047-6.32812L12.0898-6.32812Q12.4219-6.32812 12.627-6.52832Q12.832-6.72852 12.832-7.05078Q12.832-7.38281 12.627-7.58789Q12.4219-7.79297 12.0898-7.79297L9.98047-7.79297L9.98047-9.90234Q9.98047-10.2344 9.77051-10.4443Q9.56055-10.6543 9.23828-10.6543Q8.90625-10.6543 8.71094-10.4443Q8.51562-10.2344 8.51562-9.90234L8.51562-7.79297L6.40625-7.79297Q6.06445-7.79297 5.85938-7.58789Q5.6543-7.38281 5.6543-7.05078Z"/>
  </g>
  <g transform="matrix(1 0 0 1 281.867 1933)">
   <path d="M11.709 2.91016Q13.75 2.91016 15.5518 2.12891Q17.3535 1.34766 18.7305-0.0292969Q20.1074-1.40625 20.8887-3.20801Q21.6699-5.00977 21.6699-7.05078Q21.6699-9.0918 20.8887-10.8936Q20.1074-12.6953 18.7305-14.0723Q17.3535-15.4492 15.5469-16.2305Q13.7402-17.0117 11.6992-17.0117Q9.6582-17.0117 7.85645-16.2305Q6.05469-15.4492 4.68262-14.0723Q3.31055-12.6953 2.5293-10.8936Q1.74805-9.0918 1.74805-7.05078Q1.74805-5.00977 2.5293-3.20801Q3.31055-1.40625 4.6875-0.0292969Q6.06445 1.34766 7.86621 2.12891Q9.66797 2.91016 11.709 2.91016ZM11.709 1.25Q9.98047 1.25 8.47656 0.605469Q6.97266-0.0390625 5.83496-1.17676Q4.69727-2.31445 4.05762-3.81836Q3.41797-5.32227 3.41797-7.05078Q3.41797-8.7793 4.05762-10.2832Q4.69727-11.7871 5.83008-12.9297Q6.96289-14.0723 8.4668-14.7119Q9.9707-15.3516 11.6992-15.3516Q13.4277-15.3516 14.9316-14.7119Q16.4355-14.0723 17.5781-12.9297Q18.7207-11.7871 19.3652-10.2832Q20.0098-8.7793 20.0098-7.05078Q20.0098-5.32227 19.3701-3.81836Q18.7305-2.31445 17.5928-1.17676Q16.4551-0.0390625 14.9463 0.605469Q13.4375 1.25 11.709 1.25ZM7.17773-7.05078Q7.17773-6.69922 7.41211-6.47461Q7.64648-6.25 8.01758-6.25L10.8887-6.25L10.8887-3.36914Q10.8887-2.99805 11.1133-2.76855Q11.3379-2.53906 11.6895-2.53906Q12.0605-2.53906 12.29-2.76855Q12.5195-2.99805 12.5195-3.36914L12.5195-6.25L15.4004-6.25Q15.7715-6.25 16.001-6.47461Q16.2305-6.69922 16.2305-7.05078Q16.2305-7.42188 16.001-7.65137Q15.7715-7.88086 15.4004-7.88086L12.5195-7.88086L12.5195-10.752Q12.5195-11.1328 12.29-11.3623Q12.0605-11.5918 11.6895-11.5918Q11.3379-11.5918 11.1133-11.3574Q10.8887-11.123 10.8887-10.752L10.8887-7.88086L8.01758-7.88086Q7.63672-7.88086 7.40723-7.65137Q7.17773-7.42188 7.17773-7.05078Z"/>
  </g>
  <g transform="matrix(1 0 0 1 305.646 1933)">
   <path d="M14.9707 5.66406Q17.0605 5.66406 18.96 5.01465Q20.8594 4.36523 22.4512 3.19336Q24.043 2.02148 25.2197 0.429688Q26.3965-1.16211 27.0459-3.06641Q27.6953-4.9707 27.6953-7.05078Q27.6953-9.14062 27.0459-11.04Q26.3965-12.9395 25.2197-14.5312Q24.043-16.123 22.4512-17.2998Q20.8594-18.4766 18.9551-19.126Q17.0508-19.7754 14.9609-19.7754Q12.8711-19.7754 10.9717-19.126Q9.07227-18.4766 7.48535-17.2998Q5.89844-16.123 4.72168-14.5312Q3.54492-12.9395 2.90039-11.04Q2.25586-9.14062 2.25586-7.05078Q2.25586-4.9707 2.90527-3.06641Q3.55469-1.16211 4.72656 0.429688Q5.89844 2.02148 7.49023 3.19336Q9.08203 4.36523 10.9814 5.01465Q12.8809 5.66406 14.9707 5.66406ZM14.9707 3.84766Q13.1641 3.84766 11.5283 3.2959Q9.89258 2.74414 8.53516 1.74805Q7.17773 0.751953 6.17676-0.610352Q5.17578-1.97266 4.62891-3.6084Q4.08203-5.24414 4.08203-7.05078Q4.08203-8.86719 4.62891-10.5029Q5.17578-12.1387 6.17188-13.501Q7.16797-14.8633 8.52539-15.8594Q9.88281-16.8555 11.5186-17.4023Q13.1543-17.9492 14.9609-17.9492Q16.7773-17.9492 18.4131-17.4023Q20.0488-16.8555 21.4111-15.8594Q22.7734-14.8633 23.7695-13.501Q24.7656-12.1387 25.3174-10.5029Q25.8691-8.86719 25.8691-7.05078Q25.8789-5.24414 25.332-3.6084Q24.7852-1.97266 23.7842-0.610352Q22.7832 0.751953 21.4209 1.74805Q20.0586 2.74414 18.4229 3.2959Q16.7871 3.84766 14.9707 3.84766ZM9.19922-7.05078Q9.19922-6.66992 9.45801-6.4209Q9.7168-6.17188 10.1172-6.17188L14.0625-6.17188L14.0625-2.2168Q14.0625-1.81641 14.3115-1.55762Q14.5605-1.29883 14.9512-1.29883Q15.3516-1.29883 15.6104-1.55273Q15.8691-1.80664 15.8691-2.2168L15.8691-6.17188L19.8242-6.17188Q20.2246-6.17188 20.4785-6.4209Q20.7324-6.66992 20.7324-7.05078Q20.7324-7.46094 20.4785-7.71484Q20.2246-7.96875 19.8242-7.96875L15.8691-7.96875L15.8691-11.9141Q15.8691-12.3242 15.6104-12.583Q15.3516-12.8418 14.9512-12.8418Q14.5605-12.8418 14.3115-12.583Q14.0625-12.3242 14.0625-11.9141L14.0625-7.96875L10.1172-7.96875Q9.70703-7.96875 9.45312-7.71484Q9.19922-7.46094 9.19922-7.05078Z"/>
  </g>
  <text style="stroke:none;fill:black;font-family:sans-serif;font-size:13;font-weight:bold;" transform="matrix(1 0 0 1 263 1953)">Design Variations</text>
  <text style="stroke:none;fill:black;font-family:sans-serif;font-size:13;" transform="matrix(1 0 0 1 263 1971)">Symbols are supported in up to nine weights and three scales.</text>
  <text style="stroke:none;fill:black;font-family:sans-serif;font-size:13;" transform="matrix(1 0 0 1 263 1989)">For optimal layout with text and other symbols, vertically align</text>
  <text style="stroke:none;fill:black;font-family:sans-serif;font-size:13;" transform="matrix(1 0 0 1 263 2007)">symbols with the adjacent text.</text>
  <line style="fill:none;stroke:#00AEEF;stroke-width:0.5;opacity:1.0;" x1="776" x2="776" y1="1919" y2="1933"/>
  <g transform="matrix(1 0 0 1 776 1933)">
   <path d="M3.31055 0.15625Q3.70117 0.15625 3.91602-0.00976562Q4.13086-0.175781 4.26758-0.585938L5.52734-4.0332L11.2891-4.0332L12.5488-0.585938Q12.6855-0.175781 12.9004-0.00976562Q13.1152 0.15625 13.4961 0.15625Q13.8867 0.15625 14.1162-0.0585938Q14.3457-0.273438 14.3457-0.644531Q14.3457-0.869141 14.2383-1.17188L9.6582-13.3691Q9.48242-13.8184 9.17969-14.043Q8.87695-14.2676 8.4082-14.2676Q7.5-14.2676 7.17773-13.3789L2.59766-1.16211Q2.49023-0.859375 2.49023-0.634766Q2.49023-0.263672 2.70996-0.0537109Q2.92969 0.15625 3.31055 0.15625ZM6.00586-5.51758L8.37891-12.0898L8.42773-12.0898L10.8008-5.51758Z"/>
  </g>
  <line style="fill:none;stroke:#00AEEF;stroke-width:0.5;opacity:1.0;" x1="793.197" x2="793.197" y1="1919" y2="1933"/>
  <text style="stroke:none;fill:black;font-family:sans-serif;font-size:13;font-weight:bold;" transform="matrix(1 0 0 1 776 1953)">Margins</text>
  <text style="stroke:none;fill:black;font-family:sans-serif;font-size:13;" transform="matrix(1 0 0 1 776 1971)">Leading and trailing margins on the left and right side of each symbol</text>
  <text style="stroke:none;fill:black;font-family:sans-serif;font-size:13;" transform="matrix(1 0 0 1 776 1989)">can be adjusted by modifying the x-location of the margin guidelines.</text>
  <text style="stroke:none;fill:black;font-family:sans-serif;font-size:13;" transform="matrix(1 0 0 1 776 2007)">Modifications are automatically applied proportionally to all</text>
  <text style="stroke:none;fill:black;font-family:sans-serif;font-size:13;" transform="matrix(1 0 0 1 776 2025)">scales and weights.</text>
  <g transform="matrix(1 0 0 1 1289 1933)">
   <path d="M2.8418 1.86523L4.54102 3.57422Q5.18555 4.22852 5.90332 4.17969Q6.62109 4.13086 7.31445 3.35938L18.0078-8.42773L17.041-9.4043L6.42578 2.27539Q6.16211 2.57812 5.89355 2.61719Q5.625 2.65625 5.27344 2.30469L4.10156 1.14258Q3.75 0.791016 3.79395 0.522461Q3.83789 0.253906 4.14062-0.0195312L15.6152-10.8203L14.6387-11.7871L3.04688-0.898438Q2.30469-0.214844 2.25098 0.498047Q2.19727 1.21094 2.8418 1.86523ZM9.25781-16.3281Q8.94531-16.0254 8.90625-15.6348Q8.86719-15.2441 9.04297-14.9512Q9.21875-14.6777 9.55566-14.541Q9.89258-14.4043 10.3809-14.5215Q11.4746-14.7754 12.5977-14.7314Q13.7207-14.6875 14.7949-13.9844L14.209-12.5293Q13.9551-11.9043 14.0674-11.4404Q14.1797-10.9766 14.5801-10.5664L16.875-8.25195Q17.2363-7.88086 17.5781-7.82227Q17.9199-7.76367 18.3398-7.8418L19.4043-8.03711L20.0684-7.36328L20.0293-6.80664Q20-6.43555 20.1221-6.12305Q20.2441-5.81055 20.6055-5.44922L21.3672-4.70703Q21.7285-4.3457 22.1533-4.33105Q22.5781-4.31641 22.9297-4.66797L25.8398-7.58789Q26.1914-7.93945 26.1816-8.35449Q26.1719-8.76953 25.8105-9.13086L25.0391-9.89258Q24.6875-10.2539 24.3799-10.3857Q24.0723-10.5176 23.7109-10.4883L23.1348-10.4395L22.4902-11.0742L22.7344-12.1973Q22.832-12.6172 22.6953-12.9834Q22.5586-13.3496 22.1191-13.7891L19.9219-15.9766Q18.6719-17.2168 17.2607-17.8369Q15.8496-18.457 14.4189-18.4814Q12.9883-18.5059 11.665-17.959Q10.3418-17.4121 9.25781-16.3281ZM10.752-15.957Q11.6602-16.6211 12.7002-16.9043Q13.7402-17.1875 14.8047-17.085Q15.8691-16.9824 16.8701-16.5137Q17.8711-16.0449 18.7012-15.2051L21.1328-12.793Q21.3086-12.6172 21.3525-12.4512Q21.3965-12.2852 21.3379-12.0312L21.0156-10.5469L22.5195-9.0625L23.5059-9.12109Q23.6914-9.13086 23.7891-9.09668Q23.8867-9.0625 24.0332-8.91602L24.6094-8.33984L22.168-5.89844L21.5918-6.47461Q21.4453-6.62109 21.4062-6.71875Q21.3672-6.81641 21.377-7.01172L21.4453-7.98828L19.9512-9.47266L18.4277-9.21875Q18.1836-9.16992 18.042-9.2041Q17.9004-9.23828 17.7148-9.41406L15.7129-11.416Q15.5176-11.5918 15.4932-11.7529Q15.4688-11.9141 15.5859-12.1875L16.4648-14.2773Q15.293-15.3711 13.8281-15.791Q12.3633-16.2109 10.8398-15.7617Q10.7227-15.7324 10.6885-15.8057Q10.6543-15.8789 10.752-15.957Z"/>
  </g>
  <text style="stroke:none;fill:black;font-family:sans-serif;font-size:13;font-weight:bold;" transform="matrix(1 0 0 1 1289 1953)">Exporting</text>
  <text style="stroke:none;fill:black;font-family:sans-serif;font-size:13;" transform="matrix(1 0 0 1 1289 1971)">Symbols should be outlined when exporting to ensure the</text>
  <text style="stroke:none;fill:black;font-family:sans-serif;font-size:13;" transform="matrix(1 0 0 1 1289 1989)">design is preserved when submitting to Xcode.</text>
  <text id="template-version" style="stroke:none;fill:black;font-family:sans-serif;font-size:13;text-anchor:end;" transform="matrix(1 0 0 1 3036 1933)">Template v.3.0</text>
  <text style="stroke:none;fill:black;font-family:sans-serif;font-size:13;text-anchor:end;" transform="matrix(1 0 0 1 3036 1951)">Requires Xcode 13 or greater</text>
  <text id="descriptive-name" style="stroke:none;fill:black;font-family:sans-serif;font-size:13;text-anchor:end;" transform="matrix(1 0 0 1 3036 1969)">Generated from custom.breakpoint.fill</text>
  <text style="stroke:none;fill:black;font-family:sans-serif;font-size:13;text-anchor:end;" transform="matrix(1 0 0 1 3036 1987)">Typeset at 100 points</text>
  <text style="stroke:none;fill:black;font-family:sans-serif;font-size:13;" transform="matrix(1 0 0 1 263 726)">Small</text>
  <text style="stroke:none;fill:black;font-family:sans-serif;font-size:13;" transform="matrix(1 0 0 1 263 1156)">Medium</text>
  <text style="stroke:none;fill:black;font-family:sans-serif;font-size:13;" transform="matrix(1 0 0 1 263 1586)">Large</text>
 </g>
 <g id="Guides">
  <g id="H-reference" style="fill:#27AAE1;stroke:none;" transform="matrix(1 0 0 1 339 696)">
   <path d="M0.993347 0L3.6377 0L29.3282-67.1326L30.0301-67.1326L30.0301-70.459L28.1227-70.459ZM11.6882-24.4797L46.9818-24.4797L46.2311-26.7288L12.4382-26.7288ZM55.1193 0L57.7637 0L30.6381-70.459L29.4327-70.459L29.4327-67.1326Z"/>
  </g>
  <line id="Baseline-S" style="fill:none;stroke:#27AAE1;opacity:1;stroke-width:0.5;" x1="263" x2="3036" y1="696" y2="696"/>
  <line id="Capline-S" style="fill:none;stroke:#27AAE1;opacity:1;stroke-width:0.5;" x1="263" x2="3036" y1="625.541" y2="625.541"/>
  <g id="H-reference" style="fill:#27AAE1;stroke:none;" transform="matrix(1 0 0 1 339 1126)">
   <path d="M0.993347 0L3.6377 0L29.3282-67.1326L30.0301-67.1326L30.0301-70.459L28.1227-70.459ZM11.6882-24.4797L46.9818-24.4797L46.2311-26.7288L12.4382-26.7288ZM55.1193 0L57.7637 0L30.6381-70.459L29.4327-70.459L29.4327-67.1326Z"/>
  </g>
  <line id="Baseline-M" style="fill:none;stroke:#27AAE1;opacity:1;stroke-width:0.5;" x1="263" x2="3036" y1="1126" y2="1126"/>
  <line id="Capline-M" style="fill:none;stroke:#27AAE1;opacity:1;stroke-width:0.5;" x1="263" x2="3036" y1="1055.54" y2="1055.54"/>
  <g id="H-reference" style="fill:#27AAE1;stroke:none;" transform="matrix(1 0 0 1 339 1556)">
   <path d="M0.993347 0L3.6377 0L29.3282-67.1326L30.0301-67.1326L30.0301-70.459L28.1227-70.459ZM11.6882-24.4797L46.9818-24.4797L46.2311-26.7288L12.4382-26.7288ZM55.1193 0L57.7637 0L30.6381-70.459L29.4327-70.459L29.4327-67.1326Z"/>
  </g>
  <line id="Baseline-L" style="fill:none;stroke:#27AAE1;opacity:1;stroke-width:0.5;" x1="263" x2="3036" y1="1556" y2="1556"/>
  <line id="Capline-L" style="fill:none;stroke:#27AAE1;opacity:1;stroke-width:0.5;" x1="263" x2="3036" y1="1485.54" y2="1485.54"/>
  <line id="left-margin-Ultralight-S" style="fill:none;stroke:#00AEEF;stroke-width:0.5;opacity:1.0;" x1="512.374" x2="512.374" y1="600.784" y2="720.121"/>
  <line id="right-margin-Ultralight-S" style="fill:none;stroke:#00AEEF;stroke-width:0.5;opacity:1.0;" x1="607.048" x2="607.048" y1="600.784" y2="720.121"/>
  <line id="left-margin-Regular-S" style="fill:none;stroke:#00AEEF;stroke-width:0.5;opacity:1.0;" x1="1399.53" x2="1399.53" y1="600.784" y2="720.121"/>
  <line id="right-margin-Regular-S" style="fill:none;stroke:#00AEEF;stroke-width:0.5;opacity:1.0;" x1="1500.16" x2="1500.16" y1="600.784" y2="720.121"/>
  <line id="left-margin-Black-S" style="fill:none;stroke:#00AEEF;stroke-width:0.5;opacity:1.0;" x1="2881.95" x2="2881.95" y1="600.784" y2="720.121"/>
  <line id="right-margin-Black-S" style="fill:none;stroke:#00AEEF;stroke-width:0.5;opacity:1.0;" x1="2984.85" x2="2984.85" y1="600.784" y2="720.121"/>
  <line id="left-margin-Regular-M" style="fill:none;stroke:#00AEEF;stroke-width:0.5;opacity:1.0;" x1="1386.33" x2="1386.33" y1="1030.78" y2="1150.12"/>
  <line id="right-margin-Regular-M" style="fill:none;stroke:#00AEEF;stroke-width:0.5;opacity:1.0;" x1="1513.36" x2="1513.36" y1="1030.78" y2="1150.12"/>
 </g>
 <g id="Symbols">
  <g id="Black-L" transform="matrix(1 0 0 1 2849.25 1556)">
   <path d="M20.8519-65.2704C20.8519-72.3288 26.6033-78.0508 33.6979-78.0508L104.645-78.0508C107.782-78.0508 110.812-76.9084 113.161-74.8391L147.013-45.018C152.787-39.932 152.787-30.9666 147.013-25.8805L113.161 3.94054C110.812 6.00986 107.782 7.15227 104.645 7.15227L33.6979 7.15227C26.6033 7.15227 20.8519 1.43028 20.8519-5.6282L20.8519-65.2704Z"/>
  </g>
  <g id="Heavy-L" transform="matrix(1 0 0 1 2553.15 1556)">
   <path d="M21.4535-64.5598C21.4535-71.4834 27.1032-77.0962 34.0725-77.0962L103.766-77.0962C106.848-77.0962 109.824-75.9756 112.131-73.9458L145.386-44.6941C151.058-39.7052 151.058-30.911 145.386-25.9221L112.131 3.32953C109.824 5.35934 106.848 6.47993 103.766 6.47993L34.0725 6.47993C27.1032 6.47993 21.4535 0.867206 21.4535-6.05649L21.4535-64.5598Z"/>
  </g>
  <g id="Bold-L" transform="matrix(1 0 0 1 2257.3 1556)">
   <path d="M22.0681-63.6832C22.0681-70.4368 27.5888-75.9117 34.3989-75.9117L102.5-75.9117C105.512-75.9117 108.42-74.8186 110.674-72.8386L143.169-44.3057C148.712-39.4393 148.712-30.8612 143.169-25.9948L110.674 2.53819C108.42 4.51814 105.512 5.61119 102.5 5.61119L34.3989 5.61119C27.5888 5.61119 22.0681 0.136364 22.0681-6.61723L22.0681-63.6832Z"/>
  </g>
  <g id="Semibold-L" transform="matrix(1 0 0 1 1961.18 1556)">
   <path d="M22.4919-63.079C22.4919-69.7153 27.9236-75.0951 34.6239-75.0951L101.627-75.0951C104.591-75.0951 107.451-74.021 109.67-72.0754L141.641-44.0378C147.094-39.256 147.094-30.8268 141.641-26.0449L109.67 1.99265C107.451 3.93822 104.591 5.0123 101.627 5.0123L34.6239 5.0123C27.9236 5.0123 22.4919-0.367474 22.4919-7.00381L22.4919-63.079Z"/>
  </g>
  <g id="Medium-L" transform="matrix(1 0 0 1 1664.91 1556)">
   <path d="M22.8132-62.6208C22.8132-69.1682 28.1774-74.4759 34.7945-74.4759L100.966-74.4759C103.892-74.4759 106.717-73.4162 108.908-71.4967L140.482-43.8348C145.868-39.117 145.868-30.8007 140.482-26.0829L108.908 1.579C106.717 3.4985 103.892 4.55819 100.966 4.55819L34.7945 4.55819C28.1774 4.55819 22.8132-0.749505 22.8132-7.29692L22.8132-62.6208Z"/>
  </g>
  <g id="Regular-L" transform="matrix(1 0 0 1 1368.79 1556)">
   <path d="M23.2323-62.0231C23.2323-68.4546 28.5085-73.6682 35.017-73.6682L100.103-73.6682C102.981-73.6682 105.76-72.6273 107.915-70.7418L138.971-43.5699C144.268-38.9357 144.268-30.7667 138.971-26.1325L107.915 1.03945C105.76 2.92495 102.981 3.96587 100.103 3.96587L35.017 3.96587C28.5085 3.96587 23.2323-1.24781 23.2323-7.67925L23.2323-62.0231Z"/>
  </g>
  <g id="Light-L" transform="matrix(1 0 0 1 1073.33 1556)">
   <path d="M22.8174-61.441C22.8174-67.7347 27.9836-72.8367 34.3565-72.8367L98.085-72.8367C100.904-72.8367 103.624-71.818 105.735-69.9729L136.143-43.3831C141.329-38.8482 141.329-30.8542 136.143-26.3193L105.735 0.270569C103.624 2.11568 100.904 3.13429 98.085 3.13429L34.3565 3.13429C27.9836 3.13429 22.8174-1.96769 22.8174-8.26135L22.8174-61.441Z"/>
  </g>
  <g id="Thin-L" transform="matrix(1 0 0 1 778.275 1556)">
   <path d="M22.2687-60.6712C22.2687-66.7826 27.2894-71.7369 33.4828-71.7369L95.4166-71.7369C98.1557-71.7369 100.8-70.7477 102.851-68.956L132.403-43.1361C137.443-38.7324 137.443-30.9699 132.403-26.5663L102.851-0.746338C100.8 1.04535 98.1557 2.03447 95.4166 2.03447L33.4828 2.03447C27.2894 2.03447 22.2687-2.91979 22.2687-9.03123L22.2687-60.6712Z"/>
  </g>
  <g id="Ultralight-L" transform="matrix(1 0 0 1 482.412 1556)">
   <path d="M21.9877-60.2768C21.9877-66.2949 26.9339-71.1735 33.0353-71.1735L94.0498-71.1735C96.7483-71.1735 99.3533-70.1995 101.374-68.4352L130.487-43.0096C135.453-38.6732 135.453-31.0292 130.487-26.6928L101.374-1.26719C99.3533 0.497128 96.7483 1.47115 94.0498 1.47115L33.0353 1.47115C26.9339 1.47115 21.9877-3.40745 21.9877-9.42555L21.9877-60.2768Z"/>
  </g>
  <g id="Black-M" transform="matrix(1 0 0 1 2867.85 1126)">
   <path d="M15.5817-59.0354C15.5817-64.601 20.1099-69.1129 25.6958-69.1129L81.5544-69.1129C84.0249-69.1129 86.4098-68.212 88.2593-66.5804L114.913-43.0662C119.458-39.0558 119.458-31.9865 114.913-27.9762L88.2593-4.462C86.4098-2.83031 84.0249-1.92952 81.5544-1.92952L25.6958-1.92952C20.1099-1.92952 15.5817-6.44135 15.5817-12.007L15.5817-59.0354Z"/>
  </g>
  <g id="Heavy-M" transform="matrix(1 0 0 1 2571.62 1126)">
   <path d="M16.208-58.3944C16.208-63.841 20.647-68.2563 26.1229-68.2563L80.8816-68.2563C83.3034-68.2563 85.6413-67.3748 87.4544-65.778L113.583-42.7668C118.039-38.8422 118.039-31.9242 113.583-27.9996L87.4544-4.98837C85.6413-3.39159 83.3034-2.51006 80.8816-2.51006L26.1229-2.51006C20.6471-2.51006 16.208-6.92539 16.208-12.372L16.208-58.3944Z"/>
  </g>
  <g id="Bold-M" transform="matrix(1 0 0 1 2275.45 1126)">
   <path d="M16.9086-57.6774C16.9086-62.9908 21.2479-67.2982 26.6007-67.2982L80.1289-67.2982C82.4963-67.2982 84.7817-66.4382 86.5541-64.8805L112.095-42.432C116.452-38.6033 116.452-31.8544 112.095-28.0258L86.5541-5.57719C84.7817-4.01945 82.4963-3.15948 80.1289-3.15948L26.6007-3.15948C21.2479-3.15948 16.9086-7.46685 16.9086-12.7803L16.9086-57.6774Z"/>
  </g>
  <g id="Semibold-M" transform="matrix(1 0 0 1 1979.11 1126)">
   <path d="M17.3916-57.1831C17.3916-62.4047 21.6621-66.6377 26.9301-66.6377L79.61-66.6377C81.9399-66.6377 84.1891-65.7926 85.9334-64.2618L111.07-42.2011C115.357-38.4386 115.357-31.8063 111.07-28.0438L85.9334-5.98312C84.1891-4.4523 81.9399-3.60719 79.61-3.60719L26.9301-3.60719C21.6621-3.60719 17.3916-7.84013 17.3916-13.0618L17.3916-57.1831Z"/>
  </g>
  <g id="Medium-M" transform="matrix(1 0 0 1 1682.68 1126)">
   <path d="M17.7578-56.8083C17.7578-61.9603 21.9762-66.1369 27.1798-66.1369L79.2166-66.1369C81.518-66.1369 83.7397-65.303 85.4627-63.7926L110.292-42.026C114.527-38.3137 114.527-31.7698 110.292-28.0575L85.4627-6.29092C83.7397-4.7805 81.518-3.94666 79.2166-3.94666L27.1798-3.94666C21.9762-3.94666 17.7578-8.12317 17.7578-13.2752L17.7578-56.8083Z"/>
  </g>
  <g id="Regular-M" transform="matrix(1 0 0 1 1386.33 1126)">
   <path d="M18.2355-56.3195C18.2355-61.3807 22.3859-65.4836 27.5056-65.4836L78.7034-65.4836C80.9677-65.4836 83.1536-64.6644 84.8488-63.1806L109.278-41.7977C113.445-38.1508 113.445-31.7222 109.278-28.0753L84.8488-6.69239C83.1536-5.20859 80.9677-4.38944 78.7034-4.38944L27.5056-4.38944C22.3859-4.38944 18.2355-8.49234 18.2355-13.5536L18.2355-56.3195Z"/>
  </g>
  <g id="Light-M" transform="matrix(1 0 0 1 1090.75 1126)">
   <path d="M17.8635-55.7976C17.8635-60.7353 21.9153-64.738 26.9134-64.738L76.8945-64.738C79.105-64.738 81.239-63.9389 82.8939-62.4913L106.743-41.6302C110.81-38.0724 110.81-31.8007 106.743-28.2428L82.8939-7.38173C81.239-5.93415 79.105-5.13499 76.8945-5.13499L26.9134-5.13499C21.9153-5.13499 17.8635-9.13776 17.8635-14.0755L17.8635-55.7976Z"/>
  </g>
  <g id="Thin-M" transform="matrix(1 0 0 1 795.519 1126)">
   <path d="M17.3716-55.1074C17.3716-59.8817 21.2929-63.752 26.1301-63.752L74.5021-63.752C76.6415-63.752 78.7068-62.9793 80.3084-61.5796L103.389-41.4088C107.326-37.9686 107.326-31.9044 103.389-28.4643L80.3084-8.29344C78.7068-6.89376 76.6415-6.12104 74.5021-6.12104L26.1301-6.12104C21.2929-6.12104 17.3716-9.99136 17.3716-14.7657L17.3716-55.1074Z"/>
  </g>
  <g id="Ultralight-M" transform="matrix(1 0 0 1 499.568 1126)">
   <path d="M17.1196-54.7538C17.1196-59.4444 20.9741-63.2469 25.7289-63.2469L73.2768-63.2469C75.3797-63.2469 77.4098-62.4878 78.9841-61.1126L101.672-41.2953C105.541-37.9155 105.541-31.9576 101.672-28.5777L78.9841-8.76041C77.4098-7.38526 75.3797-6.62609 73.2768-6.62609L25.7289-6.62609C20.9741-6.62609 17.1196-10.4286 17.1196-15.1192L17.1196-54.7538Z"/>
  </g>
  <g id="Black-S" transform="matrix(1 0 0 1 2881.95 696)">
   <path d="M12-54.05C12-58.4407 15.57-62 19.9739-62L64.0126-62C65.9603-62 67.8405-61.2894 69.2987-60.0022L90.312-41.4522C93.896-38.2884 93.896-32.7116 90.312-29.5478L69.2987-10.9978C67.8405-9.71062 65.9603-9 64.0126-9L19.9739-9C15.57-9 12-12.5593 12-16.95L12-54.05Z"/>
  </g>
  <g id="Heavy-S" transform="matrix(1 0 0 1 2585.51 696)">
   <path d="M12.5832-53.5685C12.5832-57.8731 16.0895-61.3627 20.4149-61.3627L63.6683-61.3627C65.5813-61.3627 67.428-60.666 68.8602-59.404L89.4988-41.2175C93.0189-38.1158 93.0189-32.6482 89.4988-29.5465L68.8602-11.3599C67.428-10.0979 65.5813-9.40124 63.6683-9.40124L20.4149-9.40124C16.0896-9.40124 12.5832-12.8908 12.5832-17.1955L12.5832-53.5685Z"/>
  </g>
  <g id="Bold-S" transform="matrix(1 0 0 1 2289.09 696)">
   <path d="M13.2354-53.03C13.2354-57.2384 16.6706-60.65 20.9081-60.65L63.2833-60.65C65.1574-60.65 66.9666-59.9689 68.3697-58.7351L88.5892-40.9551C92.0378-37.9227 92.0378-32.5773 88.5892-29.5449L68.3697-11.7649C66.9666-10.5311 65.1574-9.85 63.2833-9.85L20.9081-9.85C16.6706-9.85 13.2354-13.2616 13.2354-17.47L13.2354-53.03Z"/>
  </g>
  <g id="Semibold-S" transform="matrix(1 0 0 1 1992.59 696)">
   <path d="M13.6851-52.6587C13.6851-56.8008 17.0712-60.1586 21.2482-60.1586L63.0178-60.1586C64.8651-60.1586 66.6485-59.4882 68.0315-58.2739L87.9621-40.7742C91.3614-37.7896 91.3614-32.5284 87.9621-29.5438L68.0315-12.0441C66.6485-10.8298 64.8651-10.1594 63.0178-10.1594L21.2482-10.1594C17.0712-10.1594 13.6851-13.5172 13.6851-17.6593L13.6851-52.6587Z"/>
  </g>
  <g id="Medium-S" transform="matrix(1 0 0 1 1696.04 696)">
   <path d="M14.0261-52.3772C14.0261-56.469 17.375-59.786 21.506-59.786L62.8165-59.786C64.6435-59.786 66.4073-59.1237 67.7751-57.9242L87.4866-40.637C90.8486-37.6886 90.8486-32.4914 87.4866-29.543L67.7751-12.2558C66.4073-11.0562 64.6435-10.394 62.8165-10.394L21.506-10.394C17.375-10.394 14.0261-13.711 14.0261-17.8028L14.0261-52.3772Z"/>
  </g>
  <g id="Regular-S" transform="matrix(1 0 0 1 1399.53 696)">
   <path d="M14.4709-52.01C14.4709-56.0362 17.7712-59.3 21.8423-59.3L62.5539-59.3C64.3545-59.3 66.0927-58.6484 67.4406-57.468L86.8664-40.458C90.1796-37.5569 90.1796-32.4431 86.8664-29.542L67.4406-12.532C66.0927-11.3516 64.3545-10.7 62.5539-10.7L21.8423-10.7C17.7712-10.7 14.4709-13.9638 14.4709-17.99L14.4709-52.01Z"/>
  </g>
  <g id="Light-S" transform="matrix(1 0 0 1 1103.81 696)">
   <path d="M14.1418-51.5483C14.1418-55.4652 17.3549-58.6405 21.3184-58.6405L60.9538-58.6405C62.7067-58.6405 64.3989-58.0065 65.7113-56.8582L84.6235-40.3099C87.8491-37.4875 87.8491-32.5125 84.6235-29.6901L65.7113-13.1418C64.3989-11.9935 62.7067-11.3595 60.9538-11.3595L21.3184-11.3595C17.3549-11.3595 14.1418-14.5348 14.1418-18.4517L14.1418-51.5483Z"/>
  </g>
  <g id="Thin-S" transform="matrix(1 0 0 1 808.413 696)">
   <path d="M13.7066-50.9377C13.7066-54.7101 16.8043-57.7682 20.6255-57.7682L58.8374-57.7682C60.5274-57.7682 62.1589-57.1576 63.4241-56.0517L81.6571-40.114C84.7669-37.3958 84.7669-32.6042 81.6571-29.886L63.4241-13.9483C62.1589-12.8423 60.5274-12.2318 58.8374-12.2318L20.6255-12.2318C16.8043-12.2318 13.7066-15.2899 13.7066-19.0623L13.7066-50.9377Z"/>
  </g>
  <g id="Ultralight-S" transform="matrix(1 0 0 1 512.374 696)">
   <path d="M13.4837-50.625C13.4837-54.3233 16.5223-57.3214 20.2706-57.3214L57.7534-57.3214C59.4112-57.3214 61.0115-56.7228 62.2526-55.6386L80.1378-40.0136C83.1882-37.3487 83.1882-32.6513 80.1378-29.9864L62.2526-14.3614C61.0115-13.2771 59.4112-12.6786 57.7534-12.6786L20.2706-12.6786C16.5223-12.6786 13.4837-15.6767 13.4837-19.375L13.4837-50.625Z"/>
  </g>
 </g>
</svg>
